<svg width="80" height="80" viewBox="0 0 80 80" fill="none" xmlns="http://www.w3.org/2000/svg">
<path d="M31.6097 55.2598C29.0197 55.2598 26.9297 57.3598 26.9297 59.9398C26.9297 62.5198 29.0197 64.6298 31.6097 64.6298C34.1997 64.6298 36.2897 62.5298 36.2897 59.9398C36.2897 57.3498 34.1897 55.2598 31.6097 55.2598ZM31.6097 62.3298C30.2997 62.3298 29.2197 61.2598 29.2197 59.9398C29.2197 58.6198 30.2997 57.5598 31.6097 57.5598C32.9197 57.5598 33.9997 58.6298 33.9997 59.9398C33.9997 61.2498 32.9197 62.3298 31.6097 62.3298Z" fill="#404040"/>
<path d="M32.3063 59.94C32.3063 60.33 31.9963 60.64 31.6063 60.64C31.2163 60.64 30.9062 60.33 30.9062 59.94C30.9062 59.55 31.2163 59.25 31.6063 59.25C31.9963 59.25 32.3063 59.56 32.3063 59.94Z" fill="#404040"/>
<path d="M56.3862 35.42L55.7062 35.11L49.7863 32.41C48.7963 31.95 47.5862 32.27 47.0062 33.39C46.8462 33.67 46.7263 33.98 46.6562 34.33L58.8363 40.05V38.46C58.8363 36.78 57.9862 36.19 56.3862 35.42Z" fill="#404040"/>
<path d="M64.071 46.8999L63.631 46.8099C62.411 46.6099 61.201 46.3899 59.971 46.1899C57.241 45.7199 54.511 45.2699 51.781 44.7999C48.911 44.3199 46.041 43.8199 43.171 43.3399C42.121 43.1599 41.061 42.9799 40.011 42.8099C39.371 42.6999 38.681 42.5199 38.011 42.5299C37.311 42.5499 36.651 42.7899 35.991 42.9899C35.191 43.2299 34.411 43.5199 33.671 43.8899L16.831 21.2299C16.551 20.8499 16.021 20.7699 15.641 21.0499C15.271 21.3299 15.181 21.8599 15.461 22.2399L32.191 44.7499C29.431 46.6199 28.101 49.3699 28.421 52.6099L28.591 54.3399C29.501 53.8599 30.521 53.5799 31.621 53.5799C35.141 53.5799 38.001 56.4499 38.001 59.9599C38.001 60.9199 37.791 61.8299 37.411 62.6399H64.551C64.171 61.8299 63.961 60.9199 63.961 59.9599C63.961 56.4499 66.821 53.5799 70.341 53.5799C71.211 53.5799 72.041 53.7599 72.811 54.0699C71.551 50.7599 68.431 48.1799 64.091 46.9099L64.071 46.8999ZM42.191 58.8999C42.191 59.3699 41.811 59.7499 41.341 59.7499C40.871 59.7499 40.491 59.3699 40.491 58.8999V56.2199C40.491 55.7499 40.871 55.3699 41.341 55.3699C41.811 55.3699 42.191 55.7499 42.191 56.2199V58.8999ZM46.991 58.8999C46.991 59.3699 46.611 59.7499 46.141 59.7499C45.671 59.7499 45.291 59.3699 45.291 58.8999V56.2199C45.291 55.7499 45.671 55.3699 46.141 55.3699C46.611 55.3699 46.991 55.7499 46.991 56.2199V58.8999ZM51.781 58.8999C51.781 59.3699 51.401 59.7499 50.931 59.7499C50.461 59.7499 50.081 59.3699 50.081 58.8999V56.2199C50.081 55.7499 50.461 55.3699 50.931 55.3699C51.401 55.3699 51.781 55.7499 51.781 56.2199V58.8999ZM56.571 58.8999C56.571 59.3699 56.191 59.7499 55.721 59.7499C55.251 59.7499 54.871 59.3699 54.871 58.8999V56.2199C54.871 55.7499 55.241 55.3699 55.721 55.3699C56.201 55.3699 56.571 55.7499 56.571 56.2199V58.8999ZM61.361 58.8999C61.361 59.3699 60.981 59.7499 60.511 59.7499C60.041 59.7499 59.661 59.3699 59.661 58.8999V56.2199C59.661 55.7499 60.031 55.3699 60.511 55.3699C60.991 55.3699 61.361 55.7499 61.361 56.2199V58.8999Z" fill="#5D9732"/>
<path d="M60.1872 42.5407C60.1072 42.5107 60.0472 42.5007 60.0072 42.4707L45.0472 35.4507C45.0472 35.4507 44.9672 35.4107 44.9172 35.3707C41.6872 34.0807 38.1172 36.4607 38.1172 40.0007C38.1172 40.0007 38.1172 40.1207 38.1172 40.7507C45.7472 42.5407 62.7672 44.9307 62.7672 44.9307C62.1772 43.9107 61.2872 43.0607 60.1772 42.5407H60.1872Z" fill="#5D9732"/>
<path d="M70.3206 55.2598C67.7406 55.2598 65.6406 57.3598 65.6406 59.9398C65.6406 62.5198 67.7406 64.6298 70.3206 64.6298C72.9006 64.6298 75.0006 62.5298 75.0006 59.9398C75.0006 57.3498 72.9106 55.2598 70.3206 55.2598ZM70.3206 62.3298C69.0106 62.3298 67.9306 61.2598 67.9306 59.9398C67.9306 58.6198 69.0106 57.5598 70.3206 57.5598C71.6306 57.5598 72.7106 58.6298 72.7106 59.9398C72.7106 61.2498 71.6406 62.3298 70.3206 62.3298Z" fill="#404040"/>
<path d="M71.0094 59.94C71.0094 60.33 70.6994 60.64 70.3094 60.64C69.9194 60.64 69.6094 60.33 69.6094 59.94C69.6094 59.55 69.9194 59.25 70.3094 59.25C70.6994 59.25 71.0094 59.56 71.0094 59.94Z" fill="#404040"/>
<path d="M13.4521 19.5107C13.7321 19.8907 14.2621 19.9607 14.6421 19.6907C15.0221 19.4107 15.0921 18.8807 14.8121 18.5007L12.7421 15.7107C12.4721 15.3507 11.9621 15.2607 11.5921 15.5107L5.38213 19.6907C4.99213 19.9507 4.89213 20.4807 5.15213 20.8707C5.31213 21.1107 5.58213 21.2407 5.85213 21.2407C6.01213 21.2407 6.18213 21.1907 6.32213 21.1007L11.8621 17.3807L13.4521 19.5207V19.5107Z" fill="#404040"/>
<path d="M26.2872 46.2894L27.5272 44.6294C27.7472 44.3294 27.7572 43.9194 27.5272 43.6194L16.3572 28.6094C16.0772 28.2394 15.5572 28.1594 15.1772 28.4294L11.5372 31.0394C10.6372 31.6794 10.1872 32.7594 10.3672 33.8494L11.7372 42.2494C11.8272 42.8194 12.0872 43.3394 12.4772 43.7594L14.7972 46.2294C15.2772 46.7394 15.9272 47.0594 16.6172 47.1294L22.9272 47.7594C23.0472 47.7694 23.1672 47.7794 23.2872 47.7794C24.4472 47.7794 25.5672 47.2294 26.2672 46.2894H26.2872Z" fill="#404040"/>
</svg>
