<svg width="80" height="80" viewBox="0 0 80 80" fill="none" xmlns="http://www.w3.org/2000/svg">
<path d="M21.049 24.6792L21.439 16.7992C21.479 16.0392 21.099 15.3392 20.459 14.9592C19.839 14.6092 19.089 14.6292 18.489 15.0192L5.89905 23.1892C5.27905 23.5892 4.93905 24.3092 5.00905 25.0592C5.07905 25.7992 5.53905 26.4392 6.20905 26.7092L13.159 29.5492L21.039 24.6592L21.049 24.6792ZM18.339 17.8392C19.359 17.8392 19.359 19.5092 18.339 19.5092C17.319 19.5092 17.319 17.8392 18.339 17.8392ZM15.239 19.7692C16.259 19.7692 16.259 21.4392 15.239 21.4392C14.219 21.4392 14.219 19.7692 15.239 19.7692ZM9.20905 25.2792C8.17905 25.2792 8.18905 23.6092 9.20905 23.6092C10.229 23.6092 10.229 25.2792 9.20905 25.2792ZM12.319 23.3492C11.299 23.3492 11.299 21.6792 12.319 21.6792C13.339 21.6792 13.339 23.3492 12.319 23.3492Z" fill="#404040"/>
<path d="M41.8984 43.6801C41.8384 44.2801 41.7684 44.9001 41.6484 45.5801C42.1984 44.8301 42.8084 44.0301 43.4584 43.2501C43.3684 43.1201 43.2884 42.9801 43.1884 42.8301C42.7384 43.1601 42.3084 43.4401 41.8884 43.6901L41.8984 43.6801Z" fill="#404040"/>
<path d="M31.1069 59.8001H62.3969C65.7769 54.6201 72.0969 44.5201 73.7169 38.8101C75.7169 31.7401 76.3869 22.2901 68.1869 17.4201C63.6769 14.7401 59.3769 15.8601 56.2769 17.5901L56.1869 16.8301C55.9869 15.2601 54.6869 14.0801 53.1669 14.0801H51.7269H47.9569C47.4969 14.0801 47.1269 14.4501 47.1269 14.9101C47.1269 15.3701 47.4969 15.7401 47.9569 15.7401H50.2069C48.7669 17.3801 46.1069 18.4601 43.2069 18.4601C40.3069 18.4601 37.6369 17.3901 36.2069 15.7401H44.5269C44.7469 15.7401 44.9569 15.6501 45.1069 15.4901C45.2669 15.3401 45.3569 15.1301 45.3569 14.9101C45.3569 14.4401 44.9869 14.0801 44.5269 14.0801H33.2469C31.7169 14.0801 30.4269 15.2601 30.2269 16.8401L27.5569 39.2201C26.0469 36.2901 23.3869 30.9001 21.4069 26.8401C21.3569 26.7401 21.3069 26.6301 21.2469 26.5301L14.5469 30.6801L23.5969 59.7901H28.2969C28.7569 59.7901 29.1269 60.1601 29.1269 60.6201C29.1269 61.0801 28.7569 61.4501 28.2969 61.4501H24.1069L24.4269 62.5101L24.4969 62.7001C25.1469 64.7001 25.5369 65.9001 27.4669 65.9001H58.9569C59.8069 65.9001 60.6169 65.5301 61.1869 64.8801C61.7969 64.2001 62.0669 63.2801 61.9569 62.3501L61.8369 61.4401H31.1269C30.6569 61.4401 30.2969 61.0701 30.2969 60.6101C30.2969 60.1501 30.6669 59.7801 31.1269 59.7801L31.1069 59.8001ZM68.5369 27.9801C71.8069 37.1701 60.5569 51.5301 60.5569 51.5301L56.8969 23.6701C56.8969 23.6701 65.2569 18.7901 68.5269 27.9801H68.5369ZM34.7369 30.3501C34.7569 30.1201 34.8869 29.9001 35.0869 29.7701C35.2769 29.6401 35.5169 29.5901 35.7469 29.6501C36.6869 29.8701 44.4169 31.8101 46.2869 35.7601C47.5969 35.3001 49.2169 34.9501 51.1669 34.7501C51.5769 34.7101 51.9669 34.9701 52.0669 35.3901C52.2269 36.1101 53.5969 42.5001 50.7069 44.7901C50.0569 45.3101 49.2669 45.5601 48.3469 45.5601C47.2769 45.5601 46.0169 45.2101 44.5869 44.5101C42.9069 46.6001 41.3669 48.7801 40.5769 50.0001C40.4169 50.2401 40.1569 50.3701 39.8769 50.3701C39.7669 50.3701 39.6469 50.3501 39.5369 50.3001C39.1669 50.1301 38.9769 49.7101 39.0769 49.3201C39.6169 47.4201 39.9369 45.8101 40.1369 44.4301C39.7669 44.5201 39.3969 44.5701 39.0569 44.5701C38.4569 44.5701 37.9069 44.4301 37.4169 44.1501C33.4669 41.9201 34.5969 31.5301 34.7469 30.3501H34.7369Z" fill="#5D9732"/>
<path d="M44.5922 41.9205C46.2222 40.0605 47.9522 38.4305 49.3822 37.8705C49.8022 37.7005 50.2922 37.9205 50.4522 38.3405C50.6222 38.7705 50.4122 39.2505 49.9822 39.4205C48.8322 39.8705 47.2622 41.3905 45.7022 43.1805C47.0522 43.7905 48.7122 44.2505 49.6922 43.4805C51.2422 42.2505 50.9522 38.5005 50.6022 36.4805C49.0522 36.6805 47.7622 36.9805 46.7222 37.3705C46.7822 38.8205 46.0322 40.2805 44.4922 41.7305C44.5222 41.8005 44.5622 41.8505 44.6022 41.9105L44.5922 41.9205Z" fill="#404040"/>
<path d="M38.2276 42.7002C38.8176 43.0302 39.5576 42.9302 40.3176 42.6302C40.5376 38.5302 39.3176 37.1802 39.3076 37.1602C38.9976 36.8302 38.9876 36.3102 39.3076 35.9902C39.6276 35.6702 40.1376 35.6502 40.4576 35.9702C40.6776 36.1802 42.0176 37.6202 42.0076 41.6402C42.1476 41.5402 42.2876 41.4402 42.4176 41.3302C44.4176 39.7802 45.2876 38.3302 45.0176 37.0302C44.4276 34.3302 39.1676 32.3102 36.2976 31.4902C35.9376 35.5602 36.1576 41.5202 38.2376 42.7002H38.2276Z" fill="#404040"/>
</svg>
