<svg width="80" height="80" viewBox="0 0 80 80" fill="none" xmlns="http://www.w3.org/2000/svg">
<path d="M46.1865 46.7998C46.2665 47.2998 46.1265 47.6498 45.9765 47.8398L43.9365 50.7598C43.9865 50.8298 44.0265 50.8998 44.0865 50.9898L44.1965 51.1698C44.2865 51.3198 44.3565 51.4698 44.4165 51.6298C44.6465 52.2498 44.6065 52.9298 44.3165 53.5298C44.0365 54.1298 43.5265 54.5798 42.9065 54.8098C42.6265 54.9098 42.3465 54.9498 42.0765 54.9498C41.7165 54.9498 41.3465 54.8698 41.0065 54.7098C40.4065 54.4298 39.9565 53.9198 39.7365 53.2998C39.7365 53.2998 39.7065 53.2498 39.6765 53.1998C39.6265 53.1098 39.5865 53.0298 39.5265 52.9598C39.4165 52.7798 39.3065 52.6098 39.1965 52.4398C38.9565 52.0998 38.6965 51.7698 38.4265 51.4598C37.8765 50.8198 37.2465 50.2398 36.5765 49.7198C35.2465 48.6998 33.6365 47.9498 31.9265 47.5298C31.1265 47.3498 30.2365 47.2298 29.2765 47.1698C29.1665 47.1698 28.9965 47.1698 28.8265 47.1698C28.5365 47.1698 28.2465 47.1498 27.9565 47.1698L27.2165 47.2098L26.5465 47.2798C24.8065 47.4898 22.9465 47.9498 21.0565 48.6598C20.4765 48.8598 19.8565 48.6098 19.5865 48.0798C19.4365 47.7998 19.4265 47.4798 19.5265 47.1798C19.6265 46.8798 19.8365 46.6398 20.1165 46.4998C22.1165 45.4998 24.1065 44.7698 26.0365 44.3298L26.7965 44.1598L27.6165 44.0298C27.9765 43.9598 28.3565 43.9198 28.7165 43.8898C28.8765 43.8698 29.0465 43.8698 29.2065 43.8398C30.4265 43.7798 31.5065 43.8098 32.5565 43.9298C33.7165 44.0798 34.8465 44.3398 35.9365 44.7198L37.7865 42.0798C38.0465 41.7198 38.5965 41.3198 39.7665 41.5198C40.1965 41.5898 40.6365 41.7498 41.0065 41.9298L41.7465 40.8398L45.8865 43.6098L45.0765 44.8098C45.5765 45.3698 46.0865 46.1498 46.2065 46.7898L46.1865 46.7998Z" fill="#5D9732"/>
<path d="M61.4106 11.7891L65.5406 14.5591L46.7806 42.2791L42.6406 39.5091L61.4106 11.7891Z" fill="#5D9732"/>
<path d="M69.3803 8.88086L66.4503 13.2109L62.3203 10.4409L65.2603 6.10086C65.6203 5.55086 66.1903 5.18086 66.8403 5.05086C67.5003 4.92086 68.1603 5.05086 68.7103 5.43086C69.2603 5.79086 69.6303 6.36086 69.7603 7.02086C69.8903 7.67086 69.7603 8.33086 69.3803 8.88086Z" fill="#404040"/>
<path d="M38.9029 56.7807C38.8029 56.3807 38.6629 56.0607 38.4529 55.7307C38.2429 55.4007 37.9629 55.0907 37.6229 54.8507C37.2829 54.6007 36.8729 54.4107 36.4529 54.3207C36.0929 54.2407 35.7229 54.2307 35.3629 54.2407C34.8129 53.3807 34.0629 52.6807 33.1729 52.1707C33.1929 52.1407 33.2129 52.1007 33.2329 52.0607C33.3729 51.8707 33.5429 51.7407 33.7529 51.6107C33.9529 51.5007 34.2029 51.4207 34.4729 51.3907C34.7329 51.3707 35.0429 51.3907 35.2829 51.4407L35.3429 51.4607C35.5129 51.4907 35.6829 51.4207 35.7729 51.2707C35.8829 51.0807 35.8229 50.8307 35.6329 50.7207C35.2729 50.5107 34.9429 50.3907 34.5629 50.2907C34.1829 50.2107 33.7729 50.1807 33.3429 50.2607C32.9329 50.3307 32.5029 50.4907 32.1429 50.7207C31.8129 50.9207 31.5429 51.1907 31.2829 51.4607C30.2929 51.2607 29.2829 51.2907 28.3129 51.5607C28.2929 51.5007 28.2829 51.4507 28.2729 51.3907C28.2429 51.1607 28.2729 50.9407 28.3329 50.7207C28.3929 50.4907 28.5129 50.2707 28.6929 50.0607C28.8529 49.8607 29.0929 49.6607 29.3029 49.5207L29.3629 49.4907C29.5029 49.3907 29.5729 49.2207 29.5329 49.0507C29.4729 48.8307 29.2529 48.7007 29.0429 48.7607C28.6429 48.8607 28.3229 49.0007 27.9829 49.2107C27.6629 49.4207 27.3529 49.7007 27.1029 50.0407C26.8629 50.3807 26.6729 50.7907 26.5829 51.2107C26.4829 51.6107 26.4829 52.0007 26.5029 52.3907C25.6629 52.9507 24.9929 53.6907 24.5029 54.5307C24.4429 54.5007 24.3729 54.4607 24.3129 54.4107C24.1229 54.2807 23.9929 54.1107 23.8729 53.9007C23.7629 53.7007 23.6829 53.4507 23.6529 53.1807C23.6229 52.9207 23.6529 52.6107 23.7029 52.3707L23.7229 52.3107C23.7529 52.1407 23.6829 51.9707 23.5329 51.8807C23.3429 51.7707 23.0929 51.8207 22.9829 52.0207C22.7729 52.3807 22.6429 52.7007 22.5529 53.0907C22.4729 53.4707 22.4429 53.8807 22.5229 54.3107C22.5829 54.7207 22.7529 55.1507 22.9829 55.5107C23.2029 55.8707 23.4929 56.1707 23.7929 56.4307C23.6029 57.3707 23.6229 58.3607 23.8729 59.3307C23.8029 59.3507 23.7229 59.3707 23.6429 59.3707C23.4129 59.4107 23.1929 59.3907 22.9729 59.3207C22.7429 59.2607 22.5229 59.1307 22.3129 58.9607C22.1129 58.8007 21.9029 58.5607 21.7729 58.3507L21.7329 58.2907C21.6429 58.1507 21.4629 58.0807 21.2929 58.1207C21.0829 58.1807 20.9529 58.4007 21.0029 58.6107C21.1129 59.0107 21.2529 59.3307 21.4529 59.6707C21.6629 59.9907 21.9429 60.3007 22.2829 60.5507C22.6329 60.7907 23.0329 60.9807 23.4629 61.0707C23.8629 61.1707 24.2829 61.1707 24.6829 61.1507C25.2229 61.9907 25.9529 62.6607 26.7829 63.1507C26.7429 63.2107 26.7129 63.2807 26.6629 63.3307C26.5229 63.5207 26.3529 63.6607 26.1529 63.7807C25.9429 63.8907 25.7029 63.9707 25.4329 64.0007C25.1729 64.0207 24.8529 64.0007 24.6129 63.9507L24.5529 63.9307C24.3929 63.9007 24.2129 63.9707 24.1229 64.1207C24.0129 64.3107 24.0729 64.5607 24.2729 64.6707C24.6229 64.8807 24.9529 65.0107 25.3429 65.1007C25.7229 65.1807 26.1329 65.2107 26.5629 65.1307C26.9729 65.0607 27.3929 64.9007 27.7629 64.6707C28.1129 64.4507 28.4029 64.1707 28.6729 63.8807C29.1229 63.9807 29.5829 64.0507 30.0429 64.0507C30.5629 64.0507 31.0829 63.9807 31.6029 63.8507C31.6029 63.9007 31.6329 63.9607 31.6329 64.0107C31.6729 64.2407 31.6529 64.4607 31.5829 64.6807C31.5229 64.9107 31.3929 65.1307 31.2229 65.3407C31.0629 65.5407 30.8229 65.7407 30.6129 65.8807L30.5529 65.9207C30.4029 66.0107 30.3329 66.1807 30.3829 66.3607C30.4429 66.5707 30.6629 66.7007 30.8729 66.6507C31.2729 66.5407 31.5929 66.4007 31.9229 66.1907C32.2529 65.9907 32.5629 65.7007 32.8029 65.3607C33.0429 65.0107 33.2429 64.6107 33.3229 64.1807C33.4229 63.8007 33.4329 63.4307 33.4129 63.0507C34.2729 62.5107 34.9729 61.7807 35.4929 60.9007C35.5229 60.9207 35.5529 60.9507 35.5929 60.9707C35.7829 61.1007 35.9129 61.2807 36.0429 61.4807C36.1529 61.6807 36.2329 61.9307 36.2529 62.2007C36.2829 62.4607 36.2529 62.7807 36.2129 63.0207L36.1929 63.0807C36.1629 63.2407 36.2329 63.4207 36.3829 63.5107C36.5729 63.6207 36.8329 63.5607 36.9429 63.3607C37.1529 63.0007 37.2729 62.6807 37.3629 62.2907C37.4529 61.9107 37.4729 61.5007 37.4029 61.0707C37.3329 60.6607 37.1729 60.2407 36.9329 59.8707C36.7429 59.5507 36.4829 59.2907 36.2329 59.0407C36.4629 58.0407 36.4329 57.0107 36.1729 56.0207C36.2029 56.0207 36.2329 56.0007 36.2729 56.0007C36.5029 55.9607 36.7229 55.9807 36.9529 56.0507C37.1829 56.1107 37.4029 56.2407 37.6129 56.4107C37.8129 56.5707 38.0229 56.8207 38.1529 57.0207L38.1829 57.0807C38.2829 57.2207 38.4529 57.2907 38.6229 57.2507C38.8429 57.1907 38.9729 56.9707 38.9129 56.7607L38.9029 56.7807ZM32.8229 58.4307C32.5929 59.3107 31.9829 60.0307 31.1429 60.4007C30.7629 60.5607 30.3729 60.6407 29.9829 60.6407C28.8429 60.6407 27.7529 59.9707 27.2729 58.8607C26.9629 58.1407 26.9529 57.3507 27.2429 56.6207C27.5329 55.8907 28.0929 55.3207 28.8129 55.0007C29.8029 54.5807 30.9429 54.7207 31.7929 55.3907C32.1429 55.6707 32.2029 56.1807 31.9329 56.5307C31.6529 56.8807 31.1429 56.9407 30.7929 56.6707C30.4129 56.3707 29.9029 56.3007 29.4529 56.4907C29.1329 56.6307 28.8729 56.8907 28.7529 57.2107C28.6229 57.5407 28.6229 57.9007 28.7729 58.2207C29.0529 58.8907 29.8429 59.2007 30.5029 58.9107C30.8829 58.7507 31.1629 58.4207 31.2529 58.0307C31.3629 57.5907 31.8029 57.3307 32.2429 57.4507C32.6729 57.5607 32.9429 58.0007 32.8229 58.4407V58.4307Z" fill="#404040"/>
<path d="M48.3863 26.6792C48.2363 26.0492 47.8063 25.5092 47.2363 25.2092L43.1863 23.0592C41.8163 22.3292 40.1963 22.2092 38.7363 22.7192C37.2763 23.2292 36.0863 24.3292 35.4763 25.7492L29.9863 38.3092C29.5563 39.3092 29.7663 40.4592 30.5163 41.1892C31.4763 42.1092 32.7163 42.3192 33.6763 42.3192H33.9363C34.6463 42.2892 35.2963 41.9292 35.7263 41.3392C36.9863 39.5892 38.4363 39.2292 39.4263 39.2492C40.2363 39.2492 40.9763 38.8792 41.4263 38.2092L48.0563 28.5192C48.4163 27.9892 48.5463 27.3092 48.3863 26.6792ZM39.0663 29.7792C38.9163 29.7792 38.7663 29.7392 38.6363 29.6592C38.2563 29.4292 38.1463 28.9192 38.3763 28.5392L39.8663 26.1692C40.0963 25.7892 40.6063 25.6792 40.9863 25.9092C41.3663 26.1492 41.4763 26.6592 41.2463 27.0292L39.7563 29.3992C39.6063 29.6492 39.3363 29.7792 39.0663 29.7792ZM43.8863 28.5092L42.3963 30.8792C42.2463 31.1192 41.9763 31.2592 41.7063 31.2592C41.5563 31.2592 41.4163 31.2192 41.2763 31.1392C40.8963 30.8992 40.7863 30.3892 41.0163 30.0192L42.5063 27.6492C42.7463 27.2692 43.2463 27.1592 43.6263 27.3892C44.0063 27.6192 44.1163 28.1292 43.8863 28.5092Z" fill="#404040"/>
<path d="M14.1381 69.9598H21.7481C22.1981 69.9598 22.5581 69.5998 22.5581 69.1498C22.5581 68.6998 22.1981 68.3398 21.7481 68.3398H14.1381C13.6881 68.3398 13.3281 68.6998 13.3281 69.1498C13.3281 69.5998 13.6881 69.9598 14.1381 69.9598Z" fill="#5D9732"/>
<path d="M54.965 69.1508C54.965 68.7008 54.605 68.3408 54.155 68.3408H47.855C47.855 68.3408 47.765 68.3608 47.725 68.3708C47.275 68.2608 46.845 68.5308 46.745 68.9708L45.945 72.3808L45.205 68.9808C45.205 68.9808 45.185 68.9308 45.175 68.9108C45.155 68.8608 45.135 68.8108 45.115 68.7608C45.085 68.7108 45.065 68.6708 45.025 68.6308C44.995 68.5908 44.955 68.5608 44.915 68.5208C44.875 68.4908 44.835 68.4608 44.785 68.4308C44.735 68.4108 44.695 68.3908 44.645 68.3708C44.595 68.3508 44.545 68.3408 44.485 68.3408C44.455 68.3408 44.435 68.3208 44.405 68.3208H41.175C41.175 68.3208 41.135 68.3308 41.105 68.3308C41.045 68.3308 40.995 68.3508 40.945 68.3608C40.895 68.3708 40.855 68.3908 40.805 68.4108C40.755 68.4308 40.715 68.4608 40.675 68.5008C40.635 68.5308 40.595 68.5708 40.565 68.6008C40.535 68.6408 40.505 68.6808 40.485 68.7208C40.455 68.7708 40.435 68.8208 40.415 68.8708C40.415 68.8908 40.395 68.9108 40.385 68.9308L39.555 72.4708L38.595 68.9108C38.595 68.9108 38.575 68.8808 38.575 68.8608C38.555 68.8108 38.535 68.7608 38.505 68.7108C38.475 68.6708 38.455 68.6208 38.425 68.5808C38.395 68.5408 38.355 68.5108 38.315 68.4808C38.275 68.4508 38.235 68.4108 38.185 68.3908C38.145 68.3708 38.095 68.3608 38.055 68.3408C37.995 68.3208 37.945 68.3108 37.885 68.3108C37.865 68.3108 37.855 68.3008 37.835 68.3008H34.685C34.685 68.3008 34.635 68.3108 34.605 68.3208C34.545 68.3208 34.495 68.3408 34.445 68.3508C34.395 68.3708 34.355 68.3808 34.315 68.4108C34.265 68.4408 34.225 68.4708 34.185 68.5008C34.145 68.5308 34.115 68.5608 34.085 68.6008C34.055 68.6408 34.025 68.6808 33.995 68.7308C33.965 68.7808 33.945 68.8308 33.935 68.8808C33.935 68.9108 33.905 68.9308 33.905 68.9608L33.215 72.4708L32.125 68.8908C32.125 68.8908 32.115 68.8708 32.105 68.8508C32.085 68.7908 32.055 68.7508 32.025 68.7008C31.995 68.6608 31.975 68.6208 31.945 68.5808C31.905 68.5408 31.865 68.5108 31.825 68.4808C31.785 68.4508 31.745 68.4208 31.705 68.4008C31.665 68.3808 31.615 68.3708 31.565 68.3608C31.505 68.3408 31.455 68.3308 31.395 68.3308C31.385 68.3308 31.365 68.3308 31.355 68.3308H24.685C24.235 68.3308 23.875 68.6908 23.875 69.1408C23.875 69.5908 24.235 69.9508 24.685 69.9508H30.755L31.965 73.9208C32.095 74.5408 32.645 74.9908 33.275 74.9908C33.985 74.9908 34.565 74.4408 34.615 73.7408L35.365 69.9508H37.235L38.305 73.9308C38.445 74.5408 38.995 74.9908 39.625 74.9908C40.325 74.9908 40.915 74.4508 40.965 73.7608L41.855 69.9508H43.795L44.655 73.9308C44.795 74.5408 45.345 74.9908 45.975 74.9908C46.675 74.9908 47.265 74.4508 47.315 73.7608L48.205 69.9508H54.185C54.635 69.9508 54.995 69.5908 54.995 69.1408L54.965 69.1508Z" fill="#5D9732"/>
<path d="M24.3875 71.1406H10.9975C10.5475 71.1406 10.1875 71.5006 10.1875 71.9506C10.1875 72.4006 10.5475 72.7606 10.9975 72.7606H24.3875C24.8375 72.7606 25.1975 72.4006 25.1975 71.9506C25.1975 71.5006 24.8375 71.1406 24.3875 71.1406Z" fill="#5D9732"/>
<path d="M29.505 71.1406H27.185C26.735 71.1406 26.375 71.5006 26.375 71.9506C26.375 72.4006 26.735 72.7606 27.185 72.7606H29.505C29.955 72.7606 30.315 72.4006 30.315 71.9506C30.315 71.5006 29.955 71.1406 29.505 71.1406Z" fill="#5D9732"/>
<path d="M57.2094 71.1406H49.6694C49.2194 71.1406 48.8594 71.5006 48.8594 71.9506C48.8594 72.4006 49.2194 72.7606 49.6694 72.7606H57.2094C57.6594 72.7606 58.0194 72.4006 58.0194 71.9506C58.0194 71.5006 57.6594 71.1406 57.2094 71.1406Z" fill="#5D9732"/>
</svg>
