<svg width="80" height="80" viewBox="0 0 80 80" fill="none" xmlns="http://www.w3.org/2000/svg">
<path d="M13.7812 57.1895H33.4113" stroke="#5D9732" stroke-width="1.58" stroke-miterlimit="10"/>
<path d="M13.7812 65.1406H38.4113" stroke="#5D9732" stroke-width="1.58" stroke-miterlimit="10"/>
<path d="M13.7812 41.0898H43.4113" stroke="#5D9732" stroke-width="1.58" stroke-miterlimit="10"/>
<path d="M13.7812 49.0391H38.4113" stroke="#5D9732" stroke-width="1.58" stroke-miterlimit="10"/>
<path d="M13.7812 24.9902H53.4113" stroke="#5D9732" stroke-width="1.58" stroke-miterlimit="10"/>
<path d="M13.7812 32.9395H53.4113" stroke="#5D9732" stroke-width="1.58" stroke-miterlimit="10"/>
<path d="M51.5969 10.9297H15.7969V16.9097H51.5969V10.9297Z" fill="white"/>
<path d="M60.6909 39.4999V20.1499C60.6909 16.7099 57.9009 13.9199 54.4609 13.9199H12.9409C9.50094 13.9199 6.71094 16.7099 6.71094 20.1499V67.0899C6.71094 70.5299 9.50094 73.3199 12.9409 73.3199H43.8409" stroke="#5D9732" stroke-width="3" stroke-miterlimit="10"/>
<path d="M57.0638 75.0201C66.0218 75.0201 73.2837 67.7581 73.2837 58.8001C73.2837 49.842 66.0218 42.5801 57.0638 42.5801C48.1057 42.5801 40.8438 49.842 40.8438 58.8001C40.8438 67.7581 48.1057 75.0201 57.0638 75.0201Z" fill="#404040"/>
<path d="M57.0575 53.7009C59.0568 53.7009 60.6775 52.0802 60.6775 50.0809C60.6775 48.0817 59.0568 46.4609 57.0575 46.4609C55.0582 46.4609 53.4375 48.0817 53.4375 50.0809C53.4375 52.0802 55.0582 53.7009 57.0575 53.7009Z" fill="white"/>
<path d="M62.4562 67.4707H51.6562V70.0107H62.4562V67.4707Z" fill="white"/>
<path d="M59.9863 56.4707H51.6562V59.0107H59.9863V56.4707Z" fill="white"/>
<path d="M59.9828 56.4707H54.1328V70.0207H59.9828V56.4707Z" fill="white"/>
<path d="M48.5375 9.7207H18.8675C18.2158 9.7207 17.6875 10.249 17.6875 10.9007V16.9407C17.6875 17.5924 18.2158 18.1207 18.8675 18.1207H48.5375C49.1892 18.1207 49.7175 17.5924 49.7175 16.9407V10.9007C49.7175 10.249 49.1892 9.7207 48.5375 9.7207Z" fill="#404040"/>
<path d="M34.4633 14.393C37.0473 13.9735 38.8021 11.5388 38.3826 8.95474C37.9632 6.37073 35.5284 4.61601 32.9444 5.03545C30.3604 5.4549 28.6057 7.88967 29.0251 10.4737C29.4445 13.0577 31.8793 14.8124 34.4633 14.393Z" fill="white" stroke="#5D9732" stroke-width="1.58" stroke-miterlimit="10"/>
</svg>
