<svg width="149" height="51" viewBox="0 0 149 51" fill="none" xmlns="http://www.w3.org/2000/svg">
<g clip-path="url(#clip0_182_3934)">
<mask id="mask0_182_3934" style="mask-type:luminance" maskUnits="userSpaceOnUse" x="0" y="0" width="149" height="51">
<path d="M149 0H0V51H149V0Z" fill="white"/>
</mask>
<g mask="url(#mask0_182_3934)">
<path d="M13.605 11.0465C5.51138 8.49463 1.54165 11.0465 1.54165 11.0465C1.9656 1.56259 11.0228 0.0390625 19.0779 0.0390625C35.3422 0.0390625 35.1881 6.70448 35.1881 13.1795V26.9674C35.1881 29.4812 35.3037 32.3378 36.7682 34.4707H23.5101C23.1632 33.5566 22.9705 32.1854 23.0476 31.3094H22.932C20.1956 34.4326 16.1873 35.3087 11.9863 35.3087C5.4343 35.3087 0 32.2235 0 25.1391C0 14.5126 12.603 14.8934 19.1935 13.6746C20.9664 13.3699 22.7393 12.8367 22.7393 10.7037C22.7393 8.41845 20.581 7.58051 18.4612 7.58051C14.4915 7.6186 13.6821 9.59918 13.605 11.0465ZM22.7393 19.3878C21.1591 20.1496 19.3862 20.6066 17.6133 20.9875C14.7227 21.635 13.2196 22.3587 13.2196 24.6059C13.2196 26.1675 14.9154 27.7291 17.2664 27.7291C20.2341 27.7291 22.508 25.9771 22.7007 22.473V19.3878H22.7393Z" fill="#528917"/>
</g>
<mask id="mask1_182_3934" style="mask-type:luminance" maskUnits="userSpaceOnUse" x="0" y="0" width="149" height="51">
<path d="M149 0H0V51H149V0Z" fill="white"/>
</mask>
<g mask="url(#mask1_182_3934)">
<path d="M38.1562 0.877001H50.6821V5.14287H50.7977C53.2258 1.79112 56.6945 0.0390625 61.859 0.0390625C67.9485 0.0390625 73.537 3.73361 73.537 11.4274V34.4707H60.5487V16.874C60.5487 12.989 60.0862 10.2848 56.2706 10.2848C54.0352 10.2848 51.1061 11.3893 51.1061 16.7598V34.5088H38.1562V0.877001Z" fill="#528917"/>
</g>
<mask id="mask2_182_3934" style="mask-type:luminance" maskUnits="userSpaceOnUse" x="0" y="0" width="149" height="51">
<path d="M149 0H0V51H149V0Z" fill="white"/>
</mask>
<g mask="url(#mask2_182_3934)">
<path d="M98.6288 13.6375C98.5132 12.2663 98.0507 11.1618 97.2028 10.4762C96.432 9.75251 95.3143 9.37163 93.9268 9.37163C88.955 9.37163 88.2227 13.6375 88.2227 17.7129C88.2227 21.7884 88.955 26.0161 93.9268 26.0161C96.7403 26.0161 98.7059 23.7308 98.9757 21.1028H111.347C110.114 30.2439 102.83 35.3477 93.657 35.3477C83.4436 35.3477 75.2344 28.3395 75.2344 17.751C75.2344 7.12443 83.4436 0.078125 93.657 0.078125C102.56 0.078125 110.153 4.42017 110.962 13.6756H98.6288V13.6375Z" fill="#528917"/>
</g>
<mask id="mask3_182_3934" style="mask-type:luminance" maskUnits="userSpaceOnUse" x="0" y="0" width="149" height="51">
<path d="M149 0H0V51H149V0Z" fill="white"/>
</mask>
<g mask="url(#mask3_182_3934)">
<path d="M148.999 17.6758C148.999 9.25832 143.064 2.21202 135.086 0.421875C136.435 2.55481 137.977 5.29716 139.056 8.07759C140.173 6.4398 141.021 5.41142 141.021 5.41142C140.482 6.40171 139.865 7.43009 139.21 8.53465C140.25 11.4674 140.751 14.4764 139.904 16.9902C139.904 16.9902 139.904 16.9902 139.904 17.0283C142.062 21.1418 143.758 26.0171 142.486 29.7497C142.447 29.8259 142.409 29.9021 142.409 30.0164C142.486 30.4734 142.563 30.8543 142.601 31.2733C146.533 27.9977 148.999 23.1224 148.999 17.6758Z" fill="#528917"/>
</g>
<mask id="mask4_182_3934" style="mask-type:luminance" maskUnits="userSpaceOnUse" x="0" y="0" width="149" height="51">
<path d="M149 0H0V51H149V0Z" fill="white"/>
</mask>
<g mask="url(#mask4_182_3934)">
<path d="M138.399 29.021C137.975 31.2682 137.859 32.8679 137.859 34.0486C139.208 33.5154 140.48 32.7917 141.675 31.9538C141.906 31.3063 142.137 30.6588 142.369 30.0113C141.598 26.1644 140.827 23.1554 140.095 20.6797C139.979 22.8126 139.247 24.6789 138.399 29.021Z" fill="#528917"/>
</g>
<mask id="mask5_182_3934" style="mask-type:luminance" maskUnits="userSpaceOnUse" x="0" y="0" width="149" height="51">
<path d="M149 0H0V51H149V0Z" fill="white"/>
</mask>
<g mask="url(#mask5_182_3934)">
<path d="M125.18 19.9609C123.522 23.2365 121.904 27.1977 121.133 32.3777C122.674 33.406 124.409 34.2059 126.22 34.701C126.529 32.7585 127.03 30.9684 127.608 29.2544C126.837 25.3314 126.028 22.3605 125.18 19.9609Z" fill="#528917"/>
</g>
<mask id="mask6_182_3934" style="mask-type:luminance" maskUnits="userSpaceOnUse" x="0" y="0" width="149" height="51">
<path d="M149 0H0V51H149V0Z" fill="white"/>
</mask>
<g mask="url(#mask6_182_3934)">
<path d="M133.118 26.8521C133.08 26.7759 133.041 26.6998 133.041 26.5855C131.576 22.3196 133.966 16.5683 136.471 12.1501C135.855 11.0456 135.238 10.0172 134.621 8.91262C134.621 8.91262 135.508 10.0172 136.702 11.7311C137.126 10.9694 137.589 10.2457 138.013 9.59821C136.78 5.25616 135.585 2.5519 134.39 0.266617C133.349 0.114264 132.232 0 131.114 0C128.994 0 126.99 0.380881 125.102 1.02838C127.915 5.02763 133.311 13.826 131.345 19.6916C131.307 19.7677 131.268 19.8439 131.268 19.9582C132.116 24.2621 131.075 25.3667 129.881 31.7655C129.611 33.1748 129.457 34.3555 129.38 35.3077C129.958 35.3458 130.536 35.3839 131.114 35.3839C132.039 35.3839 132.925 35.3077 133.812 35.1934C133.118 31.7274 132.848 30.3181 133.118 26.8521Z" fill="#528917"/>
</g>
<mask id="mask7_182_3934" style="mask-type:luminance" maskUnits="userSpaceOnUse" x="0" y="0" width="149" height="51">
<path d="M149 0H0V51H149V0Z" fill="white"/>
</mask>
<g mask="url(#mask7_182_3934)">
<path d="M120.249 9.82569C120.249 9.82569 123.217 13.5202 125.606 18.1289C127.302 15.5008 128.728 13.7107 128.728 13.7107C127.919 15.1961 126.878 16.7958 125.876 18.6621C127.225 21.3664 128.304 24.3373 128.497 27.0415C129.383 24.7943 130.385 22.509 131.272 19.9571C129.113 9.02584 126.955 4.91232 124.835 1.17969C118.052 3.6935 113.234 10.1685 113.234 17.748C113.234 23.4993 116.009 28.6412 120.326 31.8787C120.403 27.7271 122.754 22.928 124.912 19.3096C123.371 14.9295 121.829 12.6061 120.249 9.82569Z" fill="#528917"/>
</g>
<mask id="mask8_182_3934" style="mask-type:luminance" maskUnits="userSpaceOnUse" x="0" y="0" width="149" height="51">
<path d="M149 0H0V51H149V0Z" fill="white"/>
</mask>
<g mask="url(#mask8_182_3934)">
<path d="M136.895 12.875C135.16 16.4934 133.619 20.9497 133.156 26.8533C133.734 28.6054 134.351 30.2051 134.891 31.8048C135.661 27.0438 137.666 23.1969 139.4 18.474C138.552 16.1506 137.704 14.4366 136.895 12.875Z" fill="#528917"/>
</g>
<mask id="mask9_182_3934" style="mask-type:luminance" maskUnits="userSpaceOnUse" x="0" y="0" width="149" height="51">
<path d="M149 0H0V51H149V0Z" fill="white"/>
</mask>
<g mask="url(#mask9_182_3934)">
<path d="M139.708 16.642C139.207 14.2043 138.706 12.1095 138.243 10.2812C137.896 10.9287 137.511 11.6143 137.164 12.338C137.935 13.5949 138.821 15.0423 139.708 16.642Z" fill="#528917"/>
</g>
<mask id="mask10_182_3934" style="mask-type:luminance" maskUnits="userSpaceOnUse" x="0" y="0" width="149" height="51">
<path d="M149 0H0V51H149V0Z" fill="white"/>
</mask>
<g mask="url(#mask10_182_3934)">
<path d="M128.227 35.1174C128.381 33.8605 128.381 32.6036 127.996 30.8516C127.533 32.2227 127.032 33.5177 126.531 34.7746C127.071 34.927 127.649 35.0413 128.227 35.1174Z" fill="#528917"/>
</g>
<mask id="mask11_182_3934" style="mask-type:luminance" maskUnits="userSpaceOnUse" x="0" y="0" width="149" height="51">
<path d="M149 0H0V51H149V0Z" fill="white"/>
</mask>
<g mask="url(#mask11_182_3934)">
<path d="M134.855 31.8047C134.701 32.8331 134.585 33.8995 134.547 35.0422C134.971 34.966 135.395 34.8517 135.819 34.7375C135.51 33.7853 135.202 32.795 134.855 31.8047Z" fill="#528917"/>
</g>
<mask id="mask12_182_3934" style="mask-type:luminance" maskUnits="userSpaceOnUse" x="0" y="0" width="149" height="51">
<path d="M149 0H0V51H149V0Z" fill="white"/>
</mask>
<g mask="url(#mask12_182_3934)">
<path d="M69.4922 42.2422H68.3359V50.812H69.4922V42.2422Z" fill="#528917"/>
</g>
<mask id="mask13_182_3934" style="mask-type:luminance" maskUnits="userSpaceOnUse" x="0" y="0" width="149" height="51">
<path d="M149 0H0V51H149V0Z" fill="white"/>
</mask>
<g mask="url(#mask13_182_3934)">
<path d="M71.4141 42.2422H72.6474L77.2338 49.1742V42.2422H78.3515V50.812H77.0796L72.5318 43.9181H72.4932V50.812H71.4141V42.2422Z" fill="#528917"/>
</g>
<mask id="mask14_182_3934" style="mask-type:luminance" maskUnits="userSpaceOnUse" x="0" y="0" width="149" height="51">
<path d="M149 0H0V51H149V0Z" fill="white"/>
</mask>
<g mask="url(#mask14_182_3934)">
<path d="M84.9796 44.7502C84.864 43.5313 84.0161 42.9981 82.8213 42.9981C81.8578 42.9981 80.8557 43.3409 80.8557 44.4835C80.8557 45.55 82.2432 45.7024 83.6307 46.0071C85.0181 46.3118 86.4056 46.8069 86.4056 48.4828C86.4056 50.311 84.5942 51.0347 83.014 51.0347C81.0484 51.0347 79.4297 50.0825 79.4297 47.9876H80.5088C80.5088 49.435 81.7422 50.0444 83.0526 50.0444C84.0932 50.0444 85.2494 49.7016 85.2494 48.4828C85.2494 47.3021 83.8619 47.1116 82.4744 46.8069C81.087 46.5022 79.6995 46.1213 79.6995 44.5216C79.6995 42.7696 81.2797 42.0078 82.8598 42.0078C84.6327 42.0078 85.9817 42.8458 86.0588 44.7121H84.9796V44.7502Z" fill="#528917"/>
</g>
<mask id="mask15_182_3934" style="mask-type:luminance" maskUnits="userSpaceOnUse" x="0" y="0" width="149" height="51">
<path d="M149 0H0V51H149V0Z" fill="white"/>
</mask>
<g mask="url(#mask15_182_3934)">
<path d="M89.1093 43.1944H86.2188V42.2422H93.1562V43.1944H90.2656V50.812H89.1093V43.1944Z" fill="#528917"/>
</g>
<mask id="mask16_182_3934" style="mask-type:luminance" maskUnits="userSpaceOnUse" x="0" y="0" width="149" height="51">
<path d="M149 0H0V51H149V0Z" fill="white"/>
</mask>
<g mask="url(#mask16_182_3934)">
<path d="M95.5088 42.2422H96.7807L100.172 50.812H98.9004L97.9369 48.222H94.2755L93.312 50.812H92.1172L95.5088 42.2422ZM94.6224 47.2698H97.5515L96.0869 43.2706H96.0484L94.6224 47.2698Z" fill="#528917"/>
</g>
<mask id="mask17_182_3934" style="mask-type:luminance" maskUnits="userSpaceOnUse" x="0" y="0" width="149" height="51">
<path d="M149 0H0V51H149V0Z" fill="white"/>
</mask>
<g mask="url(#mask17_182_3934)">
<path d="M101.016 42.2422H102.249L106.797 49.1742H106.835V42.2422H107.914V50.812H106.681L102.133 43.9181H102.095V50.812H101.016V42.2422Z" fill="#528917"/>
</g>
<mask id="mask18_182_3934" style="mask-type:luminance" maskUnits="userSpaceOnUse" x="0" y="0" width="149" height="51">
<path d="M149 0H0V51H149V0Z" fill="white"/>
</mask>
<g mask="url(#mask18_182_3934)">
<path d="M111.766 43.1944H108.875V42.2422H115.812V43.1944H112.922V50.812H111.766V43.1944Z" fill="#528917"/>
</g>
<mask id="mask19_182_3934" style="mask-type:luminance" maskUnits="userSpaceOnUse" x="0" y="0" width="149" height="51">
<path d="M149 0H0V51H149V0Z" fill="white"/>
</mask>
<g mask="url(#mask19_182_3934)">
<path d="M122.141 43.1944H119.25V42.2422H126.187V43.1944H123.297V50.812H122.141V43.1944Z" fill="#528917"/>
</g>
<mask id="mask20_182_3934" style="mask-type:luminance" maskUnits="userSpaceOnUse" x="0" y="0" width="149" height="51">
<path d="M149 0H0V51H149V0Z" fill="white"/>
</mask>
<g mask="url(#mask20_182_3934)">
<path d="M134.085 47.7269C134.085 49.8979 132.813 51.0405 130.655 51.0405C128.419 51.0405 127.07 50.0122 127.07 47.7269V42.2422H128.227V47.7269C128.227 49.2504 129.113 50.0883 130.655 50.0883C132.119 50.0883 132.929 49.2504 132.929 47.7269V42.2422H134.085V47.7269Z" fill="#528917"/>
</g>
<mask id="mask21_182_3934" style="mask-type:luminance" maskUnits="userSpaceOnUse" x="0" y="0" width="149" height="51">
<path d="M149 0H0V51H149V0Z" fill="white"/>
</mask>
<g mask="url(#mask21_182_3934)">
<path d="M135.203 42.2422H139.288C140.907 42.2422 141.948 43.1182 141.948 44.4894C141.948 45.5178 141.485 46.3938 140.445 46.6604V46.6985C141.447 46.8889 141.678 47.6126 141.755 48.4506C141.832 49.2885 141.794 50.2407 142.256 50.812H140.984C140.637 50.4692 140.83 49.5551 140.676 48.6791C140.56 47.8411 140.329 47.1175 139.211 47.1175H136.398V50.7739H135.242V42.2422H135.203ZM138.787 46.2034C139.867 46.2034 140.792 45.9367 140.792 44.6798C140.792 43.8419 140.329 43.1944 139.25 43.1944H136.359V46.2034H138.787Z" fill="#528917"/>
</g>
<mask id="mask22_182_3934" style="mask-type:luminance" maskUnits="userSpaceOnUse" x="0" y="0" width="149" height="51">
<path d="M149 0H0V51H149V0Z" fill="white"/>
</mask>
<g mask="url(#mask22_182_3934)">
<path d="M143.297 42.2422H149.001V43.1944H144.453V45.9367H148.461V46.8889H144.453V50.812H143.297V42.2422Z" fill="#528917"/>
</g>
</g>
<defs>
<clipPath id="clip0_182_3934">
<rect width="149" height="51" fill="white"/>
</clipPath>
</defs>
</svg>
