<svg width="80" height="80" viewBox="0 0 80 80" fill="none" xmlns="http://www.w3.org/2000/svg">
<g clip-path="url(#clip0_182_2347)">
<path d="M39.8526 8L11.7266 24.298V56.726L39.8546 73L68.2766 56.574V24.298L39.8526 8ZM64.8326 41.91H15.1686V26.262L40.0006 11.9L64.8326 26.186V41.908V41.91Z" fill="#5D9732"/>
<path d="M26.9236 19.3087L57.0096 36.6947C57.0096 36.6947 60.1836 38.2067 60.1836 41.9107C60.1836 45.6147 57.4616 47.2767 57.4616 47.2767L26.3936 65.1907L21.1016 62.1667L55.0816 43.0207C55.0816 43.0207 55.7976 42.4747 55.0816 41.6047C54.0336 40.3307 22.0836 22.0647 22.0836 22.0647L26.9216 19.3047L26.9236 19.3087Z" fill="#404040"/>
<path d="M57.6136 22.065C57.6136 22.065 25.6636 40.331 24.6156 41.605C23.8996 42.475 24.6156 43.021 24.6156 43.021L58.5956 62.167L53.3036 65.191L22.2376 47.275C22.2376 47.275 19.5156 45.613 19.5156 41.909C19.5156 38.205 22.6896 36.693 22.6896 36.693L52.7756 19.305L55.0236 17.831C55.0236 17.831 55.4196 17.491 55.4196 16.471V8.875H60.1816V18.229C60.1816 18.229 60.2176 20.571 57.6116 22.065H57.6136Z" fill="#404040"/>
</g>
<defs>
<clipPath id="clip0_182_2347">
<rect width="58" height="65" fill="white" transform="translate(11 8)"/>
</clipPath>
</defs>
</svg>
