<svg width="23" height="22" viewBox="0 0 23 22" fill="none" xmlns="http://www.w3.org/2000/svg">
<path d="M1 1H4.81818L7.37636 13.7524C7.46365 14.1909 7.70273 14.5847 8.05175 14.865C8.40077 15.1454 8.83748 15.2943 9.28545 15.2857H18.5636C19.0116 15.2943 19.4483 15.1454 19.7973 14.865C20.1464 14.5847 20.3854 14.1909 20.4727 13.7524L22 5.7619H5.77273M9.59091 20.0476C9.59091 20.5736 9.16354 21 8.63636 21C8.10918 21 7.68182 20.5736 7.68182 20.0476C7.68182 19.5216 8.10918 19.0952 8.63636 19.0952C9.16354 19.0952 9.59091 19.5216 9.59091 20.0476ZM20.0909 20.0476C20.0909 20.5736 19.6635 21 19.1364 21C18.6092 21 18.1818 20.5736 18.1818 20.0476C18.1818 19.5216 18.6092 19.0952 19.1364 19.0952C19.6635 19.0952 20.0909 19.5216 20.0909 20.0476Z" stroke="#5D9732" stroke-width="2" stroke-linecap="round" stroke-linejoin="round"/>
</svg>
