<svg width="17" height="28" viewBox="0 0 17 28" fill="none" xmlns="http://www.w3.org/2000/svg">
<path d="M11.7319 12.4651L7.60893 10.9044L7.24609 10.7533C6.42148 10.3904 5.56398 9.84629 5.56398 8.72774C5.56398 7.54866 6.24274 6.79443 7.70779 6.70215C9.173 6.60986 10.5018 6.74222 12.2526 7.65199C13.1272 8.10657 14.1947 7.95289 14.7443 7.1484L14.7711 7.10941C15.3527 6.258 15.0924 5.10389 14.1968 4.57134C12.9786 3.84738 11.6638 3.41942 10.3112 3.31608L10.3229 2.09809C10.3346 1.35686 9.72204 0.75 8.96231 0.75C8.22753 0.75 7.62549 1.31904 7.60218 2.03553L7.57801 3.2557C5.79682 3.40673 4.32578 3.92076 3.20445 4.82773C1.98412 5.79532 1.02754 7.21602 1.02754 9.21142C1.02754 11.6904 3.2608 13.1458 4.14999 13.6139C4.95534 14.0379 9.42285 16.0438 9.42285 16.0438L9.95052 16.2857C10.94 16.7391 11.582 17.3145 11.5337 18.4624C11.4781 19.7877 9.95938 20.3963 7.8092 20.3944C6.65842 20.3933 4.78048 19.9602 3.79196 19.2731C2.95779 18.693 1.79932 18.8724 1.16541 19.6576C0.475856 20.5117 0.666176 21.7534 1.57744 22.3792C3.13156 23.4466 4.907 24.0492 6.72052 24.1158L6.69596 25.3945C6.67335 26.1365 7.28363 26.75 8.04429 26.75C8.77425 26.75 9.37163 26.1837 9.39285 25.4719L9.42067 24.0552C10.6741 23.9645 12.3914 23.3901 13.5459 22.5437C14.8322 21.6065 16.0855 20.0344 16.0855 17.8879C16.0856 15.2275 14.4034 13.5534 11.7319 12.4651Z" stroke="#528917" stroke-width="1.5" stroke-miterlimit="10" stroke-linejoin="round"/>
</svg>
