<svg width="80" height="80" viewBox="0 0 80 80" fill="none" xmlns="http://www.w3.org/2000/svg">
<path d="M18.3787 72C14.9867 71.4453 12.3093 68.7787 12 65.312V14.8053C12.2667 11.1893 15.0933 8.352 18.6987 8H47.0613C51.1147 8.608 53.472 11.52 53.6427 15.5627C53.664 16.064 53.8773 17.3867 53.216 17.376C52.4267 17.376 51.5947 17.216 50.7093 17.248C50.5387 17.248 49.7707 17.5253 49.7707 17.184V14.432C49.7707 13.3867 47.8293 11.6907 46.7093 11.744H19.0613C17.248 11.9147 15.904 13.2267 15.744 15.0507V56.9387C15.8187 58.784 17.216 60.2133 19.0613 60.3733H46.688C47.808 60.416 49.7493 58.7307 49.7493 57.6853V54.8693H53.6213C53.4933 57.9733 53.792 61.216 53.6213 64.3093C53.4187 68.0853 51.2533 71.5093 47.2427 71.9893H18.3787V72ZM29.472 64.16C27.4453 64.5013 27.328 67.6053 29.28 68.1707C30.016 68.384 35.136 68.3733 36.064 68.2453C38.176 67.9573 38.4107 64.8853 36.3947 64.192C34.3147 64.2987 31.4773 63.8293 29.4827 64.16H29.472Z" fill="#404040"/>
<path d="M59.7075 35.075C59.2382 32.739 58.7582 30.7337 58.3209 28.9844C57.9902 29.603 57.6275 30.2644 57.2969 30.9577C58.0222 32.163 58.8649 33.5497 59.7075 35.075Z" fill="#5D9732"/>
<path d="M68.4858 36.0539C68.4858 27.9899 62.8645 21.2379 55.3125 19.5312C56.5925 21.5793 58.0538 24.2032 59.0672 26.8593C60.1232 25.2913 60.9232 24.3099 60.9232 24.3099C60.4112 25.2592 59.8245 26.2406 59.2058 27.2966C60.1872 30.1019 60.6672 32.9926 59.8672 35.3926V35.4246C61.9152 39.3606 63.5152 44.0326 62.3098 47.6059C62.2778 47.6806 62.2352 47.7552 62.2352 47.8619C62.3098 48.2992 62.3845 48.6619 62.4165 49.0672C66.1392 45.9312 68.4752 41.2593 68.4752 36.0433" fill="#5D9732"/>
<path d="M58.4573 46.9268C58.052 49.0815 57.9453 50.6068 57.9453 51.7375C59.2253 51.2255 60.4306 50.5322 61.5613 49.7322C61.7853 49.1135 61.9986 48.4948 62.2226 47.8762C61.4973 44.1962 60.7613 41.3055 60.068 38.9375C59.9613 40.9855 59.268 42.7668 58.468 46.9268" fill="#5D9732"/>
<path d="M45.9387 38.2422C44.3707 41.3782 42.8347 45.1755 42.1094 50.1355C43.5707 51.1169 45.2134 51.8849 46.92 52.3649C47.208 50.5089 47.688 48.7915 48.232 47.1489C47.5067 43.3942 46.7387 40.5462 45.9387 38.2422Z" fill="#5D9732"/>
<path d="M53.454 44.8452C53.422 44.7705 53.3794 44.6959 53.3794 44.5892C51.9927 40.5039 54.254 34.9892 56.622 30.7652C56.0354 29.7092 55.4594 28.7172 54.8727 27.6612C54.8727 27.6612 55.7154 28.7172 56.846 30.3599C57.2514 29.6345 57.6887 28.9412 58.0834 28.3119C56.9207 24.1519 55.79 21.5599 54.6594 19.3732C53.678 19.2239 52.6114 19.1172 51.5554 19.1172C49.55 19.1172 47.6514 19.4799 45.8594 20.0985C48.526 23.9279 53.6247 32.3545 51.7687 37.9759C51.7367 38.0505 51.694 38.1252 51.694 38.2319C52.494 42.3492 51.5127 43.4159 50.382 49.5385C50.126 50.8932 49.9767 52.0238 49.9127 52.9305C50.4567 52.9625 51.0114 53.0052 51.5554 53.0052C52.43 53.0052 53.2727 52.9305 54.1047 52.8239C53.4434 49.5065 53.1874 48.1519 53.4434 44.8345" fill="#5D9732"/>
<path d="M41.2753 28.543C41.2753 28.543 44.0806 32.0843 46.342 36.5003C47.942 33.983 49.2966 32.2656 49.2966 32.2656C48.5286 33.6843 47.5473 35.2203 46.598 37.0123C47.878 39.6043 48.8913 42.4523 49.0833 45.0336C49.926 42.879 50.8753 40.6923 51.7073 38.2496C49.6593 27.775 47.622 23.839 45.6166 20.2656C39.1953 22.6763 34.6406 28.8736 34.6406 36.1376C34.6406 41.6416 37.2646 46.5696 41.35 49.6736C41.4246 45.695 43.6433 41.0976 45.6913 37.631C44.23 33.439 42.7686 31.2096 41.2753 28.543Z" fill="#5D9732"/>
<path d="M57.0257 31.4609C55.383 34.9276 53.9217 39.1943 53.4844 44.8476C54.0284 46.5223 54.615 48.0583 55.127 49.5943C55.8524 45.0289 57.751 41.3489 59.3937 36.8263C58.5937 34.5969 57.7937 32.9543 57.0257 31.4609Z" fill="#5D9732"/>
<path d="M48.8294 52.7728C48.9787 51.5675 48.9787 50.3622 48.6054 48.6875C48.1681 49.9995 47.6881 51.2368 47.2188 52.4422C47.7308 52.5915 48.2748 52.6982 48.8188 52.7728" fill="#5D9732"/>
<path d="M55.1005 49.5938C54.9512 50.5751 54.8445 51.5991 54.8125 52.6978C55.2178 52.6231 55.6125 52.5164 56.0178 52.4097C55.7298 51.4924 55.4312 50.5537 55.1005 49.6044" fill="#5D9732"/>
</svg>
