<svg width="26" height="26" viewBox="0 0 26 26" fill="none" xmlns="http://www.w3.org/2000/svg">
<path d="M12.75 24.7804C19.3774 24.7804 24.75 19.401 24.75 12.7652C24.75 6.12939 19.3774 0.75 12.75 0.75C6.12258 0.75 0.75 6.12939 0.75 12.7652C0.75 19.401 6.12258 24.7804 12.75 24.7804Z" stroke="#528917" stroke-width="1.5" stroke-miterlimit="10"/>
<path d="M4.26562 21.2577L21.2363 4.26562" stroke="#528917" stroke-width="1.5" stroke-miterlimit="10"/>
<path d="M12.7486 5.61719C12.7486 5.61719 8.78552 12.9978 8.57467 13.62C8.36416 14.242 8.21875 14.7591 8.21875 15.3854C8.21875 17.8904 10.2469 19.921 12.7486 19.921C15.2504 19.921 17.2784 17.8904 17.2784 15.3854C17.2784 14.756 17.2428 14.4549 16.9191 13.612C16.5955 12.7691 12.7486 5.61719 12.7486 5.61719Z" stroke="#528917" stroke-width="1.5" stroke-miterlimit="10"/>
</svg>
