<svg width="200" height="80" viewBox="0 0 200 80" fill="none" xmlns="http://www.w3.org/2000/svg">
<path d="M24.4429 47.2348H6L10.4245 22.0078H28.4979L27.3561 28.515H17.5828L17.1016 31.2572H26.3237L25.189 37.7276H15.9658L15.4525 40.6539H25.6037L24.4429 47.2348Z" fill="#009969"/>
<path d="M52.341 36.4461C51.6341 40.4678 50.2963 42.844 48.1304 44.6713C45.4571 46.7398 42.1351 47.7898 38.7587 47.6333C34.7001 47.6333 31.9508 46.501 30.4277 44.6713C28.9046 42.8417 28.396 40.4678 29.1018 36.4461L31.6336 22H39.999L37.3971 36.8049C37.1333 38.3055 37.3056 38.9993 37.769 39.5471C38.0444 39.8622 38.3894 40.109 38.7767 40.2678C39.1639 40.4265 39.5828 40.493 40.0002 40.4619C40.9365 40.4847 41.8478 40.1586 42.557 39.5471C43.3213 38.8294 43.7878 37.8506 43.8639 36.8049L46.4611 22H54.8705L52.341 36.4461Z" fill="#009969"/>
<path d="M69.4417 28.6938C68.9349 28.3198 68.3059 28.1502 67.6798 28.2185H65.5732L64.8034 32.6062H66.9063C67.5753 32.6495 68.2424 32.4972 68.8263 32.1678C69.1575 31.9959 69.4424 31.7467 69.6567 31.4412C69.871 31.1357 70.0084 30.7829 70.0571 30.4129C70.1559 30.0985 70.1492 29.7603 70.0381 29.45C69.927 29.1397 69.7176 28.8741 69.4417 28.6938ZM76.998 47.2281H67.4077L64.8247 38.8199H63.7555L62.281 47.2293H53.9453L58.3674 22H69.4405C72.5747 22 74.8785 22.5465 76.505 23.8273C77.389 24.5714 78.0484 25.5469 78.4096 26.6445C78.7707 27.7421 78.8192 28.9186 78.5497 30.0423C78.3088 31.6679 77.6748 33.2102 76.7027 34.5353C75.7306 35.8604 74.4499 36.9282 72.9716 37.6461L76.998 47.2281Z" fill="#009969"/>
<path d="M96.732 47.2348H78.2891L82.7135 22.0078H100.791L99.6487 28.515H89.8719L89.3847 31.2572H98.6068L97.471 37.7276H88.2513L87.738 40.6539H97.8797L96.732 47.2348Z" fill="#009969"/>
<path d="M123.657 47.2348H113.697L110.927 38.8242L109.133 40.6539L107.979 47.2359H99.6797L104.103 22.0078H112.402L111.057 29.6865L117.752 22.0078H127.528L117.519 32.1696L123.657 47.2348Z" fill="#009969"/>
<path d="M144.28 33.1907C143.841 33.4901 143.448 34.0592 142.369 33.5864C141.211 33.0767 141.131 32.2723 140.768 31.8458C140.404 31.4193 140.397 31.569 140.397 31.569C140.753 32.0392 140.922 32.6245 140.872 33.2121C140.842 33.4727 140.756 33.724 140.622 33.9492C140.487 34.1745 140.307 34.3687 140.091 34.519C139.973 34.7055 140.649 35.0299 141.414 35.0121C141.259 35.2064 141.064 35.3645 140.841 35.4754C141.006 35.4711 141.169 35.4332 141.318 35.3642C141.468 35.2952 141.603 35.1964 141.713 35.0739C142.013 35.1783 142.267 35.3841 142.431 35.6557C142.594 35.9273 142.658 36.2476 142.611 36.5614C142.575 37.0283 142.466 37.4868 142.289 37.9206L142.398 37.8505C141.746 38.4115 140.973 38.8123 140.139 39.0206C139.305 39.2289 138.434 39.239 137.595 39.05C136.757 38.861 135.974 38.4783 135.31 37.9324C134.646 37.3865 134.119 36.6927 133.772 35.9066C133.424 35.1204 133.266 34.2638 133.309 33.4053C133.352 32.5468 133.596 31.7104 134.02 30.963C134.445 30.2156 135.039 29.5781 135.754 29.1015C136.469 28.6249 137.286 28.3225 138.139 28.2185C136.905 28.4822 135.798 29.1613 135.004 30.1425C134.209 31.1237 133.775 32.3477 133.774 33.6101C133.869 34.9598 134.429 36.235 135.358 37.2184C135.715 36.1028 136.395 35.9744 136.395 35.9744L136.277 37.1922L136.823 37.3538C136.718 36.8379 136.722 36.3059 136.834 35.7915C137.029 35.8409 137.227 35.8746 137.428 35.8925L136.888 35.5206C137.029 35.492 137.162 35.4337 137.278 35.3497C137.394 35.2657 137.491 35.1579 137.562 35.0335C137.599 34.8926 137.628 34.7498 137.649 34.6057C138.474 34.3556 139.183 33.8204 139.65 33.0957C139.049 33.74 138.252 34.1664 137.383 34.3075C137.025 33.8643 136.856 33.2978 136.913 32.7309L138.286 32.744C138.749 32.744 139.295 32.3876 138.931 32.3816L137.371 32.3686C137.371 32.3686 136.999 31.7329 137.913 31.1876C138.384 30.9565 138.911 30.8606 139.433 30.9108C139.433 30.9108 139.739 29.6656 140.215 29.5124C140.564 29.3573 140.959 29.3434 141.317 29.4737C141.676 29.604 141.97 29.8683 142.137 30.211C142.613 31.0308 142.324 31.7222 142.667 32.2189C143.011 32.7155 143.105 32.9828 144.28 33.186V33.1907ZM149.109 47.2317L144.678 22H135.456L122.18 47.2317H130.846L132.428 43.684H139.693L140.065 47.2317H149.109Z" fill="#009969"/>
<path d="M107.787 48.4141L103.622 52.0473L106.395 57.5315H103.564L101.768 53.7379L100.853 54.5304L100.314 57.5315H97.9766L99.609 48.4141H101.946L101.363 51.7182L104.989 48.4141H107.787Z" fill="#009969"/>
<path d="M111.101 48.4141L109.468 57.5315H107.117L108.75 48.4141H111.101Z" fill="#009969"/>
<path d="M121.108 48.4141L116.95 52.0473L119.721 57.5315H116.889L115.088 53.7379L114.176 54.5304L113.634 57.5315H111.297L112.931 48.4141H115.268L114.682 51.7182L118.308 48.4141H121.108Z" fill="#009969"/>
<path d="M130.095 48.4152L129.152 53.7142C129.094 54.2962 128.922 54.861 128.645 55.3759C128.367 55.8909 127.991 56.3457 127.537 56.7142C127.083 57.0827 126.56 57.3575 125.999 57.5227C125.438 57.6878 124.85 57.7401 124.268 57.6765C122.201 57.6765 120.688 56.8448 120.688 54.888C120.696 54.493 120.741 54.0995 120.823 53.713L121.767 48.4141H124.132L123.172 53.7272C123.123 53.9799 123.098 54.2364 123.097 54.4936C123.097 55.3252 123.654 55.8005 124.609 55.8005C126.078 55.8005 126.586 54.8357 126.78 53.7272L127.74 48.4152H130.095Z" fill="#009969"/>
<path d="M140.115 48.4141L135.682 53.8449L135.021 57.528H132.67L133.329 53.8449L130.844 48.4141H133.464L134.842 52.0211L137.508 48.4141H140.115Z" fill="#009969"/>
<path d="M149.178 48.4074L148.235 53.7064C148.178 54.2885 148.006 54.8534 147.729 55.3685C147.452 55.8836 147.075 56.3386 146.621 56.7072C146.167 57.0757 145.644 57.3505 145.083 57.5155C144.522 57.6806 143.933 57.7326 143.352 57.6687C141.285 57.6687 139.773 56.837 139.773 54.8802C139.781 54.4852 139.825 54.0918 139.907 53.7052L140.857 48.4062H143.221L142.264 53.7182C142.216 53.971 142.191 54.2274 142.189 54.4846C142.189 55.3162 142.758 55.7915 143.7 55.7915C145.169 55.7915 145.678 54.8267 145.874 53.7182L146.832 48.4062L149.178 48.4074Z" fill="#009969"/>
<path d="M146.485 22.2516H146.028V23.6499H145.761V22.2516H145.297V22.0234H146.485V22.2516ZM148.344 23.6499H148.085L147.994 22.3739L147.572 23.6535H147.364L146.939 22.3739H146.926L146.84 23.6535H146.574L146.701 22.027H147.058L147.453 23.2507L147.847 22.027H148.217L148.344 23.6499Z" fill="#009969"/>
<path d="M187.848 22H149.656L153.973 47.1343H187.847C191.173 47.1343 193.874 44.8103 193.874 41.9411V27.2063C193.875 24.3299 191.177 22 187.848 22ZM177.821 28.9516L178.305 25.8708H179.513L179.023 28.9599C178.997 29.1075 178.984 29.2569 178.983 29.4066C178.974 29.5101 178.988 29.6143 179.024 29.7117C179.06 29.8091 179.118 29.8973 179.192 29.97C179.266 30.0427 179.355 30.0981 179.453 30.1321C179.551 30.1662 179.656 30.1781 179.759 30.167C180.503 30.167 180.773 29.6098 180.875 28.9599L181.365 25.8708H182.573L182.089 28.9516C182.081 29.2688 182.009 29.5812 181.878 29.8702C181.747 30.1591 181.558 30.4186 181.325 30.6334C181.091 30.8481 180.817 31.0136 180.518 31.1201C180.219 31.2265 179.901 31.2717 179.584 31.2529C178.525 31.2529 177.75 30.7694 177.75 29.6335C177.755 29.4062 177.779 29.1796 177.823 28.9563L177.821 28.9516ZM176.201 25.8708H177.406L176.574 31.1698H175.364L176.201 25.8708ZM171.402 25.8708L171.9 29.3425H171.909L173.506 25.8708H175.027L174.566 31.1698H173.378L173.75 27.5686L172.086 31.1698H171.144L170.611 27.5781L169.843 31.1757H168.655L169.877 25.8768L171.402 25.8708ZM165.551 25.8708H168.861L168.699 26.8772H166.596L166.427 27.9369H168.416L168.255 28.9433H166.266L166.079 30.1575H168.254L168.092 31.1709H164.715L165.551 25.8708ZM158.073 29.2177H157.45L157.142 31.1757H155.939L156.771 25.8768H158.598C159.466 25.8768 160.224 26.2225 160.224 27.2063C160.24 27.4865 160.193 27.7667 160.089 28.0272C159.984 28.2876 159.823 28.5219 159.618 28.7137C159.413 28.9054 159.169 29.0499 158.902 29.137C158.635 29.2241 158.351 29.2516 158.073 29.2177ZM161.083 25.8708H162.91C163.777 25.8708 164.599 26.1845 164.599 27.1777C164.606 27.5726 164.488 27.9596 164.262 28.2835C164.036 28.6074 163.714 28.8516 163.341 28.9813L164.291 31.1698H162.886L162.132 29.15H161.761L161.446 31.1698H160.242L161.083 25.8708ZM165.425 44.3256L161.051 32.5385H163.988L166.758 40.652L169.507 32.5385H172.429L168.055 44.3256H165.425ZM183.786 42.4983C183.101 43.1821 182.281 43.7151 181.378 44.063C180.475 44.4108 179.509 44.5658 178.543 44.5181C177.731 44.5587 176.919 44.4297 176.16 44.1391C175.401 43.8486 174.71 43.403 174.133 42.8307C173.556 42.2584 173.104 41.572 172.807 40.8153C172.51 40.0587 172.374 39.2484 172.407 38.4362C172.374 37.6213 172.511 36.8085 172.812 36.0502C173.112 35.2919 173.568 34.605 174.15 34.0339C174.732 33.4628 175.428 33.0203 176.192 32.7349C176.956 32.4494 177.771 32.3275 178.585 32.3769C179.496 32.3274 180.406 32.4858 181.247 32.84C182.088 33.1943 182.837 33.7351 183.438 34.4216L181.609 36.0113C181.235 35.5785 180.77 35.2332 180.247 35C179.725 34.7667 179.157 34.6512 178.585 34.6616C178.108 34.6615 177.636 34.7623 177.2 34.9576C176.764 35.1528 176.374 35.438 176.056 35.7945C175.739 36.1509 175.5 36.5706 175.355 37.0258C175.211 37.4811 175.165 37.9617 175.219 38.4362C175.169 38.9137 175.221 39.3963 175.37 39.8527C175.519 40.309 175.763 40.7288 176.085 41.0846C176.407 41.4404 176.801 41.7243 177.24 41.9178C177.68 42.1112 178.155 42.2098 178.635 42.2072C180.548 42.2072 181.095 41.4635 181.095 41.4635V39.7181H178.617V37.6176H183.788L183.786 42.4983ZM188.386 31.1698H187.198L187.57 27.5686L185.915 31.1698H184.964L184.431 27.5781L183.678 31.1793H182.489L183.711 25.8803H185.229L185.729 29.352L187.326 25.8803H188.847L188.386 31.1698Z" fill="#009969"/>
<path d="M163.364 27.3886C163.364 26.9347 162.965 26.8516 162.597 26.8516H162.129L161.922 28.1941H162.39C162.912 28.1846 163.364 27.9708 163.364 27.3886Z" fill="#009969"/>
<path d="M158.276 26.8438H157.815L157.594 28.2493H158.055C158.174 28.2662 158.295 28.2566 158.41 28.2214C158.524 28.1861 158.63 28.1259 158.719 28.0451C158.808 27.9643 158.878 27.8649 158.924 27.7539C158.97 27.643 158.991 27.5233 158.985 27.4033C158.99 26.9578 158.651 26.8438 158.276 26.8438Z" fill="#009969"/>
</svg>
