<svg width="80" height="80" viewBox="0 0 80 80" fill="none" xmlns="http://www.w3.org/2000/svg">
<path d="M79.1387 42.692H71.8614C71.575 42.9394 71.4969 43.2258 71.4448 43.5903C71.3667 44.2152 71.3797 48.2249 71.5359 48.5764C71.575 48.6545 71.9916 49.0711 72.0176 49.0711H79.1257V60.6705L71.4448 62.1415C73.684 57.1945 72.1999 51.2321 67.7346 48.1207C61.0431 43.4601 51.9953 47.1183 50.1727 54.9293C49.8082 55.1637 42.9996 54.7992 41.7758 54.9424C41.5025 54.9684 40.7213 55.2678 40.7213 55.5152V62.454H37.9484C39.5106 58.0538 37.1543 53.0026 32.8843 51.2581C28.6142 49.5137 23.9276 51.1931 21.6494 55.0465L20.3085 58.5224C20.1002 57.5591 18.7332 56.101 18.538 55.2939C18.4989 55.1507 18.4859 55.0335 18.59 54.9163L25.3857 49.6178C27.2603 49.1622 30.7883 50.1386 32.3245 49.045C33.8606 47.9515 33.6784 45.1395 31.7256 44.5797C30.8404 44.3193 25.2425 44.3323 24.1749 44.4886C22.9382 44.6578 19.1629 48.1858 17.848 49.1101C17.7048 49.2143 17.158 49.6699 17.0539 49.5397C17.0539 49.2533 17.0018 48.9539 17.0929 48.6805C17.3012 47.9645 23.1855 43.8637 24.0968 42.9394C25.2815 42.6009 27.065 43.1216 28.1846 42.7832C29.187 42.4707 31.1919 40.2185 32.3765 39.7889C34.785 39.9321 37.6881 39.4765 40.0314 39.7499C40.3178 39.7889 40.3959 39.7499 40.5781 40.0233C41.0598 40.6872 41.5025 42.4056 41.9711 43.1997C42.1013 43.4341 42.2185 43.7335 42.5049 43.8116L52.6072 43.8507L58.4915 36.1698L58.9732 35.9875C63.8811 36.287 69.1666 35.623 74.0225 35.9875C75.6888 36.1177 76.9386 36.5734 78.0191 37.8752C78.3576 38.2788 79.1647 39.5416 79.1647 39.9972V42.692H79.1387Z" fill="#5D9732"/>
<path d="M59.6522 47.8092C73.8293 46.0387 74.4412 67.0114 61.2405 67.0114C49.2375 67.0114 48.4824 49.2022 59.6522 47.8092ZM57.7906 60.7756C62.4512 65.4362 69.5853 57.8855 64.2738 53.5634C59.5351 49.7099 53.5466 56.5316 57.7906 60.7756Z" fill="#404040"/>
<path d="M14.2397 43.2005L15.7238 50.7642C14.0705 52.1181 10.8159 53.6803 12.6905 56.258C13.2503 57.0261 14.0965 57.1432 14.9037 57.4817L11.636 63.8217L1 66.0609C1.44263 62.9755 4.16347 60.9446 5.56946 58.2889L8.52464 43.1875H14.2267L14.2397 43.2005Z" fill="#5D9732"/>
<path d="M29.1094 52.2198C38.1963 51.8163 39.6153 65.2643 30.8148 66.8395C20.4522 68.6881 18.8509 52.6755 29.1094 52.2198ZM26.5839 62.4133C30.6065 66.4229 36.2956 59.7575 31.8303 56.4248C27.7946 53.4045 23.2511 59.0936 26.5839 62.4133Z" fill="#404040"/>
<path d="M40.0846 22.112V38.1246H33.0547L37.9887 22.3854C38.3141 21.8516 39.5118 22.2161 40.0846 22.112Z" fill="#5D9732"/>
<path d="M60.832 34.3617H59.0355V22.1895C59.0355 21.5125 57.9159 20.445 57.1608 20.471H37.2296C36.1882 20.4189 35.9408 18.9088 36.9302 18.7135L57.6425 18.6875C58.9574 18.7656 60.845 20.5752 60.845 21.864V34.3617H60.832Z" fill="#404040"/>
<path d="M51.2015 62.4703H42.375V56.5859H49.8085L50.0298 56.8463C49.8736 58.76 50.3293 60.7518 51.2015 62.4703Z" fill="#5D9732"/>
<path d="M69.4919 34.3609H67.6953V16.1351C68.6847 15.3931 69.7522 13.7528 70.7156 13.1018C71.3274 12.6852 71.9654 13.6486 72.2648 14.1563L69.5049 16.9553V34.3609H69.4919Z" fill="#404040"/>
<path d="M31.5414 46.3224C31.958 46.739 31.7367 47.7154 31.1379 47.8846C29.9272 48.2361 26.9329 47.7805 25.4488 47.9107C25.2145 47.9367 24.9802 47.9107 24.7589 48.0409L15.3335 55.4483C14.3051 56.0602 13.2766 54.9146 14.1098 54.0554L24.1079 46.2443C24.7198 45.997 29.7319 46.036 30.6953 46.1141C30.9426 46.1402 31.3722 46.1402 31.5414 46.3224Z" fill="#404040"/>
<path d="M79.1343 44.3359H73.0938V47.4343H79.1343V44.3359Z" fill="#404040"/>
<path d="M60.4713 54.1778C63.8821 53.4748 65.9781 57.8099 63.114 59.9319C60.4453 61.8977 56.9303 58.9556 58.3232 55.9613C58.6487 55.2583 59.7032 54.347 60.4713 54.1778Z" fill="#5D9732"/>
<path d="M29.0969 57.2702C31.6745 56.8927 32.8202 60.4337 30.5289 61.6574C27.2613 63.3889 25.5819 57.7779 29.0969 57.2702Z" fill="#5D9732"/>
</svg>
