<svg width="20" height="20" viewBox="0 0 20 20" fill="none" xmlns="http://www.w3.org/2000/svg">
<path d="M14.167 1.668C15.2712 1.67117 16.3292 2.1112 17.11 2.89198C17.8908 3.67276 18.3308 4.73082 18.334 5.835V14.168C18.3308 15.2722 17.8908 16.3302 17.11 17.111C16.3292 17.8918 15.2712 18.3318 14.167 18.335H5.833C4.72882 18.3318 3.67076 17.8918 2.88998 17.111C2.1092 16.3302 1.66917 15.2722 1.666 14.168V5.834C1.66917 4.72982 2.1092 3.67176 2.88998 2.89098C3.67076 2.1102 4.72882 1.67017 5.833 1.667H14.166M14.166 0H5.833C4.2872 0.00448633 2.80601 0.62061 1.71305 1.71376C0.620092 2.8069 0.00422134 4.2882 0 5.834V14.167C0.00422134 15.7128 0.620092 17.1941 1.71305 18.2872C2.80601 19.3804 4.2872 19.9965 5.833 20.001H14.166C15.7118 19.9968 17.1931 19.3809 18.2862 18.288C19.3794 17.195 19.9955 15.7138 20 14.168V5.834C19.9955 4.28837 19.3795 2.80733 18.2866 1.7144C17.1937 0.621472 15.7126 0.00548501 14.167 0.000999928L14.166 0Z" fill="black"/>
<path d="M15.3936 5.89831C15.1385 5.8989 14.889 5.82381 14.6766 5.68253C14.4642 5.54126 14.2986 5.34015 14.2005 5.10467C14.1025 4.86919 14.0766 4.60992 14.126 4.35968C14.1754 4.10944 14.2979 3.87948 14.478 3.69891C14.6582 3.51834 14.8879 3.39528 15.138 3.3453C15.3881 3.29532 15.6474 3.32067 15.8831 3.41814C16.1189 3.51562 16.3203 3.68083 16.4621 3.89287C16.6039 4.10491 16.6796 4.35424 16.6796 4.60931C16.68 4.77844 16.647 4.94599 16.5825 5.10236C16.5181 5.25873 16.4234 5.40085 16.304 5.52059C16.1845 5.64032 16.0426 5.73532 15.8864 5.80013C15.7302 5.86495 15.5627 5.89831 15.3936 5.89831Z" fill="black"/>
<path d="M10.0049 6.86588C10.6255 6.86588 11.2322 7.04992 11.7483 7.39472C12.2643 7.73953 12.6665 8.22962 12.904 8.80301C13.1415 9.37641 13.2037 10.0074 13.0826 10.6161C12.9615 11.2248 12.6626 11.7839 12.2238 12.2228C11.7849 12.6616 11.2258 12.9605 10.6171 13.0816C10.0084 13.2027 9.37741 13.1405 8.80402 12.903C8.23062 12.6655 7.74053 12.2633 7.39573 11.7473C7.05092 11.2312 6.86688 10.6245 6.86688 10.0039C6.86767 9.17187 7.19854 8.37417 7.78685 7.78585C8.37517 7.19753 9.17287 6.86667 10.0049 6.86588ZM10.0049 5.29688C9.07372 5.29688 8.16348 5.57299 7.38925 6.09032C6.61503 6.60764 6.01159 7.34293 5.65525 8.2032C5.29892 9.06348 5.20568 10.0101 5.38734 10.9234C5.569 11.8366 6.01739 12.6755 6.67582 13.3339C7.33424 13.9924 8.17313 14.4408 9.08639 14.6224C9.99965 14.8041 10.9463 14.7108 11.8066 14.3545C12.6668 13.9982 13.4021 13.3947 13.9194 12.6205C14.4368 11.8463 14.7129 10.936 14.7129 10.0049C14.7126 8.75632 14.2165 7.55897 13.3336 6.67611C12.4508 5.79325 11.2534 5.29714 10.0049 5.29688Z" fill="black"/>
</svg>
