<svg width="25" height="25" viewBox="0 0 25 25" fill="none" xmlns="http://www.w3.org/2000/svg">
<g clip-path="url(#clip0_182_3880)">
<path d="M12.5 25C12.2167 25 11.9738 24.92 11.7714 24.76C11.569 24.6 11.4173 24.39 11.3161 24.13C10.9315 23.01 10.4458 21.96 9.85893 20.98C9.29226 20 8.49286 18.85 7.46071 17.53C6.42857 16.21 5.58869 14.95 4.94107 13.75C4.31369 12.55 4 11.1 4 9.4C4 7.06 4.81964 5.08 6.45893 3.46C8.11845 1.82 10.1321 1 12.5 1C14.8679 1 16.8714 1.82 18.5107 3.46C20.1702 5.08 21 7.06 21 9.4C21 11.22 20.6458 12.74 19.9375 13.96C19.2494 15.16 18.45 16.35 17.5393 17.53C16.4464 18.97 15.6167 20.17 15.05 21.13C14.5036 22.07 14.0482 23.07 13.6839 24.13C13.5827 24.41 13.4208 24.63 13.1982 24.79C12.9958 24.93 12.7631 25 12.5 25ZM11.3161 18.7C11.8538 19.4971 13.133 19.5084 13.6536 18.7C14.0988 18.04 14.7464 17.16 15.5964 16.06C16.4667 14.94 17.175 13.91 17.7214 12.97C18.2881 12.01 18.5714 10.82 18.5714 9.4C18.5714 7.74 17.9744 6.33 16.7804 5.17C15.6065 3.99 14.1798 3.4 12.5 3.4C10.8202 3.4 9.38333 3.99 8.18929 5.17C7.01548 6.33 6.42857 7.74 6.42857 9.4C6.42857 10.82 6.70179 12.01 7.24821 12.97C7.81488 13.91 8.53333 14.94 9.40357 16.06C10.2536 17.16 10.8911 18.04 11.3161 18.7ZM12.5 12.4C13.35 12.4 14.0685 12.11 14.6554 11.53C15.2423 10.95 15.5357 10.24 15.5357 9.4C15.5357 8.56 15.2423 7.85 14.6554 7.27C14.0685 6.69 13.35 6.4 12.5 6.4C11.65 6.4 10.9315 6.69 10.3446 7.27C9.75774 7.85 9.46429 8.56 9.46429 9.4C9.46429 10.24 9.75774 10.95 10.3446 11.53C10.9315 12.11 11.65 12.4 12.5 12.4Z" fill="#5D9732"/>
</g>
<defs>
<clipPath id="clip0_182_3880">
<rect width="25" height="25" fill="white"/>
</clipPath>
</defs>
</svg>
