<svg width="17" height="24" viewBox="0 0 17 24" fill="none" xmlns="http://www.w3.org/2000/svg">
<path d="M8.5 24C8.21667 24 7.97381 23.92 7.77143 23.76C7.56905 23.6 7.41726 23.39 7.31607 23.13C6.93155 22.01 6.44583 20.96 5.85893 19.98C5.29226 19 4.49286 17.85 3.46071 16.53C2.42857 15.21 1.58869 13.95 0.941072 12.75C0.313691 11.55 0 10.1 0 8.4C0 6.06 0.819643 4.08 2.45893 2.46C4.11845 0.82 6.13214 0 8.5 0C10.8679 0 12.8714 0.82 14.5107 2.46C16.1702 4.08 17 6.06 17 8.4C17 10.22 16.6458 11.74 15.9375 12.96C15.2494 14.16 14.45 15.35 13.5393 16.53C12.4464 17.97 11.6167 19.17 11.05 20.13C10.5036 21.07 10.0482 22.07 9.68393 23.13C9.58274 23.41 9.42083 23.63 9.19822 23.79C8.99583 23.93 8.7631 24 8.5 24ZM7.31607 17.7C7.85381 18.4971 9.13299 18.5084 9.65357 17.7C10.0988 17.04 10.7464 16.16 11.5964 15.06C12.4667 13.94 13.175 12.91 13.7214 11.97C14.2881 11.01 14.5714 9.82 14.5714 8.4C14.5714 6.74 13.9744 5.33 12.7804 4.17C11.6065 2.99 10.1798 2.4 8.5 2.4C6.82024 2.4 5.38333 2.99 4.18929 4.17C3.01548 5.33 2.42857 6.74 2.42857 8.4C2.42857 9.82 2.70179 11.01 3.24821 11.97C3.81488 12.91 4.53333 13.94 5.40357 15.06C6.25357 16.16 6.89107 17.04 7.31607 17.7ZM8.5 11.4C9.35 11.4 10.0685 11.11 10.6554 10.53C11.2423 9.95 11.5357 9.24 11.5357 8.4C11.5357 7.56 11.2423 6.85 10.6554 6.27C10.0685 5.69 9.35 5.4 8.5 5.4C7.65 5.4 6.93155 5.69 6.34464 6.27C5.75774 6.85 5.46429 7.56 5.46429 8.4C5.46429 9.24 5.75774 9.95 6.34464 10.53C6.93155 11.11 7.65 11.4 8.5 11.4Z" fill="#5D9732"/>
</svg>
