<svg width="26" height="9" viewBox="0 0 26 9" fill="none" xmlns="http://www.w3.org/2000/svg">
<mask id="mask0_182_2906" style="mask-type:luminance" maskUnits="userSpaceOnUse" x="0" y="0" width="26" height="9">
<path d="M25.8824 0H0V8.85906H25.8824V0Z" fill="white"/>
</mask>
<g mask="url(#mask0_182_2906)">
<path d="M2.36329 1.91989C0.957366 1.4766 0.267795 1.91989 0.267795 1.91989C0.341438 0.27246 1.91473 0.0078125 3.31396 0.0078125C6.13919 0.0078125 6.11241 1.16564 6.11241 2.29039V4.68545C6.11241 5.12212 6.1325 5.61833 6.3869 5.98884H4.08387C4.02362 5.83005 3.99014 5.59187 4.00353 5.43969H3.98345C3.50811 5.98222 2.81184 6.13439 2.0821 6.13439C0.943976 6.13439 0 5.59848 0 4.36787C0 2.52196 2.18922 2.58812 3.33404 2.3764C3.64201 2.32347 3.94997 2.23085 3.94997 1.86034C3.94997 1.46337 3.57506 1.31782 3.20684 1.31782C2.51727 1.32443 2.37668 1.66847 2.36329 1.91989ZM3.94997 3.36883C3.67548 3.50115 3.36752 3.58055 3.05955 3.64671C2.55744 3.75918 2.29634 3.88489 2.29634 4.27525C2.29634 4.54651 2.59091 4.81777 2.9993 4.81777C3.51481 4.81777 3.9098 4.51343 3.94328 3.90474V3.36883H3.94997Z" fill="white"/>
</g>
<mask id="mask1_182_2906" style="mask-type:luminance" maskUnits="userSpaceOnUse" x="0" y="0" width="26" height="9">
<path d="M25.8824 0H0V8.85906H25.8824V0Z" fill="white"/>
</mask>
<g mask="url(#mask1_182_2906)">
<path d="M6.625 0.153368H8.80083V0.89438H8.82092C9.24269 0.312157 9.84523 0.0078125 10.7423 0.0078125C11.8001 0.0078125 12.7709 0.649582 12.7709 1.98605V5.98884H10.5147V2.93216C10.5147 2.25731 10.4344 1.78756 9.77159 1.78756C9.38329 1.78756 8.87448 1.97943 8.87448 2.91231V5.99545H6.625V0.153368Z" fill="white"/>
</g>
<mask id="mask2_182_2906" style="mask-type:luminance" maskUnits="userSpaceOnUse" x="0" y="0" width="26" height="9">
<path d="M25.8824 0H0V8.85906H25.8824V0Z" fill="white"/>
</mask>
<g mask="url(#mask2_182_2906)">
<path d="M17.1341 2.37098C17.114 2.1328 17.0337 1.94093 16.8864 1.82184C16.7525 1.69613 16.5583 1.62997 16.3173 1.62997C15.4537 1.62997 15.3265 2.37098 15.3265 3.07891C15.3265 3.78685 15.4537 4.52124 16.3173 4.52124C16.806 4.52124 17.1475 4.12427 17.1943 3.66775H19.3434C19.1292 5.25564 17.8638 6.1422 16.2705 6.1422C14.4963 6.1422 13.0703 4.92483 13.0703 3.08553C13.0703 1.23962 14.4963 0.015625 16.2705 0.015625C17.817 0.015625 19.1359 0.769869 19.2765 2.3776H17.1341V2.37098Z" fill="white"/>
</g>
<mask id="mask3_182_2906" style="mask-type:luminance" maskUnits="userSpaceOnUse" x="0" y="0" width="26" height="9">
<path d="M25.8824 0H0V8.85906H25.8824V0Z" fill="white"/>
</mask>
<g mask="url(#mask3_182_2906)">
<path d="M25.8856 3.06744C25.8856 1.60527 24.8546 0.381273 23.4688 0.0703125C23.7031 0.440818 23.9709 0.917183 24.1583 1.40016C24.3525 1.11567 24.4998 0.937032 24.4998 0.937032C24.406 1.10905 24.2989 1.28769 24.1851 1.47956C24.3659 1.989 24.4529 2.51168 24.3056 2.94835C24.3056 2.94835 24.3056 2.94835 24.3056 2.95497C24.6805 3.66951 24.9751 4.51638 24.7542 5.16477C24.7475 5.178 24.7408 5.19123 24.7408 5.21108C24.7542 5.29048 24.7676 5.35664 24.7742 5.42942C25.4571 4.86043 25.8856 4.01355 25.8856 3.06744Z" fill="white"/>
</g>
<mask id="mask4_182_2906" style="mask-type:luminance" maskUnits="userSpaceOnUse" x="0" y="0" width="26" height="9">
<path d="M25.8824 0H0V8.85906H25.8824V0Z" fill="white"/>
</mask>
<g mask="url(#mask4_182_2906)">
<path d="M24.039 5.04269C23.9654 5.43305 23.9453 5.71093 23.9453 5.91603C24.1796 5.8234 24.4006 5.69769 24.6081 5.55214C24.6483 5.43966 24.6884 5.32719 24.7286 5.21471C24.5947 4.54648 24.4608 4.0238 24.3336 3.59375C24.3135 3.96426 24.1863 4.28845 24.039 5.04269Z" fill="white"/>
</g>
<mask id="mask5_182_2906" style="mask-type:luminance" maskUnits="userSpaceOnUse" x="0" y="0" width="26" height="9">
<path d="M25.8824 0H0V8.85906H25.8824V0Z" fill="white"/>
</mask>
<g mask="url(#mask5_182_2906)">
<path d="M21.742 3.46875C21.4541 4.03774 21.173 4.72582 21.0391 5.62562C21.3069 5.80426 21.6081 5.9432 21.9228 6.02921C21.9763 5.69179 22.0634 5.38083 22.1638 5.0831C22.0299 4.40163 21.8893 3.88557 21.742 3.46875Z" fill="white"/>
</g>
<mask id="mask6_182_2906" style="mask-type:luminance" maskUnits="userSpaceOnUse" x="0" y="0" width="26" height="9">
<path d="M25.8824 0H0V8.85906H25.8824V0Z" fill="white"/>
</mask>
<g mask="url(#mask6_182_2906)">
<path d="M23.1269 4.6644C23.1202 4.65117 23.1135 4.63794 23.1135 4.61809C22.8591 3.87708 23.2742 2.87804 23.7094 2.11056C23.6022 1.91869 23.4951 1.74005 23.388 1.54819C23.388 1.54819 23.542 1.74005 23.7495 2.03778C23.8232 1.90546 23.9035 1.77975 23.9772 1.66728C23.7629 0.913032 23.5554 0.443284 23.3478 0.0463132C23.1671 0.0198485 22.9729 0 22.7788 0C22.4106 0 22.0624 0.0661618 21.7344 0.178637C22.2231 0.873335 23.1604 2.40167 22.8189 3.42056C22.8122 3.4338 22.8056 3.44703 22.8056 3.46688C22.9528 4.2145 22.7721 4.40637 22.5645 5.51789C22.5177 5.76269 22.4909 5.96779 22.4775 6.13319C22.5779 6.13981 22.6784 6.14643 22.7788 6.14643C22.9395 6.14643 23.0934 6.1332 23.2474 6.11335C23.1269 5.51127 23.08 5.26648 23.1269 4.6644Z" fill="white"/>
</g>
<mask id="mask7_182_2906" style="mask-type:luminance" maskUnits="userSpaceOnUse" x="0" y="0" width="26" height="9">
<path d="M25.8824 0H0V8.85906H25.8824V0Z" fill="white"/>
</mask>
<g mask="url(#mask7_182_2906)">
<path d="M20.8903 1.705C20.8903 1.705 21.4058 2.34677 21.8209 3.14732C22.1155 2.69081 22.3632 2.37985 22.3632 2.37985C22.2226 2.63788 22.0419 2.91576 21.8678 3.23995C22.1021 3.7097 22.2896 4.22576 22.323 4.69551C22.477 4.30515 22.6511 3.90818 22.8051 3.4649C22.4302 1.56606 22.0552 0.85151 21.687 0.203125C20.5087 0.639793 19.6719 1.76454 19.6719 3.08116C19.6719 4.0802 20.1539 4.97339 20.9037 5.53576C20.9171 4.8146 21.3255 3.98096 21.7004 3.35243C21.4326 2.59156 21.1648 2.18798 20.8903 1.705Z" fill="white"/>
</g>
<mask id="mask8_182_2906" style="mask-type:luminance" maskUnits="userSpaceOnUse" x="0" y="0" width="26" height="9">
<path d="M25.8824 0H0V8.85906H25.8824V0Z" fill="white"/>
</mask>
<g mask="url(#mask8_182_2906)">
<path d="M23.7822 2.23438C23.4809 2.86291 23.2132 3.637 23.1328 4.66251C23.2332 4.96686 23.3404 5.24474 23.4341 5.52262C23.568 4.69559 23.9161 4.02736 24.2174 3.20695C24.0701 2.80337 23.9228 2.50564 23.7822 2.23438Z" fill="white"/>
</g>
<mask id="mask9_182_2906" style="mask-type:luminance" maskUnits="userSpaceOnUse" x="0" y="0" width="26" height="9">
<path d="M25.8824 0H0V8.85906H25.8824V0Z" fill="white"/>
</mask>
<g mask="url(#mask9_182_2906)">
<path d="M24.27 2.89396C24.183 2.47053 24.0959 2.10664 24.0156 1.78906C23.9553 1.90154 23.8884 2.02063 23.8281 2.14634C23.962 2.36467 24.116 2.61608 24.27 2.89396Z" fill="white"/>
</g>
<mask id="mask10_182_2906" style="mask-type:luminance" maskUnits="userSpaceOnUse" x="0" y="0" width="26" height="9">
<path d="M25.8824 0H0V8.85906H25.8824V0Z" fill="white"/>
</mask>
<g mask="url(#mask10_182_2906)">
<path d="M22.2711 6.10039C22.2979 5.88205 22.2979 5.66372 22.231 5.35938C22.1506 5.59756 22.0636 5.82251 21.9766 6.04084C22.0703 6.06731 22.1707 6.08715 22.2711 6.10039Z" fill="white"/>
</g>
<mask id="mask11_182_2906" style="mask-type:luminance" maskUnits="userSpaceOnUse" x="0" y="0" width="26" height="9">
<path d="M25.8824 0H0V8.85906H25.8824V0Z" fill="white"/>
</mask>
<g mask="url(#mask11_182_2906)">
<path d="M23.4286 5.52344C23.4018 5.70207 23.3817 5.88733 23.375 6.08581C23.4486 6.07258 23.5223 6.05273 23.5959 6.03288C23.5424 5.86748 23.4888 5.69546 23.4286 5.52344Z" fill="white"/>
</g>
<mask id="mask12_182_2906" style="mask-type:luminance" maskUnits="userSpaceOnUse" x="0" y="0" width="26" height="9">
<path d="M25.8824 0H0V8.85906H25.8824V0Z" fill="white"/>
</mask>
<g mask="url(#mask12_182_2906)">
<path d="M12.068 7.33594H11.8672V8.82458H12.068V7.33594Z" fill="white"/>
</g>
<mask id="mask13_182_2906" style="mask-type:luminance" maskUnits="userSpaceOnUse" x="0" y="0" width="26" height="9">
<path d="M25.8824 0H0V8.85906H25.8824V0Z" fill="white"/>
</mask>
<g mask="url(#mask13_182_2906)">
<path d="M12.4062 7.33594H12.6205L13.4172 8.54008V7.33594H13.6113V8.82458H13.3904L12.6004 7.62705H12.5937V8.82458H12.4062V7.33594Z" fill="white"/>
</g>
<mask id="mask14_182_2906" style="mask-type:luminance" maskUnits="userSpaceOnUse" x="0" y="0" width="26" height="9">
<path d="M25.8824 0H0V8.85906H25.8824V0Z" fill="white"/>
</mask>
<g mask="url(#mask14_182_2906)">
<path d="M14.7609 7.77324C14.7409 7.56152 14.5936 7.4689 14.386 7.4689C14.2187 7.4689 14.0446 7.52844 14.0446 7.72693C14.0446 7.91218 14.2856 7.93864 14.5266 7.99157C14.7676 8.0445 15.0086 8.13051 15.0086 8.42162C15.0086 8.7392 14.694 8.86491 14.4195 8.86491C14.0781 8.86491 13.7969 8.6995 13.7969 8.33561H13.9843C13.9843 8.58703 14.1986 8.69289 14.4262 8.69289C14.607 8.69289 14.8078 8.63334 14.8078 8.42162C14.8078 8.21652 14.5668 8.18344 14.3258 8.13051C14.0848 8.07758 13.8437 8.01142 13.8437 7.73354C13.8437 7.4292 14.1182 7.29688 14.3927 7.29688C14.7007 7.29688 14.935 7.44243 14.9484 7.76662H14.7609V7.77324Z" fill="white"/>
</g>
<mask id="mask15_182_2906" style="mask-type:luminance" maskUnits="userSpaceOnUse" x="0" y="0" width="26" height="9">
<path d="M25.8824 0H0V8.85906H25.8824V0Z" fill="white"/>
</mask>
<g mask="url(#mask15_182_2906)">
<path d="M15.4787 7.50134H14.9766V7.33594H16.1816V7.50134H15.6795V8.82458H15.4787V7.50134Z" fill="white"/>
</g>
<mask id="mask16_182_2906" style="mask-type:luminance" maskUnits="userSpaceOnUse" x="0" y="0" width="26" height="9">
<path d="M25.8824 0H0V8.85906H25.8824V0Z" fill="white"/>
</mask>
<g mask="url(#mask16_182_2906)">
<path d="M16.5891 7.33594H16.8101L17.3992 8.82458H17.1783L17.0109 8.37468H16.3749L16.2075 8.82458H16L16.5891 7.33594ZM16.4352 8.20927H16.944L16.6896 7.51457H16.6829L16.4352 8.20927Z" fill="white"/>
</g>
<mask id="mask17_182_2906" style="mask-type:luminance" maskUnits="userSpaceOnUse" x="0" y="0" width="26" height="9">
<path d="M25.8824 0H0V8.85906H25.8824V0Z" fill="white"/>
</mask>
<g mask="url(#mask17_182_2906)">
<path d="M17.5469 7.33594H17.7611L18.5511 8.54008H18.5578V7.33594H18.7453V8.82458H18.531L17.741 7.62705H17.7343V8.82458H17.5469V7.33594Z" fill="white"/>
</g>
<mask id="mask18_182_2906" style="mask-type:luminance" maskUnits="userSpaceOnUse" x="0" y="0" width="26" height="9">
<path d="M25.8824 0H0V8.85906H25.8824V0Z" fill="white"/>
</mask>
<g mask="url(#mask18_182_2906)">
<path d="M19.4162 7.50134H18.9141V7.33594H20.1191V7.50134H19.617V8.82458H19.4162V7.50134Z" fill="white"/>
</g>
<mask id="mask19_182_2906" style="mask-type:luminance" maskUnits="userSpaceOnUse" x="0" y="0" width="26" height="9">
<path d="M25.8824 0H0V8.85906H25.8824V0Z" fill="white"/>
</mask>
<g mask="url(#mask19_182_2906)">
<path d="M21.2131 7.50134H20.7109V7.33594H21.916V7.50134H21.4139V8.82458H21.2131V7.50134Z" fill="white"/>
</g>
<mask id="mask20_182_2906" style="mask-type:luminance" maskUnits="userSpaceOnUse" x="0" y="0" width="26" height="9">
<path d="M25.8824 0H0V8.85906H25.8824V0Z" fill="white"/>
</mask>
<g mask="url(#mask20_182_2906)">
<path d="M23.2888 8.28867C23.2888 8.66579 23.0678 8.86427 22.6929 8.86427C22.3046 8.86427 22.0703 8.68564 22.0703 8.28867V7.33594H22.2712V8.28867C22.2712 8.55331 22.4251 8.69887 22.6929 8.69887C22.9473 8.69887 23.0879 8.55331 23.0879 8.28867V7.33594H23.2888V8.28867Z" fill="white"/>
</g>
<mask id="mask21_182_2906" style="mask-type:luminance" maskUnits="userSpaceOnUse" x="0" y="0" width="26" height="9">
<path d="M25.8824 0H0V8.85906H25.8824V0Z" fill="white"/>
</mask>
<g mask="url(#mask21_182_2906)">
<path d="M23.4844 7.33594H24.194C24.4752 7.33594 24.656 7.48811 24.656 7.72629C24.656 7.90493 24.5756 8.0571 24.3949 8.10341V8.11003C24.5689 8.14311 24.6091 8.26882 24.6225 8.41437C24.6359 8.55993 24.6292 8.72533 24.7095 8.82458H24.4886C24.4284 8.76503 24.4618 8.60624 24.435 8.45407C24.415 8.30852 24.3748 8.18281 24.1806 8.18281H23.6919V8.81796H23.4911V7.33594H23.4844ZM24.107 8.02402C24.2945 8.02402 24.4551 7.97771 24.4551 7.75937C24.4551 7.61382 24.3748 7.50134 24.1873 7.50134H23.6852V8.02402H24.107Z" fill="white"/>
</g>
<mask id="mask22_182_2906" style="mask-type:luminance" maskUnits="userSpaceOnUse" x="0" y="0" width="26" height="9">
<path d="M25.8824 0H0V8.85906H25.8824V0Z" fill="white"/>
</mask>
<g mask="url(#mask22_182_2906)">
<path d="M24.8906 7.33594H25.8815V7.50134H25.0915V7.97771H25.7877V8.14311H25.0915V8.82458H24.8906V7.33594Z" fill="white"/>
</g>
</svg>
