<svg width="80" height="80" viewBox="0 0 80 80" fill="none" xmlns="http://www.w3.org/2000/svg">
<path d="M55.9058 47.7025C55.9058 47.7025 53.5902 50.2854 50.7401 50.0776C50.7401 50.0776 52.9964 48.9791 54.1245 47.3166C49.5229 47.4353 45.5447 45.5353 46.2869 44.4071C46.9994 43.3086 50.3541 42.0914 50.9182 36.6882C51.3695 32.3982 49.5199 28.9871 48.6085 27.5977C45.4229 23.1207 41.5753 22.9782 41.5694 22.9782C39.892 22.9218 36.1751 23.0138 33.4289 24.6645C28.0553 27.9005 30.1929 31.6709 30.1929 31.6709L39.4556 31.7303C41.6228 31.7599 38.3868 33.8975 35.6258 33.8678L27.4913 33.8084C26.9272 39.4789 30.282 43.1602 30.282 43.1602C30.282 43.1602 35.2696 43.2493 43.7307 35.9757C37.6743 43.9618 31.8554 44.9415 31.8554 44.9415C31.8554 44.9415 31.6476 46.3368 31.3507 47.465C30.1632 49.8697 27.3428 50.3744 27.3428 50.3744L30.5492 52.5714C30.5492 52.5714 27.8475 52.3042 26.9866 51.9776C25.7694 54.887 26.9272 61.2403 26.9272 61.2403L23.6912 60.2903L24.3443 53.0464C24.3443 53.0464 20.277 53.8479 18.1989 60.4387C13.33 54.7386 8.81741 47.1087 8.81741 39.0039C8.82038 23.2691 19.9238 10.1173 34.7085 7C18.5284 8.95942 6 22.7347 6 39.4195C6 57.4699 20.6363 72.0765 38.657 72.0765C46.7916 72.0765 54.2433 69.078 59.9731 64.1497C59.7653 64.2982 59.5575 64.4466 59.32 64.5951C60.2997 61.0028 61.22 59.7262 61.2497 56.5199C61.2794 51.4135 59.0528 48.6228 55.9058 47.7025Z" fill="#5D9732"/>
<path d="M63.3976 30.4174C61.3335 27.4123 63.0333 23.2233 60.18 18.2451C56.8713 12.4777 52.1663 12.8116 48.5237 13.9954C46.0923 14.7877 44.3954 20.2576 43.9219 21.9606C47.5887 23.1869 49.3767 25.2328 50.1537 26.4409C50.4876 26.6534 51.0189 27.13 51.8627 28.1105C54.0483 30.6906 54.534 35.5778 61.5763 38.674C68.1026 41.5577 70.5006 38.0972 73.1719 36.2759C66.0385 35.0617 65.3707 33.3011 63.3976 30.4174Z" fill="#404040"/>
</svg>
