<svg width="26" height="28" viewBox="0 0 26 28" fill="none" xmlns="http://www.w3.org/2000/svg">
<path d="M12.7601 17.6383C14.9145 17.6383 16.6609 15.8934 16.6609 13.741C16.6609 11.5886 14.9145 9.84375 12.7601 9.84375C10.6058 9.84375 8.85938 11.5886 8.85938 13.741C8.85938 15.8934 10.6058 17.6383 12.7601 17.6383Z" stroke="#528917" stroke-width="1.5" stroke-miterlimit="10"/>
<path d="M24.2319 17.4469L21.6697 15.2243C21.8306 14.2564 21.8344 13.2598 21.6713 12.2744L24.2319 10.0532C24.776 9.58139 24.9086 8.79054 24.5484 8.16741L23.4885 6.33292C23.1283 5.70979 22.3764 5.42894 21.6954 5.66381L18.4898 6.76868C17.7173 6.13497 16.8514 5.63989 15.9321 5.29512L15.2866 1.96677C15.1495 1.26032 14.5304 0.75 13.81 0.75H11.69C10.9697 0.75 10.3505 1.26032 10.2134 1.96677L9.56811 5.29438C9.11262 5.46618 8.6648 5.67622 8.22958 5.92742C7.7941 6.17862 7.38806 6.4609 7.01155 6.76918L3.80461 5.66381C3.12362 5.42902 2.37167 5.70979 2.0115 6.33292L0.951499 8.16741C0.591411 8.79054 0.724171 9.58139 1.26797 10.0532L3.83012 12.2759C3.66926 13.2437 3.66551 14.2404 3.82862 15.2256L1.26797 17.4469C0.724171 17.9187 0.591411 18.7095 0.951499 19.3329L2.0115 21.1672C2.37167 21.7905 3.12362 22.0712 3.80461 21.8364L7.0103 20.7314C7.78276 21.3651 8.64862 21.8602 9.56786 22.205L10.2134 25.5332C10.3505 26.2397 10.9697 26.75 11.69 26.75H13.81C14.5304 26.75 15.1495 26.2397 15.2866 25.5332L15.9319 22.2057C16.3874 22.0339 16.8352 21.8238 17.2705 21.5727C17.7059 21.3215 18.1118 21.0393 18.4884 20.7309L21.6954 21.8363C22.3764 22.071 23.1283 21.7904 23.4885 21.1671L24.5484 19.3328C24.9086 18.7096 24.776 17.9187 24.2319 17.4469Z" stroke="#528917" stroke-width="1.5" stroke-miterlimit="10"/>
</svg>
