<svg width="57" height="57" viewBox="0 0 57 57" fill="none" xmlns="http://www.w3.org/2000/svg">
<g clip-path="url(#clip0_182_2889)">
<path d="M34.1439 50.9985C34.1249 39.7534 31.5979 27.8923 25.3279 18.602C24.4286 17.2694 23.4849 16.2637 22.5159 15.0443C22.4399 14.95 22.2119 14.8054 22.4019 14.6797C30.2806 17.9231 36.2529 24.9945 39.4196 33.0151C37.6336 38.8168 36.8736 44.9014 36.9243 50.9985H34.1439Z" fill="#5E9831"/>
<path d="M20.2563 51.0009H12.8463C12.8653 45.2872 11.4909 39.5232 8.19759 34.9032C6.17092 32.0557 3.21959 29.3843 0.00225353 28.1083C-0.0294131 27.9072 0.28092 27.9826 0.41392 27.9826C4.34059 28.1272 9.15392 29.9312 12.3079 32.326C18.0586 36.682 20.3323 43.7975 20.2563 51.0009Z" fill="#5E9831"/>
<path d="M31.3695 50.997H26.7398C26.7715 47.5775 26.4865 44.1455 25.8911 40.789C25.6378 39.3747 24.8461 36.9798 24.8841 35.7101C24.9348 34.0067 25.5111 31.4924 25.8721 29.7827C26.2775 27.8467 26.7525 25.8981 27.3795 24.0312C28.8045 27.0735 30.0838 30.229 30.9641 33.5038C31.4771 35.4147 31.7558 36.5712 31.7241 38.6015C31.6861 41.1033 31.4201 43.649 31.3695 46.1444C31.3315 47.7598 31.4075 49.3878 31.3695 51.0033V50.997Z" fill="#404040"/>
<path d="M44.3273 51.0028H40.6223L40.5083 41.4673C39.9573 34.1822 40.0586 26.5262 37.2656 19.7188C42.8136 25.0302 45.195 33.0822 46.4046 40.625C44.9733 43.8622 44.2323 47.4262 44.3273 50.9965V51.0028Z" fill="#404040"/>
<path d="M45.25 51.0028C45.2437 46.9045 46.0607 42.5485 48.3027 39.1228C50.266 36.1182 53.5214 33.6165 56.9984 32.9062L55.7887 34.1697C52.3054 38.8714 51.8114 45.2577 51.7354 51.0091H45.2564L45.25 51.0028Z" fill="#5E9831"/>
<path d="M16.4381 35.0571C16.2798 35.0948 16.3115 34.9314 16.2671 34.8183C15.8998 33.8754 15.6528 32.744 15.2855 31.7571C13.0815 25.8234 9.59181 20.292 4.63281 16.4766C9.76281 17.5451 14.3798 20.556 17.8315 24.56C18.1355 24.912 19.4021 26.4708 19.5098 26.7851C19.5858 27.0177 18.6105 28.7148 18.4268 29.1297C17.5908 31.0217 16.8688 33.0017 16.4445 35.0446L16.4381 35.0571Z" fill="#5E9831"/>
<path d="M21.175 48.9645L20.795 45.7022C20.263 42.1634 19.0026 38.9514 17.1406 35.9656C18.3123 31.3394 20.0413 26.2856 23.8413 23.3125C23.36 25.0474 22.9166 26.7822 22.6063 28.5611C21.4473 35.2428 21.346 42.1822 21.1813 48.9582L21.175 48.9645Z" fill="#404040"/>
<path d="M25.8066 50.9994H22.1016L22.2156 42.4257C22.5069 39.4589 22.4689 36.4229 22.9756 33.5C24.9832 39.0629 25.9332 45.0406 25.8129 50.9994H25.8066Z" fill="#5E9831"/>
<path d="M38.6608 7.01448C35.6018 11.1756 34.5504 16.6128 33.5118 21.635L29.6484 17.8825C31.3078 14.3499 33.5054 10.7796 36.5264 8.33448C36.7924 8.12076 38.4771 6.85105 38.6608 7.01448Z" fill="#404040"/>
<path d="M49.7688 21.3944C48.3375 23.4436 47.3748 25.7944 46.5261 28.1641L45.3735 31.9418C45.3735 31.0807 43.4418 27.3721 43.5685 26.907C43.7141 26.3601 45.7851 24.0784 46.2981 23.6133C46.6908 23.255 49.4331 21.1178 49.7688 21.4007V21.3944Z" fill="#5E9831"/>
<path d="M39.7004 50.9978H37.8511C37.7751 46.3212 38.2944 41.6383 39.2951 37.0938L39.7004 50.9978Z" fill="#5E9831"/>
</g>
<defs>
<clipPath id="clip0_182_2889">
<rect width="57" height="44" fill="white" transform="translate(0 7)"/>
</clipPath>
</defs>
</svg>
