<svg width="17" height="22" viewBox="0 0 17 22" fill="none" xmlns="http://www.w3.org/2000/svg">
<path d="M8.789 0C4.368 0 0 2.943 0 7.716C0 10.749 1.706 12.472 2.74 12.472C3.167 12.472 3.412 11.283 3.412 10.947C3.412 10.547 2.391 9.693 2.391 8.026C2.37719 7.23384 2.52521 6.44719 2.826 5.71423C3.12679 4.98126 3.57402 4.3174 4.1403 3.76329C4.70658 3.20918 5.38 2.77648 6.11932 2.49168C6.85865 2.20689 7.64832 2.07599 8.44 2.107C11.374 2.107 13.545 3.774 13.545 6.837C13.545 9.125 12.627 13.415 9.655 13.415C9.39955 13.4253 9.14463 13.3843 8.90529 13.2944C8.66596 13.2046 8.44706 13.0676 8.26155 12.8917C8.07604 12.7158 7.92766 12.5045 7.8252 12.2702C7.72274 12.036 7.66827 11.7836 7.665 11.528C7.664 9.9 8.8 8.323 8.8 6.643C8.8 3.791 4.755 4.308 4.755 7.754C4.72901 8.50544 4.87078 9.25322 5.17 9.943C4.575 12.498 3.36 16.311 3.36 18.943C3.36 19.757 3.476 20.559 3.554 21.373C3.7 21.537 3.627 21.519 3.854 21.438C6.025 18.465 5.948 17.884 6.93 13.994C7.25693 14.483 7.70202 14.8815 8.224 15.1526C8.74598 15.4237 9.32796 15.5587 9.916 15.545C14.491 15.545 16.546 11.086 16.546 7.067C16.543 2.792 12.847 0 8.789 0Z" fill="#202020"/>
</svg>
