<svg width="80" height="80" viewBox="0 0 80 80" fill="none" xmlns="http://www.w3.org/2000/svg">
<path fill-rule="evenodd" clip-rule="evenodd" d="M75.75 15.6328H31.2378C29.4438 15.6328 27.9878 17.0888 27.9878 18.8828V45.2079H79V18.8828C79 17.0888 77.544 15.6328 75.75 15.6328Z" fill="#5D9732"/>
<path fill-rule="evenodd" clip-rule="evenodd" d="M16.6365 50.4766C20.6145 50.4766 23.8516 53.7006 23.8516 57.6916C23.8516 61.6826 20.6275 64.9066 16.6365 64.9066C12.6455 64.9066 9.4215 61.6826 9.4215 57.6916C9.4215 53.7006 12.6455 50.4766 16.6365 50.4766ZM16.6365 60.9416C18.4305 60.9416 19.8865 59.4856 19.8865 57.6916C19.8865 55.8976 18.4305 54.4416 16.6365 54.4416C14.8425 54.4416 13.3865 55.8976 13.3865 57.6916C13.3865 59.4856 14.8425 60.9416 16.6365 60.9416Z" fill="#404040"/>
<path fill-rule="evenodd" clip-rule="evenodd" d="M62.9412 50.4688C66.9192 50.4688 70.1562 53.6928 70.1562 57.6838C70.1562 61.6748 66.9322 64.8988 62.9412 64.8988C58.9502 64.8988 55.7262 61.6748 55.7262 57.6838C55.7262 53.6928 58.9502 50.4688 62.9412 50.4688ZM62.9412 60.9338C64.7352 60.9338 66.1912 59.4778 66.1912 57.6838C66.1912 55.8898 64.7352 54.4338 62.9412 54.4338C61.1472 54.4338 59.6912 55.8898 59.6912 57.6838C59.6912 59.4778 61.1472 60.9338 62.9412 60.9338Z" fill="#404040"/>
<path fill-rule="evenodd" clip-rule="evenodd" d="M26.0391 23.513V55.4021H25.5061C24.4921 51.4501 20.904 48.5251 16.627 48.5251C12.35 48.5251 8.76199 51.4501 7.74798 55.4021H3.43197C2.09296 55.4021 0.987959 54.3101 0.987959 52.9581V51.2551H7.21498C7.74799 51.2551 8.18999 50.8131 8.18999 50.2801V45.4961C8.18999 44.9631 7.74799 44.5211 7.21498 44.5211H1.05296C1.14396 43.9361 1.29996 43.3901 1.55996 42.8051L3.23697 39.1131H19.721C21.801 39.1131 23.5171 37.4101 23.5171 35.317V31.248C23.5171 29.155 21.814 27.452 19.721 27.452H8.52799L9.02199 26.36C9.82799 24.579 11.505 23.5 13.455 23.5H26.0261L26.0391 23.513Z" fill="#5D9732"/>
<path fill-rule="evenodd" clip-rule="evenodd" d="M0.997976 46.4844V49.3184H6.25V46.4844H0.997976Z" fill="#404040"/>
<path fill-rule="evenodd" clip-rule="evenodd" d="M7.65244 29.4141L4.12943 37.1751H19.7165C20.7305 37.1751 21.5625 36.3431 21.5625 35.3291V31.2601C21.5625 30.2461 20.7305 29.4141 19.7165 29.4141H7.63944H7.65244Z" fill="#404040"/>
<path fill-rule="evenodd" clip-rule="evenodd" d="M62.3084 19.7422C63.5954 19.7422 64.6484 20.7952 64.6484 22.0822V39.6973C64.6484 40.9843 63.5954 42.0373 62.3084 42.0373H44.6934C43.4063 42.0373 42.3533 40.9843 42.3533 39.6973V22.0822C42.3533 20.7952 43.4063 19.7422 44.6934 19.7422H62.3084Z" fill="white"/>
<path d="M62.9122 31.001C62.9122 26.5927 59.8393 22.9017 55.7109 21.9688C56.4107 23.0883 57.2095 24.5227 57.7634 25.9746C58.3407 25.1175 58.778 24.581 58.778 24.581C58.4982 25.1 58.1774 25.6364 57.8393 26.2137C58.3757 27.7473 58.6381 29.3275 58.2008 30.6394V30.6569C59.3203 32.8086 60.195 35.3626 59.5361 37.3159C59.5186 37.3568 59.4953 37.3976 59.4953 37.4559C59.5361 37.6949 59.5769 37.8932 59.5944 38.1148C61.6294 36.4005 62.9064 33.8465 62.9064 30.9951" fill="#5D9732"/>
<path d="M57.4283 36.9455C57.2067 38.1234 57.1484 38.9572 57.1484 39.5753C57.8482 39.2954 58.5071 38.9164 59.1251 38.4791C59.2476 38.1409 59.3642 37.8027 59.4867 37.4645C59.0902 35.4528 58.6878 33.8726 58.3088 32.5781C58.2505 33.6977 57.8715 34.6715 57.4342 36.9455" fill="#5D9732"/>
<path d="M50.5855 32.1953C49.7284 33.9096 48.8887 35.9855 48.4922 38.6969C49.291 39.2333 50.189 39.6532 51.122 39.9156C51.2794 38.901 51.5418 37.9622 51.8392 37.0642C51.4427 35.0117 51.0228 33.4548 50.5855 32.1953Z" fill="#5D9732"/>
<path d="M54.6985 35.8066C54.6811 35.7657 54.6577 35.7249 54.6577 35.6666C53.8997 33.4333 55.1359 30.4187 56.4304 28.1096C56.1096 27.5324 55.7948 26.9901 55.4741 26.4128C55.4741 26.4128 55.9347 26.9901 56.5528 27.8881C56.7744 27.4915 57.0135 27.1125 57.2292 26.7685C56.5936 24.4944 55.9755 23.0775 55.3574 21.8821C54.821 21.8005 54.2379 21.7422 53.6606 21.7422C52.5644 21.7422 51.5265 21.9404 50.5469 22.2786C52.0046 24.372 54.7918 28.9785 53.7772 32.0514C53.7598 32.0922 53.7364 32.133 53.7364 32.1913C54.1738 34.4421 53.6373 35.0252 53.0192 38.3722C52.8793 39.1127 52.7976 39.7308 52.7627 40.2264C53.06 40.2439 53.3632 40.2673 53.6606 40.2673C54.1388 40.2673 54.5994 40.2264 55.0542 40.1681C54.6927 38.3547 54.5528 37.6142 54.6927 35.8007" fill="#5D9732"/>
<path d="M48.0409 26.8999C48.0409 26.8999 49.5745 28.8357 50.8107 31.2498C51.6853 29.8737 52.4259 28.9349 52.4259 28.9349C52.006 29.7104 51.4696 30.5501 50.9506 31.5297C51.6503 32.9466 52.2043 34.5035 52.3092 35.9146C52.7699 34.7367 53.2888 33.5414 53.7437 32.2061C52.6241 26.48 51.5104 24.3284 50.4142 22.375C46.9039 23.6928 44.4141 27.0806 44.4141 31.0515C44.4141 34.0603 45.8485 36.7542 48.0818 38.4511C48.1226 36.2761 49.3354 33.7629 50.455 31.8679C49.6561 29.5763 48.8573 28.3576 48.0409 26.8999Z" fill="#5D9732"/>
<path d="M56.6546 28.4922C55.7567 30.3873 54.9578 32.7197 54.7188 35.8101C55.0161 36.7256 55.3368 37.5652 55.6167 38.4049C56.0132 35.9092 57.0511 33.8975 57.9491 31.4252C57.5118 30.2065 57.0745 29.3085 56.6546 28.4922Z" fill="#5D9732"/>
<path d="M52.1695 40.1395C52.2512 39.4806 52.2512 38.8217 52.0471 37.9062C51.808 38.6235 51.5456 39.2999 51.2891 39.9588C51.569 40.0404 51.8663 40.0987 52.1637 40.1395" fill="#5D9732"/>
<path d="M55.5949 38.4062C55.5133 38.9427 55.455 39.5025 55.4375 40.1031C55.6591 40.0623 55.8748 40.0039 56.0964 39.9456C55.939 39.4442 55.7757 38.931 55.5949 38.4121" fill="#5D9732"/>
<path fill-rule="evenodd" clip-rule="evenodd" d="M27.9878 47.1406H79V52.1456C79 53.9397 77.544 55.3957 75.75 55.3957H72.045C71.031 51.4436 67.443 48.5186 63.1659 48.5186C58.8889 48.5186 55.3009 51.4436 54.2869 55.3957H27.9878V47.1406Z" fill="#5D9732"/>
</svg>
