<svg width="31" height="26" viewBox="0 0 31 26" fill="none" xmlns="http://www.w3.org/2000/svg">
<path d="M25.2322 14.4591C24.2312 11.0122 21.0558 8.49219 17.2904 8.49219C13.8716 8.49219 10.9375 10.5691 9.6771 13.5315C9.11899 13.3503 8.5237 13.2512 7.9053 13.2512C4.73441 13.2512 2.16406 15.8247 2.16406 18.9996C2.16406 22.1743 4.73441 24.748 7.9053 24.748H24.484C27.3367 24.748 29.6492 22.4325 29.6492 19.5762C29.6492 16.9744 27.7302 14.8222 25.2322 14.4591Z" stroke="#528917" stroke-width="1.5" stroke-miterlimit="10"/>
<path d="M6.6651 13.1119C5.85648 11.853 5.66652 10.2275 6.29983 8.74838C7.31332 6.38164 10.0511 5.28558 12.4148 6.30036C13.6902 6.84794 14.596 7.89806 15.0008 9.12076" stroke="#528917" stroke-width="1.5" stroke-miterlimit="10"/>
<path d="M12.2033 0.75L11.7812 2.85846" stroke="#528917" stroke-width="1.5" stroke-miterlimit="10" stroke-linecap="round"/>
<path d="M6.11719 1.6875L7.01337 3.64167" stroke="#528917" stroke-width="1.5" stroke-miterlimit="10" stroke-linecap="round"/>
<path d="M1.74219 6.01562L3.61434 7.06928" stroke="#528917" stroke-width="1.5" stroke-miterlimit="10" stroke-linecap="round"/>
<path d="M0.75 12.101L2.88315 11.8516" stroke="#528917" stroke-width="1.5" stroke-miterlimit="10" stroke-linecap="round"/>
<path d="M17.673 3.57812L16.0938 5.03533" stroke="#528917" stroke-width="1.5" stroke-miterlimit="10" stroke-linecap="round"/>
</svg>
