<svg width="200" height="80" viewBox="0 0 200 80" fill="none" xmlns="http://www.w3.org/2000/svg">
<path d="M90.1291 26.4934C89.2077 26.0183 88.0127 25.6763 86.862 25.6664C85.7334 25.6584 84.2185 26.0918 84.2085 27.4298C84.1904 29.9287 89.5618 29.8114 89.5316 34.1374C89.5014 37.9504 86.4677 39.3122 83.0155 39.2864C81.5026 39.2764 79.9475 38.9067 78.5312 38.3838L79.3641 35.7358C80.5772 36.3024 81.8607 36.8252 83.2146 36.8351C84.7255 36.8471 86.2222 36.0996 86.2343 34.4257C86.2544 31.6166 80.879 32.0221 80.9112 27.8751C80.9353 24.5968 83.79 23.1893 86.8137 23.2112C88.1918 23.2211 89.6101 23.41 90.8936 23.9328L90.1291 26.4914V26.4934Z" fill="#54565B"/>
<path d="M93.2175 27.6161L96.2411 27.638L93.6721 39.1069L90.6484 39.085L93.2175 27.6161ZM94.3602 22.6739L97.3858 22.6957L96.732 25.5446L93.7083 25.5227L94.3602 22.6719V22.6739Z" fill="#54565B"/>
<path d="M98.174 29.1911C98.2666 28.7001 98.3611 28.1892 98.4557 27.6544L101.345 27.6763L100.922 29.8373H100.968C101.52 28.5908 103.018 27.4198 104.417 27.4298C104.799 27.4337 105.205 27.4576 105.565 27.549L104.911 30.4675C104.573 30.3522 104.145 30.2826 103.763 30.2806C101.618 30.2647 100.566 32.1533 100.168 34.0022L99.0471 39.1452L96.0234 39.1253L98.174 29.1931V29.1911Z" fill="#54565B"/>
<path d="M111.492 23.6641L114.651 23.6879L115.037 35.624H115.081L120.406 23.7317L124.649 23.7635L124.629 35.6956H124.673L130.336 23.8052L133.61 23.8291L125.977 39.3416L122.028 39.3138L121.963 26.8688H121.917L116.272 39.2721L112.369 39.2442L111.492 23.67V23.6641Z" fill="#54565B"/>
<path d="M138.106 37.6681H138.061C137.013 38.9524 135.969 39.682 134.299 39.6701C132.199 39.6541 130.718 38.4832 130.735 36.366C130.765 32.5748 135.054 32.3163 137.898 32.3362L138.959 32.3442C139.051 32.032 139.055 31.6981 139.057 31.3641C139.065 30.2051 137.806 29.8611 136.744 29.8532C135.412 29.8432 134.124 30.1693 132.923 30.718L133.37 28.3343C134.659 27.897 135.971 27.6604 137.325 27.6723C139.651 27.6882 141.833 28.553 141.811 31.2508C141.801 32.7895 140.614 37.2864 140.329 39.4474L137.78 39.4295L138.108 37.6701L138.106 37.6681ZM135.15 37.4912C137.408 37.5071 138.118 35.9743 138.605 34.1254L137.544 34.1175C136.078 34.1076 133.637 34.3342 133.623 36.2765C133.617 37.0797 134.382 37.4852 135.15 37.4912Z" fill="#54565B"/>
<path d="M145.847 22.7578L148.87 22.7797L145.156 39.4811L142.133 39.4592L145.847 22.7578Z" fill="#54565B"/>
<path d="M149.465 28.024L151.656 28.0399L152.193 25.6801L155.45 24.6562L154.68 28.0617L157.39 28.0816L156.899 30.2645L154.189 30.2446L153.046 35.2544C152.978 35.5208 152.908 35.9224 152.904 36.3677C152.897 37.0596 153.368 37.485 154.046 37.491C154.587 37.4949 155.131 37.3876 155.515 37.2325L154.978 39.5486C154.459 39.6559 153.869 39.809 153.35 39.805C151.296 39.7891 149.858 38.976 149.876 36.7693C149.882 35.8767 150.069 35.0079 150.278 34.0954L151.165 30.2207L148.977 30.2048L149.465 28.022V28.024Z" fill="#54565B"/>
<path d="M159.688 34.7699C159.67 36.8872 160.817 37.6784 162.893 37.6923C164.134 37.7023 165.333 37.3981 166.464 36.8931L166.063 39.2549C164.886 39.6028 163.599 39.8831 162.358 39.8752C159.016 39.8513 156.771 38.2291 156.797 34.8157C156.825 31.2452 159.648 27.8317 163.462 27.8595C166.329 27.8794 168.214 29.3426 168.192 32.267C168.186 33.1358 168.065 33.9827 167.878 34.8296L159.686 34.7699H159.688ZM165.23 32.758C165.279 32.4897 165.303 32.2451 165.305 31.9787C165.313 30.7521 164.665 30.0563 163.4 30.0464C161.527 30.0325 160.706 31.1418 160.106 32.7203L165.228 32.758H165.23Z" fill="#54565B"/>
<path d="M170.766 29.7204C170.858 29.2313 170.955 28.7184 171.049 28.1837L173.938 28.2055L173.516 30.3665H173.56C174.113 29.122 175.61 27.9511 177.008 27.961C177.393 27.965 177.799 27.9888 178.159 28.0803L177.505 30.9987C177.169 30.8834 176.739 30.8138 176.356 30.8118C174.214 30.7959 173.16 32.6846 172.761 34.5334L171.641 39.6784L168.617 39.6566L170.768 29.7244L170.766 29.7204Z" fill="#54565B"/>
<path d="M181.633 34.1692C181.633 37.5508 184.407 40.2903 187.827 40.2903C189.372 40.2903 190.784 39.7317 191.869 38.8072C191.828 38.8331 191.786 38.8589 191.746 38.8848C191.935 38.2088 192.104 37.9742 192.11 37.3739C192.116 36.4156 191.692 35.8908 191.098 35.7198C191.098 35.7198 190.662 36.2049 190.118 36.1651C190.118 36.1651 190.545 35.9604 190.764 35.6483C189.895 35.6701 189.139 35.3143 189.278 35.0996C189.414 34.8908 190.046 34.6662 190.155 33.6523C190.267 32.5946 189.624 31.8233 189.624 31.8233C189.624 31.8233 189.636 31.6603 190.046 32.1314C190.454 32.6046 190.543 33.4992 191.849 34.0658C193.06 34.5926 193.502 33.9604 193.999 33.6264C192.677 33.4018 192.553 33.0797 192.187 32.5509C191.802 31.9982 192.116 31.2309 191.587 30.3184C190.973 29.2607 190.102 29.3243 189.424 29.541C188.889 29.712 188.547 31.0957 188.547 31.0957C188.547 31.0957 187.525 30.9903 186.835 31.4038C185.817 32.0122 186.228 32.7179 186.228 32.7179L187.984 32.7318C188.392 32.7358 187.781 33.1374 187.258 33.1334L185.713 33.1215C185.604 34.1831 186.242 34.8749 186.242 34.8749C186.242 34.8749 187.189 34.8888 188.791 33.525C187.642 35.02 186.54 35.2049 186.54 35.2049C186.54 35.2049 186.497 35.4673 186.443 35.6801C186.216 36.1274 185.683 36.2228 185.683 36.2228L186.292 36.6363C186.292 36.6363 185.779 36.5846 185.616 36.523C185.385 37.0697 185.606 38.2605 185.606 38.2605L184.992 38.0816L185.119 36.7278C185.119 36.7278 184.349 36.8788 183.952 38.1114C183.031 37.0419 182.172 35.6145 182.172 34.0956C182.172 31.1454 184.278 28.6802 187.083 28.0938C184.017 28.4615 181.639 31.04 181.639 34.1692" fill="#00853F"/>
<path d="M52.8299 65.8333C52.9768 65.4278 53.2685 64.6863 53.6447 64.0739C54.556 62.5849 55.2098 63.4914 55.6041 62.0819C55.7389 61.6068 55.7108 60.1098 56.3364 59.2888C57.3282 57.9767 58.0424 57.6427 58.8169 56.3683C58.8169 56.3683 58.145 56.5314 57.7266 56.6228C57.0385 56.7739 56.773 56.927 56.2197 57.7063C55.9401 58.1019 55.3768 59.2927 55.3768 59.2927C55.3768 59.2927 54.381 59.1078 54.0732 60.2092C53.9887 60.4001 53.8338 61.4835 53.8318 61.9646C53.8278 62.4457 53.1015 62.6286 52.6026 62.6426C51.9065 62.6624 50.446 62.6704 49.9994 62.2211C49.9551 62.1794 49.9129 60.9269 50.6753 60.3166C51.651 59.5333 52.2284 59.7738 52.6126 58.1218C52.7635 57.4697 54.6425 56.092 55.7892 55.4519C55.7892 55.4519 53.5763 53.8654 52.8018 51.8953C51.8924 49.5872 52.3008 47.5057 52.1741 47.6171C51.9548 47.9232 51.5082 49.6886 52.0373 51.5653C52.1157 51.8396 50.1382 52.8157 49.0377 52.8257C46.7564 52.8456 46.6317 51.943 44.4408 52.1995C44.5515 51.9629 45.3079 50.4361 44.5334 49.3864C44.5233 49.3705 44.5837 51.0305 43.8192 52.0424C43.0427 53.0662 41.9744 53.2988 41.9744 53.2988L40.6487 58.8434C40.6487 58.8434 40.0411 61.1913 40.0371 61.8414C40.0311 62.4895 39.6689 62.6267 39.0071 63.1634C38.3613 63.6883 39.0755 64.5829 38.7335 65.7339L35.1586 65.7081C35.233 65.4834 35.4563 64.8055 35.5508 64.3602C35.6655 63.8215 36.2369 63.0362 37.0013 63.0422C38.0837 63.0501 36.4924 62.9626 37.794 60.744C38.3392 59.8156 38.144 58.8096 38.4337 57.9846C38.9507 56.5174 37.8463 55.3783 38.134 54.7561C38.4619 54.0443 39.0191 53.599 39.0674 52.0344C39.0976 51.0126 38.8763 50.1438 38.8763 50.1438L38.2547 51.2909C37.4862 51.5096 36.3998 51.1677 34.0098 50.5017C32.4487 50.0663 31.0103 50.0981 30.9379 50.2671C30.8413 50.444 31.3 50.8277 31.8432 51.4102C33.4123 53.0941 32.9416 53.5314 32.9416 53.5314L34.6757 53.2233C34.6757 53.2233 36.259 56.098 34.1044 57.0264C34.046 57.0522 32.0142 55.6208 32.0142 55.6208C31.7546 54.7103 30.5617 53.9052 30.5617 53.9052C30.4249 52.9907 28.1355 50.5414 28.1355 50.5414C27.7794 50.11 27.5742 49.615 27.5702 49.0783C27.5702 48.784 28.053 48.7125 28.4513 48.3944C28.5016 47.9809 28.6485 47.7324 29.2279 47.5594C31.0988 46.9988 32.1127 47.1379 32.9858 47.2513C32.153 46.295 31.5354 45.2135 31.8351 43.3507C32.1751 41.2395 32.3763 40.6391 33.3238 39.3647C33.6477 38.9254 36.1463 37.4503 36.2952 33.8321C36.2952 33.8082 35.2752 38.3946 33.0643 38.329C32.9074 38.6232 31.5494 41.8657 31.5494 41.8657L29.2922 42.146C29.2922 42.146 27.2362 39.1063 27.4153 34.4424C27.4153 34.4205 29.4612 33.9593 29.4612 33.9593L27.3951 33.8957L27.0129 31.514C27.0129 31.514 26.0674 30.1125 26.4235 29.357C26.4235 29.357 26.9244 28.1006 26.86 27.2119C27.6386 27.4803 27.3328 29.8023 28.2783 30.1999C28.2783 30.1999 28.2019 29.1045 28.2079 28.3372C28.2139 27.5698 28.5559 27.3412 28.4252 26.6076C28.2924 25.874 29.594 28.1026 29.594 28.1026L32.666 26.4247L11.295 22.8045L6 21.6455L11.4539 22.2598L40.9504 26.4982L43.6583 26.8263C44.296 25.0052 45.5353 24.7846 45.5353 24.7846L45.3321 26.7805L46.3218 27.0449C46.3218 27.0449 45.9678 25.2895 46.34 24.4844C46.6015 24.5718 47.4263 24.6494 47.4263 24.6494L46.4446 24.039C46.4446 24.039 47.3016 23.9019 47.6677 23.2399C47.7583 22.9258 47.8246 22.5401 47.8246 22.5401C47.8246 22.5401 49.601 22.2657 51.4498 20.063C48.8728 22.0749 47.3438 22.053 47.3438 22.053C47.3438 22.053 46.3178 21.0331 46.4929 19.4666L48.9794 19.4865C49.8203 19.4924 50.8061 18.898 50.1482 18.894L47.3217 18.8742C47.3217 18.8742 46.6618 17.8324 48.3014 16.9358C49.4139 16.3275 51.0555 16.4826 51.0555 16.4826C51.0555 16.4826 51.6088 14.4408 52.4718 14.1904C53.5622 13.8723 54.9664 13.7788 55.9542 15.3394C56.8052 16.6833 56.2982 17.8185 56.9158 18.6316C57.5073 19.4109 58.0505 19.9437 60.1809 20.2737C59.3782 20.7648 58.3261 21.6415 56.3747 20.8662C54.2724 20.0312 54.1295 18.7111 53.4717 18.0113C52.8138 17.3116 52.7937 17.5561 52.7937 17.5561C52.7937 17.5561 53.8298 18.6932 53.6487 20.2519C53.4737 21.7468 52.4557 22.0828 52.2344 22.387C52.0091 22.7011 53.2283 23.2259 54.6264 23.1941C54.2744 23.6534 53.5904 23.9555 53.5904 23.9555C54.4615 24.0152 55.1676 23.2975 55.1676 23.2975C56.1232 23.554 56.8072 24.3253 56.7971 25.7388C56.7871 27.1523 55.5297 28.8401 55.8053 30.3828C56.0789 31.9255 57.2357 34.6094 57.2357 34.6094L60.4143 35.5795C60.4143 35.5795 62.6856 35.6173 64.6108 37.834C66.1357 37.9075 69.5678 37.8857 70.8051 40.4363C72.2455 43.4064 71.312 45.2712 71.2839 49.1518C71.2557 53.0344 71.8552 53.9807 75.1967 53.3465C75.1183 54.9747 72.4386 56.5572 70.618 55.5254C67.5661 53.7958 68.0107 50.7144 67.4152 45.0704C67.4152 45.0704 66.862 49.1081 65.1621 50.442C63.4601 51.776 62.6252 51.4778 63.3394 53.7044C63.951 55.6049 64.305 55.7998 62.8244 56.762C61.3457 57.7242 59.849 59.8375 59.2434 60.9627C58.6379 62.0879 57.3584 63.0978 57.463 63.7956C57.5475 64.3642 57.7064 65.4795 57.7628 65.8711L52.8279 65.8353L52.8299 65.8333Z" fill="#54565B"/>
<path d="M52.2098 28.0511C52.2098 28.0511 47.293 28.8225 42.1368 25.1406C42.1891 25.3454 40.6059 32.0848 40.1492 37.4624C39.9742 39.52 40.7346 44.7147 42.8611 46.7266C44.9875 48.7345 45.9149 48.498 45.5166 49.9075C45.9773 48.5159 46.6593 49.1421 49.5583 48.6431C52.4572 48.1441 56.016 44.2476 57.03 42.4424C59.6815 37.7248 62.164 31.2538 62.3229 31.1146C55.9657 31.3353 52.2098 28.0531 52.2098 28.0531V28.0511Z" fill="#00853F" stroke="#54565B" stroke-width="0.95" stroke-miterlimit="3.86"/>
<path d="M52.2445 28.0156L45.5312 49.699" stroke="#54565B" stroke-width="0.95" stroke-miterlimit="3.86"/>
<path d="M40.1512 37.4581C40.2297 36.5376 40.3403 35.5774 40.4711 34.6172C40.5999 34.7365 44.0561 37.9074 49.3852 37.0247L49.4677 37.0108C49.4677 37.0108 49.4033 37.0406 49.4074 37.0207L45.581 49.6248C45.7761 48.5155 44.8346 48.5871 42.8611 46.7223C40.7346 44.7104 39.9742 39.5177 40.1492 37.4581H40.1512Z" fill="#8DC63F" stroke="#54565B" stroke-width="0.95" stroke-miterlimit="3.86"/>
<path d="M52.2134 28.0469C52.2134 28.0469 55.9694 31.3311 62.3266 31.1084C62.1978 31.2218 60.5421 35.492 58.5082 39.6192C58.5082 39.6192 53.2555 40.6987 49.4694 37.0109C49.4332 37.0507 50.9983 31.9434 52.1973 28.0489H52.2134V28.0469Z" fill="#8DC63F" stroke="#54565B" stroke-width="0.95" stroke-miterlimit="3.86"/>
<path d="M48.7741 37.1366C48.7741 37.1366 47.2693 38.7369 46.6195 40.8423C45.7685 43.6016 46.5913 46.1364 45.1247 48.6055M47.4161 37.1485C47.4161 37.1485 45.9113 38.7509 45.2615 40.8542C44.4789 43.3909 45.1971 45.5917 44.1812 47.8481M46.1286 37.0471C46.1286 37.0471 44.6238 38.6475 43.976 40.7528C43.2819 42.9973 43.7648 44.9793 43.1813 46.9694M44.9074 36.8324C44.9074 36.8324 43.4047 38.4328 42.7549 40.5381C42.1634 42.4486 42.4269 44.1682 42.1574 45.866M43.7547 36.5044C43.7547 36.5044 42.2499 38.1047 41.6021 40.2081C41.2199 41.4466 41.1957 42.6037 41.1515 43.7249M42.6683 36.0611C42.6683 36.0611 41.1635 37.6614 40.5137 39.7667C40.4353 40.0192 40.3729 40.2697 40.3206 40.5162M41.7027 35.413C41.7027 35.413 40.8155 36.3553 40.1094 37.7489M58.6538 39.387C58.6538 39.387 57.1792 38.5878 52.4576 39.0312M58.9717 38.6674C58.9717 38.6674 56.7829 37.4328 51.6871 38.5381M59.2896 37.9457C59.2896 37.9457 56.3846 36.2738 50.9166 38.0471M59.6074 37.226C59.6074 37.226 55.9883 35.1167 50.1461 37.5561M59.9253 36.5044C59.9253 36.5044 55.5899 33.9597 49.3736 37.065M51.8219 35.9736C51.8219 35.9736 51.335 34.6356 50.3513 34.1307M52.6105 35.8702C52.6105 35.8702 52.2826 34.3414 50.7396 32.8544M53.3971 35.7668C53.3971 35.7668 53.2281 34.0452 51.1278 31.5781M54.1857 35.6654C54.1857 35.6654 54.1736 33.753 51.5181 30.2998M54.9763 35.5621C54.9763 35.5621 55.1212 33.4548 51.9084 29.0234M59.9374 36.4825C59.9374 36.4825 58.5512 34.0969 54.6927 34.0889M60.3256 35.6416C60.3256 35.6416 58.4909 33.1923 54.2823 33.244M60.7139 34.8046C60.7139 34.8046 58.4305 32.2878 53.8739 32.3971M61.1022 33.9637C61.1022 33.9637 58.3682 31.3812 53.4655 31.5482M61.4884 33.1227C61.4884 33.1227 58.3058 30.4767 53.0551 30.7013" stroke="#54565B" stroke-width="0.95" stroke-miterlimit="3.86"/>
<path d="M52.7902 41.0734L53.094 41.1629C53.1 41.4372 53.1061 41.6977 53.1161 41.9442C53.1563 43.0277 53.1825 43.6718 53.1946 43.8785L53.2569 45.0853L54.1542 43.5525C54.5042 42.9462 54.7135 42.5704 54.7819 42.4313C54.8 42.3935 54.8161 42.3577 54.8261 42.3239C54.8422 42.2722 54.8442 42.2285 54.8301 42.1927C54.8181 42.1569 54.7939 42.1271 54.7557 42.1012C54.7376 42.0893 54.6028 42.0356 54.3513 41.9362L54.4459 41.6301C54.8362 41.7653 55.0736 41.8468 55.1581 41.8706L55.9487 42.0774L55.8541 42.3816C55.8219 42.3736 55.7938 42.3696 55.7797 42.3676C55.6369 42.3358 55.5483 42.3259 55.5101 42.3358C55.4739 42.3458 55.4317 42.3736 55.3874 42.4173C55.3431 42.4611 55.1882 42.6897 54.9227 43.1072C54.6591 43.5227 54.2528 44.1986 53.7035 45.129C53.1543 46.0594 52.8405 46.6081 52.762 46.7771L52.2551 46.626L52.2289 45.4531L52.1163 42.632C51.9493 42.8348 51.3357 43.6141 50.2755 44.97L49.6176 45.8427L49.1328 45.6976L49.5794 41.5585C49.6297 41.1032 49.6498 40.8249 49.6418 40.7295C49.6358 40.6619 49.6156 40.6102 49.5814 40.5744C49.5372 40.5307 49.4265 40.479 49.2515 40.4214L49.3461 40.1172L50.2654 40.4134L51.3578 40.7136L51.2613 41.0198C51.0641 40.9701 50.9575 40.9422 50.9354 40.9382C50.871 40.9303 50.8207 40.9363 50.7845 40.9581C50.7503 40.976 50.7221 41.0138 50.704 41.0714C50.698 41.0993 50.6879 41.1291 50.6778 41.1689C50.6718 41.2027 50.6517 41.3518 50.6175 41.6122C50.5471 42.1231 50.5008 42.481 50.4787 42.6877L50.3117 44.2642C50.358 44.2046 50.527 43.9859 50.8227 43.6042L51.5751 42.6499L52.5407 41.4074C52.6212 41.3021 52.7057 41.1907 52.7942 41.0714L52.7902 41.0734Z" fill="#54565B"/>
<path d="M44.6103 30.445L44.397 30.3794C44.4614 30.1607 44.5017 30.0037 44.5157 29.9102C44.4896 29.8108 44.4212 29.7094 44.3085 29.608C44.1999 29.5047 44.0631 29.4291 43.9021 29.3814C43.6708 29.3138 43.4716 29.3237 43.3026 29.4172C43.1377 29.5066 43.027 29.6398 42.9727 29.8148C42.9365 29.94 42.9224 30.0454 42.9365 30.1349C42.9466 30.2223 42.9787 30.2979 43.0311 30.3635C43.0834 30.4291 43.1679 30.4987 43.2865 30.5742C43.3771 30.6259 43.5038 30.6955 43.6708 30.781C43.8358 30.8684 43.9444 30.9241 43.9947 30.9539C44.1194 31.0334 44.216 31.1169 44.2824 31.1965C44.3508 31.276 44.397 31.3615 44.4252 31.4489C44.4534 31.5364 44.4654 31.6398 44.4654 31.7611C44.4634 31.8803 44.4413 32.0076 44.3991 32.1448C44.3246 32.3873 44.214 32.5841 44.0671 32.7412C43.9565 32.8585 43.8217 32.9579 43.6668 33.0354C43.5099 33.1129 43.361 33.1606 43.2141 33.1785C42.9808 33.2084 42.7233 33.1825 42.4376 33.097C42.2263 33.0354 42.0473 32.9598 41.8984 32.8664C41.7475 32.775 41.5926 32.6457 41.4297 32.4847C41.5504 32.2859 41.6791 31.9658 41.818 31.5265L42.0312 31.5901C41.9849 31.7253 41.9427 31.8963 41.9025 32.105C41.9306 32.2402 42.0091 32.3754 42.1378 32.5106C42.2666 32.6457 42.4235 32.7412 42.6086 32.7948C42.7695 32.8426 42.9224 32.8545 43.0693 32.8286C43.2161 32.8028 43.3368 32.7432 43.4274 32.6477C43.5199 32.5523 43.5863 32.437 43.6306 32.2939C43.6688 32.1746 43.6788 32.0672 43.6628 31.9698C43.6507 31.8724 43.6104 31.7869 43.54 31.7114C43.4716 31.6338 43.3389 31.5364 43.1397 31.4191C42.854 31.2561 42.6669 31.1448 42.5804 31.0832C42.4497 30.9917 42.3551 30.8863 42.2927 30.7671C42.2324 30.6478 42.2022 30.5166 42.1982 30.3754C42.1982 30.2303 42.2163 30.0812 42.2626 29.9301C42.3289 29.7194 42.4295 29.5365 42.5643 29.3834C42.6991 29.2283 42.848 29.121 43.0109 29.0613C43.1739 29.0037 43.3429 28.9778 43.5199 28.9858C43.699 28.9917 43.874 29.0196 44.049 29.0713C44.2281 29.1249 44.397 29.1945 44.554 29.28C44.7129 29.3655 44.8437 29.4629 44.9463 29.5663V29.6398C44.8839 29.7551 44.8296 29.8705 44.7793 29.9858C44.733 30.0991 44.6787 30.2522 44.6123 30.443L44.6103 30.445Z" fill="#54565B"/>
<path d="M47.3663 30.1355L47.2878 30.384C47.1148 30.3383 47.0102 30.3164 46.974 30.3164C46.9398 30.3144 46.9137 30.3164 46.8955 30.3264C46.8795 30.3343 46.8654 30.3462 46.8533 30.3621C46.8312 30.39 46.803 30.4496 46.7728 30.5371C46.7527 30.5848 46.7225 30.6762 46.6783 30.8114C46.5274 31.2727 46.4469 31.5212 46.4349 31.5569L46.0808 32.6961L45.9279 33.2169C45.8675 33.4098 45.8374 33.539 45.8353 33.6026C45.8333 33.6324 45.8374 33.6563 45.8494 33.6742C45.8615 33.6921 45.8836 33.71 45.9158 33.7299C45.948 33.7497 46.0486 33.7835 46.2136 33.8372L46.1371 34.0857C45.8615 33.9923 45.5678 33.8988 45.2539 33.8034C44.9783 33.7239 44.7329 33.6563 44.5156 33.6046L44.5941 33.3541C44.7731 33.3998 44.8777 33.4217 44.9059 33.4237C44.9441 33.4277 44.9703 33.4237 44.9864 33.4138C45.0045 33.4058 45.0186 33.3939 45.0266 33.376C45.0387 33.3561 45.0729 33.2686 45.1292 33.1175C45.2137 32.8949 45.2841 32.6881 45.3465 32.4953L45.7126 31.3144C45.8293 30.9387 45.9037 30.6981 45.9339 30.5888C45.9983 30.3462 46.0365 30.1932 46.0426 30.1295C46.0446 30.1037 46.0426 30.0818 46.0345 30.0659C46.0285 30.05 46.0104 30.0341 45.9822 30.0162C45.9561 29.9983 45.8514 29.9586 45.6684 29.895L45.7468 29.6484C45.9581 29.722 46.2015 29.8015 46.4791 29.883C46.7909 29.9745 47.0867 30.056 47.3683 30.1295L47.3663 30.1355Z" fill="#54565B"/>
<path d="M47.6704 30.4748L47.7428 30.2422C47.781 30.2541 47.9158 30.2979 48.1472 30.3754C48.2598 30.4132 48.4208 30.4629 48.63 30.5245C48.809 30.5782 48.9619 30.6199 49.0927 30.6497C49.308 30.7034 49.483 30.7491 49.6198 30.7909C49.8873 30.8704 50.0805 30.9499 50.1992 31.0334C50.3199 31.1149 50.4044 31.2362 50.4567 31.3972C50.509 31.5583 50.505 31.7372 50.4446 31.928C50.3742 32.1567 50.2454 32.3455 50.0604 32.4926C49.8733 32.6417 49.6319 32.7312 49.3321 32.761C49.3482 32.8584 49.3703 32.9598 49.3965 33.0652C49.4246 33.1706 49.4387 33.2342 49.4407 33.256C49.4448 33.2779 49.4488 33.2978 49.4548 33.3197L49.6459 34.095C49.6962 34.3017 49.7244 34.4111 49.7284 34.427C49.7988 34.6536 49.8411 34.7888 49.8612 34.8306C49.8793 34.8743 49.8994 34.9061 49.9236 34.926C49.9477 34.9478 49.998 34.9717 50.0785 34.9975L50.006 35.2321C49.7485 35.1467 49.5594 35.087 49.4407 35.0512C49.3059 35.0115 49.1691 34.9737 49.0323 34.9419C49.0364 34.8981 49.0323 34.8385 49.0223 34.763L48.7849 33.602C48.7165 33.27 48.6561 33.0055 48.5958 32.8087C48.5676 32.7093 48.5354 32.6318 48.4952 32.5741L48.5535 32.4887C48.7547 32.5582 48.9157 32.5801 49.0364 32.5582C49.1571 32.5344 49.2738 32.4648 49.3884 32.3475C49.5051 32.2302 49.5856 32.0851 49.6399 31.9141C49.6942 31.7412 49.7023 31.5861 49.662 31.4489C49.6218 31.3117 49.5534 31.2044 49.4568 31.1269C49.3945 31.0772 49.2717 31.0255 49.0887 30.9698C49.0062 30.9459 48.9237 30.93 48.8392 30.9221C48.8131 30.9877 48.7608 31.1388 48.6823 31.3734C48.5053 31.9042 48.3906 32.26 48.3343 32.439C48.2457 32.7213 48.1572 33.0215 48.0607 33.3395C47.948 33.7292 47.8856 33.9518 47.8716 34.0055C47.8434 34.1129 47.8313 34.1844 47.8353 34.2202C47.8353 34.2361 47.8434 34.254 47.8555 34.2739C47.8675 34.2898 47.8897 34.3057 47.9219 34.3236C47.954 34.3415 48.0506 34.3753 48.2115 34.427L48.1351 34.6755C47.8474 34.5781 47.5577 34.4846 47.258 34.3972C46.9924 34.3196 46.745 34.252 46.5156 34.1964L46.5941 33.9479C46.7892 33.9976 46.9079 34.0214 46.9482 34.0194C46.9703 34.0194 46.9884 34.0135 47.0005 34.0035C47.0145 33.9936 47.0306 33.9697 47.0487 33.93C47.0829 33.8604 47.1272 33.7511 47.1775 33.6039L47.4551 32.7849L47.783 31.7372L47.9581 31.1368C48.0285 30.9002 48.0607 30.7551 48.0587 30.7034C48.0566 30.6796 48.0486 30.6617 48.0365 30.6438C48.0023 30.61 47.8816 30.5543 47.6764 30.4768L47.6704 30.4748Z" fill="#54565B"/>
<path d="M44.3293 30.0617L44.114 29.998C44.1784 29.7774 44.2186 29.6203 44.2327 29.5249C44.2045 29.4255 44.1341 29.3261 44.0255 29.2227C43.9169 29.1213 43.7801 29.0458 43.6191 28.9981C43.3878 28.9305 43.1886 28.9404 43.0196 29.0339C42.8547 29.1233 42.744 29.2565 42.6897 29.4295C42.6515 29.5547 42.6394 29.6601 42.6515 29.7495C42.6635 29.839 42.6957 29.9146 42.746 29.9782C42.7983 30.0438 42.8828 30.1134 43.0015 30.1909C43.092 30.2426 43.2208 30.3102 43.3858 30.3976C43.5527 30.4831 43.6594 30.5408 43.7076 30.5706C43.8344 30.6501 43.9309 30.7316 43.9973 30.8131C44.0657 30.8946 44.112 30.9762 44.1382 31.0656C44.1663 31.1531 44.1804 31.2565 44.1784 31.3758C44.1784 31.495 44.1543 31.6243 44.112 31.7594C44.0376 32.002 43.9269 32.2008 43.7781 32.3558C43.6674 32.4731 43.5346 32.5706 43.3777 32.6501C43.2208 32.7276 43.0719 32.7753 42.9251 32.7932C42.6937 32.823 42.4342 32.7952 42.1485 32.7117C41.9393 32.6501 41.7602 32.5725 41.6094 32.4811C41.4605 32.3896 41.3036 32.2604 41.1406 32.0974C41.2593 31.8986 41.3881 31.5805 41.5269 31.1412L41.7421 31.2048C41.6959 31.34 41.6536 31.5109 41.6134 31.7177C41.6416 31.8549 41.72 31.9901 41.8488 32.1252C41.9775 32.2604 42.1365 32.3558 42.3215 32.4095C42.4825 32.4572 42.6354 32.4692 42.7802 32.4453C42.9291 32.4195 43.0478 32.3578 43.1383 32.2644C43.2309 32.171 43.2993 32.0517 43.3415 31.9105C43.3797 31.7912 43.3898 31.6839 43.3757 31.5865C43.3616 31.4891 43.3214 31.4036 43.253 31.328C43.1826 31.2525 43.0498 31.1551 42.8526 31.0378C42.567 30.8748 42.3819 30.7634 42.2934 30.7018C42.1646 30.6104 42.0681 30.505 42.0057 30.3857C41.9453 30.2664 41.9131 30.1352 41.9111 29.9921C41.9051 29.847 41.9292 29.6998 41.9755 29.5488C42.0399 29.338 42.1425 29.1551 42.2753 29.002C42.4121 28.847 42.5609 28.7396 42.7219 28.68C42.8828 28.6203 43.0538 28.5965 43.2309 28.6025C43.4079 28.6084 43.5849 28.6362 43.7599 28.6879C43.939 28.7416 44.108 28.8112 44.2669 28.8967C44.4258 28.9822 44.5586 29.0776 44.6592 29.183V29.2585C44.5968 29.3738 44.5405 29.4891 44.4922 29.6044C44.4439 29.7177 44.3896 29.8708 44.3253 30.0617H44.3293Z" fill="white"/>
<path d="M47.0772 29.7487L46.9988 29.9972C46.8258 29.9535 46.7191 29.9296 46.6849 29.9296C46.6507 29.9276 46.6246 29.9296 46.6065 29.9396C46.5904 29.9475 46.5763 29.9594 46.5662 29.9773C46.5441 30.0052 46.516 30.0628 46.4818 30.1523C46.4636 30.202 46.4315 30.2914 46.3892 30.4266C46.2383 30.8879 46.1579 31.1383 46.1458 31.1721L45.7917 32.3133L45.6388 32.8321C45.5785 33.025 45.5483 33.1542 45.5463 33.2178C45.5463 33.2476 45.5503 33.2715 45.5604 33.2914C45.5744 33.3093 45.5966 33.3292 45.6268 33.347C45.661 33.3669 45.7595 33.4027 45.9245 33.4544L45.848 33.7029C45.5744 33.6095 45.2807 33.516 44.9649 33.4226C44.6913 33.3411 44.4458 33.2735 44.2266 33.2218L44.305 32.9713C44.4841 33.017 44.5887 33.0409 44.6189 33.0429C44.6571 33.0469 44.6832 33.0429 44.6993 33.0349C44.7154 33.025 44.7295 33.0131 44.7396 32.9952C44.7516 32.9753 44.7878 32.8878 44.8422 32.7367C44.9267 32.516 44.9971 32.3093 45.0574 32.1165L45.4256 30.9336C45.5423 30.5578 45.6167 30.3173 45.6469 30.2079C45.7133 29.9674 45.7495 29.8143 45.7555 29.7507C45.7595 29.7229 45.7555 29.703 45.7475 29.6851C45.7414 29.6692 45.7233 29.6533 45.6972 29.6354C45.671 29.6175 45.5664 29.5758 45.3833 29.5141L45.4598 29.2656C45.671 29.3392 45.9144 29.4187 46.1921 29.5022C46.5039 29.5956 46.7996 29.6771 47.0813 29.7467L47.0772 29.7487Z" fill="white"/>
<path d="M47.3836 30.0978L47.456 29.8672C47.4962 29.8771 47.629 29.9229 47.8604 29.9984C47.973 30.0362 48.134 30.0859 48.3432 30.1475C48.5202 30.2012 48.6751 30.2429 48.8059 30.2727C49.0191 30.3244 49.1962 30.3721 49.333 30.4139C49.6005 30.4934 49.7937 30.5729 49.9124 30.6564C50.0331 30.736 50.1196 30.8572 50.1719 31.0202C50.2242 31.1813 50.2181 31.3602 50.1598 31.551C50.0894 31.7777 49.9606 31.9665 49.7756 32.1156C49.5905 32.2628 49.3471 32.3542 49.0473 32.384C49.0634 32.4814 49.0835 32.5828 49.1117 32.6862C49.1398 32.7916 49.1539 32.8552 49.1559 32.8771C49.16 32.8989 49.164 32.9188 49.17 32.9387L49.3611 33.714C49.4114 33.9208 49.4396 34.0321 49.4436 34.048C49.514 34.2727 49.5563 34.4078 49.5744 34.4516C49.5925 34.4933 49.6146 34.5271 49.6367 34.547C49.6589 34.5689 49.7112 34.5907 49.7896 34.6166L49.7152 34.8512C49.4577 34.7657 49.2686 34.706 49.1499 34.6703C49.0151 34.6305 48.8783 34.5947 48.7415 34.5629C48.7455 34.5172 48.7415 34.4595 48.7294 34.382L48.492 33.223C48.4257 32.891 48.3633 32.6266 48.305 32.4278C48.2768 32.3284 48.2426 32.2508 48.2064 32.1952L48.2627 32.1097C48.4639 32.1773 48.6288 32.2011 48.7475 32.1793C48.8682 32.1554 48.9869 32.0858 49.0996 31.9705C49.2143 31.8512 49.2988 31.7061 49.3511 31.5351C49.4054 31.3602 49.4134 31.2051 49.3732 31.0699C49.333 30.9328 49.2646 30.8254 49.17 30.7479C49.1056 30.6982 48.9829 30.6465 48.7998 30.5928C48.7174 30.567 48.6349 30.5511 48.5504 30.5431C48.5242 30.6107 48.4719 30.7618 48.3915 30.9984C48.2144 31.5292 48.0998 31.883 48.0434 32.062C47.9569 32.3443 47.8644 32.6445 47.7698 32.9625C47.6552 33.3522 47.5928 33.5729 47.5787 33.6285C47.5505 33.7339 47.5405 33.8055 47.5425 33.8432C47.5425 33.8591 47.5526 33.877 47.5626 33.8949C47.5747 33.9128 47.5968 33.9287 47.627 33.9466C47.6592 33.9645 47.7557 34.0003 47.9187 34.05L47.8402 34.2985C47.5546 34.2011 47.2588 34.1077 46.9611 34.0202C46.6976 33.9426 46.4481 33.8731 46.2188 33.8194L46.2952 33.5709C46.4924 33.6206 46.609 33.6444 46.6493 33.6425C46.6714 33.6425 46.6895 33.6385 46.7016 33.6265C46.7157 33.6166 46.7318 33.5928 46.7499 33.553C46.7841 33.4834 46.8283 33.3741 46.8786 33.227L47.1542 32.4079L47.4801 31.3602L47.6572 30.7598C47.7276 30.5252 47.7618 30.3781 47.7578 30.3264C47.7578 30.3026 47.7477 30.2827 47.7336 30.2668C47.6994 30.231 47.5787 30.1753 47.3735 30.0978H47.3836Z" fill="white"/>
<path d="M52.5032 40.6886L52.8089 40.7801C52.813 41.0544 52.821 41.3149 52.8311 41.5614C52.8713 42.6448 52.8975 43.289 52.9115 43.4977L52.9719 44.7044L53.8691 43.1717C54.2212 42.5633 54.4304 42.1896 54.4968 42.0484C54.5169 42.0107 54.531 41.9749 54.5431 41.9411C54.5572 41.8894 54.5592 41.8457 54.5471 41.8099C54.535 41.7741 54.5109 41.7443 54.4727 41.7184C54.4526 41.7065 54.3198 41.6528 54.0663 41.5534L54.1629 41.2493C54.5531 41.3824 54.7905 41.464 54.875 41.4878L55.6677 41.6926L55.5711 41.9987C55.5369 41.9908 55.5128 41.9868 55.4967 41.9848C55.3538 41.953 55.2653 41.9431 55.2271 41.953C55.1909 41.963 55.1486 41.9888 55.1044 42.0325C55.0581 42.0763 54.9032 42.3049 54.6376 42.7224C54.3761 43.1419 53.9677 43.8138 53.4165 44.7462C52.8713 45.6766 52.5555 46.2253 52.475 46.3943L51.968 46.2452L51.9419 45.0722L51.8272 42.2512C51.6622 42.454 51.0486 43.2333 49.9864 44.5891L49.3266 45.4599L48.8438 45.3168L49.2884 41.1777C49.3386 40.7224 49.3588 40.4461 49.3507 40.3487C49.3447 40.2791 49.3266 40.2294 49.2904 40.1936C49.2461 40.1479 49.1355 40.0962 48.9624 40.0405L49.057 39.7344L49.9764 40.0326L51.0688 40.3328L50.9722 40.6389C50.775 40.5872 50.6684 40.5614 50.6463 40.5574C50.5819 40.5495 50.5296 40.5574 50.4954 40.5773C50.4612 40.5952 50.4351 40.633 50.417 40.6906C50.4089 40.7184 50.3988 40.7503 50.3888 40.786C50.3828 40.8218 50.3626 40.9709 50.3284 41.2294C50.258 41.7423 50.2118 42.0981 50.1896 42.3049L50.0226 43.8814C50.0669 43.8237 50.2359 43.6051 50.5316 43.2214L51.284 42.2711L52.2497 41.0246C52.3301 40.9212 52.4146 40.8099 52.5011 40.6906L52.5032 40.6886Z" fill="white"/>
<path fill-rule="evenodd" clip-rule="evenodd" d="M61.2579 62.0824C61.2498 63.0167 62.0163 63.7841 62.9618 63.7901C63.9074 63.796 64.6839 63.0406 64.69 62.1062C64.698 61.1699 63.9335 60.4045 62.988 60.3985C62.0425 60.3905 61.2639 61.146 61.2579 62.0824ZM61.5858 62.0824C61.5918 61.2693 62.1913 60.643 62.99 60.651C63.7786 60.6569 64.3701 61.2911 64.364 62.1042C64.358 62.9173 63.7585 63.5416 62.9679 63.5376C62.1692 63.5316 61.5798 62.8974 61.5858 62.0843V62.0824ZM62.312 63.0803H62.64L62.646 62.2056H62.9216L63.4769 63.0883H63.8229L63.2596 62.2096C63.5734 62.2096 63.7786 61.983 63.7806 61.6629C63.7826 61.2871 63.5573 61.1003 63.0966 61.0983L62.3261 61.0923L62.312 63.0803ZM62.654 61.3488H63.0443C63.2535 61.3528 63.4567 61.4203 63.4547 61.645C63.4527 61.9034 63.2898 61.9531 63.0383 61.9511L62.648 61.9472L62.654 61.3468V61.3488Z" fill="#54565B"/>
<path d="M151.637 49.8516C145.853 49.8516 142.952 53.8813 140.033 57.909C137.116 61.9388 134.181 65.9705 128.338 65.9725H128.334C127.035 65.9725 125.882 65.7717 124.836 65.4178V65.4138C133.179 62.5769 134.354 49.8516 144.638 49.8516H151.637Z" fill="#00853F"/>
<path d="M98.0547 65.9725C103.839 65.9725 106.739 61.9427 109.659 57.915C112.576 53.8853 115.511 49.8536 121.353 49.8516H121.357C122.657 49.8516 123.809 50.0524 124.855 50.4062V50.4102C116.513 53.2471 115.338 65.9725 105.054 65.9725H98.0547Z" fill="#8DC63F"/>
<path d="M189.026 61.1047C190.207 62.3313 191.585 63.2816 193.416 63.5977L77.9141 63.5878C79.9902 63.3711 81.499 62.3711 82.7825 61.0451C83.6838 60.1206 84.4664 59.0352 85.255 57.9537C84.4664 56.8623 83.6778 55.7728 82.7825 54.8424C81.6117 53.6257 80.2598 52.6854 78.4633 52.3594L193.991 52.3753C191.865 52.5661 190.324 53.5721 189.022 54.914C188.386 55.578 187.801 56.3155 187.238 57.0809C187.014 57.3831 186.785 57.6933 186.562 58.0054C187.344 59.0869 188.133 60.1763 189.028 61.1067L189.026 61.1047Z" fill="#54565B"/>
<path d="M128.319 65.9725H120.906V65.9625C109.626 65.5868 109.448 49.8516 98.0156 49.8516H105.017C115.299 49.8516 116.474 62.5789 124.818 65.4138V65.4178H124.82C125.865 65.7717 127.019 65.9725 128.319 65.9725Z" fill="#00853F"/>
<path d="M121.359 49.8516H128.773V49.8615C140.053 50.2372 140.23 65.9725 151.663 65.9725H144.662C134.38 65.9725 133.205 53.2451 124.86 50.4102V50.4062H124.858C123.814 50.0524 122.659 49.8516 121.359 49.8516Z" fill="#8DC63F"/>
<path d="M127.725 61.2933C127.858 60.8321 127.979 60.6711 127.983 60.2616C127.987 59.6075 127.687 59.2496 127.269 59.1324C127.269 59.1324 126.961 59.4644 126.579 59.4365C126.579 59.4365 126.879 59.2974 127.033 59.0846C126.42 59.0986 125.887 58.856 125.985 58.7109C126.082 58.5697 126.526 58.4147 126.603 57.7228C126.683 57.0012 126.229 56.4744 126.229 56.4744C126.229 56.4744 126.237 56.361 126.526 56.6851C126.814 57.0091 126.876 57.6195 127.796 58.0071C128.649 58.367 128.961 57.9336 129.311 57.7069C128.379 57.5519 128.291 57.3332 128.031 56.9734C127.762 56.5976 127.983 56.0728 127.611 55.4485C127.178 54.7269 126.565 54.7706 126.086 54.9177C125.71 55.035 125.466 55.9793 125.466 55.9793C125.466 55.9793 124.746 55.9078 124.259 56.1901C123.541 56.6056 123.831 57.0867 123.831 57.0867L125.068 57.0966C125.356 57.0986 124.923 57.3749 124.557 57.371L123.469 57.361C123.392 58.0867 123.841 58.5578 123.841 58.5578C123.841 58.5578 124.509 58.5678 125.637 57.6374C124.829 58.6572 124.05 58.7845 124.05 58.7845C124.05 58.7845 124.022 58.9634 123.982 59.1085C123.821 59.4147 123.446 59.4783 123.446 59.4783L123.875 59.7606C123.875 59.7606 123.513 59.7248 123.398 59.683C123.235 60.0568 123.39 60.8699 123.39 60.8699L122.958 60.7486L123.046 59.8242C123.046 59.8242 122.503 59.9276 122.223 60.7685C121.573 60.0369 120.968 59.0628 120.968 58.027C120.968 56.0112 122.453 54.3293 124.43 53.9297C122.27 54.1802 120.594 55.9416 120.594 58.0787C120.594 60.3868 122.549 62.2575 124.959 62.2575C126.048 62.2575 127.043 61.8758 127.808 61.2436C127.78 61.2615 127.75 61.2794 127.721 61.2973" fill="white"/>
<path d="M90.0834 60.848H88.0938L89.0574 54.8203H91.047C92.6021 54.8203 93.8313 55.536 93.8313 57.204C93.8313 59.4584 92.3104 60.846 90.0834 60.846V60.848ZM90.9404 56.0092H90.2504L89.667 59.6333H90.357C91.6465 59.6333 92.417 58.6453 92.417 57.4226C92.417 56.4962 91.8517 56.0072 90.9404 56.0072V56.0092Z" fill="white"/>
<path d="M100.4 54.8203L99.428 60.848H98.0138L96.1046 56.7944C95.9275 58.1483 95.6982 59.5021 95.4769 60.848H94.125L95.0886 54.8203H96.5733L98.4201 58.8381C98.5871 57.4922 98.8265 56.1563 99.0397 54.8203H100.402H100.4Z" fill="white"/>
<path d="M105.839 60.8482H104.328L104.107 59.6434H102.029L101.419 60.8482H99.9688L103.159 54.8125H104.592L105.839 60.8482ZM103.964 58.5162L103.584 56.393L102.532 58.5162H103.964Z" fill="white"/>
<path d="M148.663 56.6051C148.415 56.2115 147.691 55.9769 147.257 55.9769C146.009 55.9769 145.18 57.0166 145.18 58.1955C145.18 59.0862 145.764 59.6547 146.665 59.6547C147.285 59.6547 147.894 59.4361 148.345 59.0166L148.655 60.1517C148.045 60.7203 147.214 60.9549 146.383 60.9549C144.828 60.9549 143.75 60.0205 143.75 58.456C143.75 56.3765 145.235 54.7344 147.373 54.7344C147.993 54.7344 148.876 54.9093 149.292 55.4242L148.665 56.6031L148.663 56.6051Z" fill="white"/>
<path d="M153.961 54.8281L153.776 55.9732H151.354L151.159 57.178H153.448L153.263 58.3231H150.974L150.753 59.7028H153.253L153.068 60.8558H149.188L150.151 54.8281H153.961Z" fill="white"/>
<path d="M157.516 58.3668L158.612 60.8558H156.995L156.128 58.5577H155.703L155.341 60.8558H153.953L154.917 54.8281H157.021C158.019 54.8281 158.966 55.186 158.966 56.3211C158.966 57.2217 158.401 58.0945 157.516 58.3648V58.3668ZM156.659 55.9295H156.12L155.88 57.4583H156.42C157.021 57.4583 157.542 57.2138 157.542 56.5418C157.542 56.0269 157.081 55.9295 156.659 55.9295Z" fill="white"/>
<path d="M163.964 54.8281L163.787 55.9633H162.276L161.49 60.8558H160.101L160.888 55.9633H159.367L159.552 54.8281H163.964Z" fill="white"/>
<path d="M165.953 54.8281L164.99 60.8558H163.602L164.565 54.8281H165.953Z" fill="white"/>
<path d="M170.711 54.8281L170.526 55.9732H168.237L167.998 57.4225H170.154L169.977 58.5676H167.81L167.448 60.8558H166.07L167.034 54.8281H170.711Z" fill="white"/>
<path d="M172.891 54.8281L171.927 60.8558H170.539L171.503 54.8281H172.891Z" fill="white"/>
<path d="M177.782 54.8281L177.597 55.9732H175.174L174.979 57.178H177.269L177.084 58.3231H174.794L174.573 59.7028H177.074L176.889 60.8558H173.008L173.971 54.8281H177.782Z" fill="white"/>
<path d="M179.771 60.8558H177.781L178.745 54.8281H180.735C182.29 54.8281 183.519 55.5438 183.519 57.2118C183.519 59.4662 181.998 60.8538 179.771 60.8538V60.8558ZM180.628 56.017H179.938L179.354 59.6411H180.044C181.336 59.6411 182.105 58.6531 182.105 57.4305C182.105 56.504 181.539 56.015 180.628 56.015V56.017Z" fill="white"/>
</svg>
