<svg width="200" height="80" viewBox="0 0 200 80" fill="none" xmlns="http://www.w3.org/2000/svg">
<mask id="mask0_375_3727" style="mask-type:luminance" maskUnits="userSpaceOnUse" x="6" y="14" width="188" height="53">
<path d="M194 14H6V66.7172H194V14Z" fill="white"/>
</mask>
<g mask="url(#mask0_375_3727)">
<path d="M147.038 66.6779C146.822 66.0575 146.548 65.4588 146.221 64.8894C145.308 63.3764 144.651 64.2979 144.258 62.8649C144.121 62.3822 144.148 60.8607 143.523 60.0257C142.528 58.693 141.814 58.3516 141.036 57.0571C141.036 57.0571 141.709 57.2227 142.13 57.3147C142.82 57.4682 143.085 57.6235 143.642 58.4168C143.921 58.8194 144.487 60.0293 144.487 60.0293C144.487 60.0293 145.486 59.8434 145.795 60.9594C145.879 61.1537 146.033 62.2558 146.038 62.7439C146.041 63.2322 146.77 63.42 147.27 63.4331C147.968 63.4526 149.432 63.4619 149.88 63.0043C149.925 62.9616 149.967 61.6894 149.203 61.069C148.225 60.273 147.645 60.5166 147.26 58.837C147.108 58.175 145.225 56.7753 144.073 56.1234C144.073 56.1234 146.293 54.5117 147.07 52.5094C147.981 50.1641 147.571 48.0456 147.698 48.1618C147.918 48.4733 148.367 50.2673 147.836 52.1756C147.758 52.4546 149.74 53.4469 150.845 53.4562C153.133 53.4757 153.258 52.5587 155.453 52.8201C155.343 52.5792 154.584 51.029 155.36 49.9613C155.372 49.9454 155.31 51.6353 156.077 52.6583C156.536 53.2766 157.187 53.7254 157.928 53.9352L159.258 59.569C159.258 59.569 159.866 61.9553 159.871 62.6156C159.876 63.276 160.242 63.4135 160.905 63.9595C161.555 64.4914 160.837 65.4018 161.184 66.5709L164.767 66.5449C164.692 66.3179 164.469 65.6279 164.375 65.1749C164.26 64.6272 163.688 63.8293 162.92 63.8348C161.835 63.8432 163.43 63.7548 162.125 61.4987C161.58 60.5548 161.775 59.5327 161.484 58.6948C160.966 57.2068 162.074 56.0452 161.784 55.4139C161.456 54.6912 160.897 54.2374 160.849 52.6471C160.833 52.0015 160.897 51.3565 161.04 50.7267L161.663 51.8919C162.434 52.1152 163.52 51.7673 165.919 51.0893C167.485 50.6467 168.928 50.6792 169 50.8504C169.093 51.0299 168.638 51.4195 168.093 52.012C166.52 53.7231 166.992 54.1685 166.992 54.1685L165.251 53.8561C165.251 53.8561 163.658 56.7799 165.82 57.7239C165.878 57.7491 167.914 56.2945 167.914 56.2945C168.174 55.3645 169.371 54.5498 169.371 54.5498C169.508 53.6199 171.803 51.1322 171.803 51.1322C172.159 50.717 172.359 50.191 172.371 49.6442C172.371 49.3456 171.886 49.2722 171.487 48.9495C171.437 48.5282 171.29 48.2772 170.708 48.1004C168.832 47.5313 167.816 47.6717 166.94 47.7889C167.775 46.818 168.392 45.7168 168.094 43.8244C167.753 41.6798 167.551 41.0678 166.599 39.7733C166.275 39.3269 163.77 37.8278 163.622 34.1506C163.622 34.1256 164.643 38.7867 166.861 38.7215C167.019 39.021 168.38 42.3159 168.38 42.3159L170.645 42.6004C170.645 42.6004 172.707 39.511 172.527 34.7709C172.527 34.7495 170.475 34.2798 170.475 34.2798L172.547 34.2157L172.931 31.7978C172.931 31.7978 173.879 30.373 173.523 29.6058C173.523 29.6058 173.022 28.3299 173.085 27.425C172.305 27.6974 172.612 30.0578 171.663 30.4623C171.663 30.4623 171.739 29.3463 171.734 28.5689C171.728 27.7913 171.385 27.5561 171.517 26.8102C171.648 26.0644 170.344 28.328 170.344 28.328L167.263 26.6233L188.683 22.9471L193.992 21.7697L188.525 22.3937L158.949 26.7015L156.234 27.0344C155.596 25.1837 154.353 24.9596 154.353 24.9596L154.557 26.9897L153.565 27.2585C153.565 27.2585 153.921 25.4729 153.546 24.6545C153.284 24.7475 152.457 24.8229 152.457 24.8229L153.44 24.2026C153.44 24.2026 152.58 24.0649 152.212 23.3907C152.12 23.0717 152.057 22.6783 152.057 22.6783C152.057 22.6783 150.275 22.3993 148.423 20.1618C151.007 22.2077 152.54 22.1836 152.54 22.1836C152.856 21.8291 153.096 21.4123 153.243 20.9597C153.39 20.5071 153.44 20.0288 153.392 19.5554L150.899 19.575C150.056 19.5815 149.068 18.9779 149.726 18.9723L152.56 18.9519C152.56 18.9519 153.222 17.8917 151.578 16.9812C150.464 16.3628 148.816 16.5162 148.816 16.5162C148.816 16.5162 148.259 14.4424 147.397 14.1857C146.303 13.862 144.896 13.7681 143.905 15.3528C143.052 16.7199 143.561 17.8731 142.941 18.7008C142.347 19.4922 141.802 20.0334 139.666 20.3747C140.47 20.8741 141.522 21.7651 143.482 20.9764C145.59 20.1274 145.734 18.7863 146.394 18.0767C147.054 17.3672 147.074 17.6118 147.074 17.6118C147.074 17.6118 146.033 18.7668 146.216 20.3515C146.393 21.872 147.414 22.2115 147.635 22.5221C147.856 22.8327 146.637 23.3739 145.235 23.3414C145.588 23.8064 146.274 24.1151 146.274 24.1151C145.4 24.1756 144.696 23.4465 144.696 23.4465C143.737 23.7069 143.051 24.4918 143.062 25.9277C143.072 27.3636 144.334 29.0803 144.056 30.6465C143.778 32.2125 142.619 34.9392 142.619 34.9392L139.431 35.9251C139.431 35.9251 137.154 35.9632 135.223 38.2155C133.694 38.291 130.253 38.2686 129.012 40.8605C127.567 43.8792 128.503 45.7735 128.533 49.7167C128.561 53.6599 127.959 54.6251 124.609 53.9798C124.688 55.6351 127.374 57.2431 129.2 56.195C132.26 54.4364 131.814 51.3061 132.413 45.57C132.413 45.57 132.97 49.6739 134.671 51.0299C136.373 52.3857 137.216 52.0826 136.498 54.3443C135.885 56.2768 135.531 56.474 137.015 57.4514C138.499 58.4288 140 60.5781 140.605 61.721C141.21 62.864 142.495 63.8906 142.389 64.6039C142.305 65.1815 142.145 66.3142 142.089 66.7141L147.038 66.6779Z" fill="#5A5B5D"/>
<path fill-rule="evenodd" clip-rule="evenodd" d="M135.141 62.8675C135.138 63.2085 135.237 63.5426 135.424 63.8275C135.611 64.1124 135.877 64.3354 136.191 64.4683C136.505 64.6012 136.85 64.638 137.185 64.5741C137.52 64.5102 137.828 64.3483 138.07 64.1091C138.313 63.87 138.479 63.5641 138.548 63.2301C138.617 62.8962 138.586 62.5494 138.458 62.2333C138.331 61.9172 138.112 61.6463 137.83 61.4545C137.548 61.2628 137.217 61.159 136.876 61.1563C136.42 61.1536 135.981 61.3321 135.655 61.6528C135.331 61.9736 135.145 62.4103 135.141 62.8675ZM135.471 62.8675C135.477 62.0416 136.078 61.4055 136.878 61.412C137.677 61.4185 138.261 62.063 138.257 62.8888C138.251 63.7147 137.648 64.3499 136.857 64.3443C136.065 64.3387 135.464 63.6933 135.471 62.8675ZM136.198 63.8811H136.527L136.534 62.9893H136.813L137.37 63.8858H137.716L137.151 62.9893C137.465 62.9893 137.672 62.7587 137.674 62.4313C137.674 62.05 137.45 61.8603 136.988 61.8565H136.215L136.201 63.8765L136.198 63.8811ZM136.541 62.1216H136.933C137.142 62.1216 137.345 62.1923 137.344 62.421C137.344 62.6833 137.178 62.7344 136.927 62.7327H136.535L136.541 62.1216Z" fill="#5A5B5D"/>
<path d="M108.969 33.9389C108.969 35.0993 109.301 36.2352 109.927 37.2118C110.553 38.1884 111.445 38.9646 112.498 39.4482C113.551 39.9318 114.721 40.1025 115.868 39.9399C117.015 39.7773 118.091 39.2884 118.969 38.5312L118.849 38.6084C119.035 37.9388 119.2 37.7062 119.205 37.1111C119.211 36.1625 118.796 35.6436 118.215 35.4725C118.215 35.4725 117.79 35.9542 117.259 35.9141C117.259 35.9141 117.676 35.7124 117.889 35.4036C117.039 35.425 116.299 35.0716 116.436 34.8615C116.573 34.6513 117.187 34.4318 117.294 33.4274C117.349 32.78 117.164 32.135 116.774 31.6159C116.774 31.6159 116.786 31.4522 117.187 31.9218C117.588 32.3914 117.673 33.2767 118.951 33.8375C120.135 34.3584 120.566 33.7324 121.052 33.4014C119.76 33.1782 119.638 32.8601 119.28 32.3375C118.909 31.7906 119.211 31.029 118.696 30.126C118.097 29.0798 117.245 29.1411 116.581 29.356C116.058 29.5243 115.724 30.8941 115.724 30.8941C115.724 30.8941 114.726 30.7909 114.052 31.2001C113.058 31.8009 113.457 32.5021 113.457 32.5021L115.173 32.5151C115.572 32.5207 114.974 32.9187 114.464 32.914L112.954 32.902C112.891 33.5263 113.077 34.1503 113.472 34.6373C113.472 34.6373 114.401 34.6532 115.962 33.3019C114.84 34.7814 113.763 34.9665 113.763 34.9665C113.763 34.9665 113.723 35.2242 113.67 35.4362C113.447 35.8807 112.927 35.9737 112.927 35.9737L113.523 36.3819C113.3 36.3617 113.079 36.3246 112.862 36.2713C112.635 36.8116 112.852 37.9908 112.852 37.9908L112.253 37.8132L112.376 36.4722C112.376 36.4722 111.622 36.6209 111.235 37.842C110.334 36.7837 109.494 35.3683 109.494 33.8663C109.494 32.4751 109.97 31.1258 110.844 30.0438C111.717 28.962 112.934 28.2129 114.293 27.9219C112.825 28.1006 111.473 28.8113 110.492 29.9198C109.511 31.0281 108.969 32.4578 108.969 33.9389Z" fill="#00853F"/>
<path d="M17.1439 26.8673C16.1613 26.3661 15.0773 26.0966 13.9748 26.0796C12.881 26.0796 11.4167 26.5176 11.4167 27.8308C11.4167 30.2831 16.6164 30.1297 16.6164 34.3779C16.6164 38.122 13.6879 39.4788 10.3433 39.4788C8.87806 39.4788 7.37198 39.1292 5.99219 38.6251L6.77958 36.0211C7.95975 36.568 9.20584 37.0721 10.5179 37.0721C11.9821 37.0721 13.4251 36.3281 13.4251 34.6847C13.4251 31.9265 8.2253 32.3645 8.2253 28.292C8.2253 25.0734 10.9793 23.6719 13.9088 23.6719C15.2422 23.6719 16.6192 23.8476 17.8653 24.3508L17.1439 26.8673Z" fill="#5A5B5D"/>
<path d="M20.0299 27.9392H22.9595L20.5545 39.2162H17.625L20.0299 27.9392ZM21.1014 23.0781H24.03L23.4181 25.8812H20.4885L21.1014 23.0781Z" fill="#5A5B5D"/>
<path d="M24.9487 29.4543C25.036 28.9726 25.1236 28.4688 25.2115 27.9431H28.0092L27.6154 30.0672H27.6591C28.1838 28.8406 29.6267 27.6808 30.9823 27.6808C31.3567 27.6727 31.7307 27.7093 32.0965 27.7897L31.4837 30.6577C31.1233 30.5433 30.7476 30.4844 30.3695 30.4828C28.2923 30.4828 27.2868 32.3428 26.9153 34.1609L25.8661 39.2192H22.9375L24.9487 29.4543Z" fill="#5A5B5D"/>
<path d="M50.6372 27.1692C49.457 26.4029 47.9918 26.0746 46.3966 26.0746C42.6826 26.0746 40.3408 28.9864 40.3408 32.5994C40.3408 35.0731 42.0455 37.0633 44.6473 37.0633C45.3474 37.0633 45.8061 37.0633 46.1561 36.9098L47.0086 32.8589H43.7726L44.2759 30.4511H50.4627L48.7106 38.7959C47.8145 39.1678 46.1106 39.4738 44.625 39.4738C40.1429 39.4738 37.1484 37.4157 37.1484 32.6849C37.1484 27.105 40.7994 23.6641 46.3076 23.6641C48.0132 23.6641 49.8053 23.9049 51.4014 24.5178L50.6372 27.1692Z" fill="#5A5B5D"/>
<path d="M53.0191 29.4543C53.1064 28.9725 53.1937 28.4688 53.2809 27.943H56.0795L55.6858 30.0671H55.7294C56.2541 28.8405 57.697 27.6808 59.0527 27.6808C59.427 27.6726 59.8012 27.7091 60.1669 27.7896L59.555 30.6576C59.1945 30.5433 58.8189 30.4843 58.4407 30.4829C56.3645 30.4829 55.359 32.3428 54.9875 34.161L53.9365 39.2191H51.0078L53.0191 29.4543Z" fill="#5A5B5D"/>
<path d="M65.8978 37.4882H65.8542C64.8486 38.7576 63.8429 39.4802 62.2254 39.4802C60.192 39.4802 58.75 38.342 58.75 36.2625C58.75 32.5425 62.9033 32.2552 65.6574 32.2552H66.6852C66.7584 31.9396 66.7878 31.6154 66.7725 31.2918C66.7725 30.1534 65.5487 29.8252 64.5208 29.8252C63.2311 29.8252 61.985 30.1534 60.8262 30.7012L61.2422 28.3577C62.4697 27.9156 63.7634 27.6864 65.0677 27.6797C67.3194 27.6797 69.4392 28.5111 69.4392 31.1605C69.4392 32.6709 68.325 37.0939 68.0622 39.218H65.5924L65.8978 37.4882ZM63.0342 37.3347C65.22 37.3347 65.8978 35.8245 66.3574 34.0073H65.3342C63.9135 34.0073 61.5523 34.2472 61.5523 36.1527C61.5477 36.9405 62.2914 37.3347 63.0342 37.3347Z" fill="#5A5B5D"/>
<path d="M72.21 29.5619C72.3409 28.883 72.4505 28.2925 72.4941 27.9419H75.3567L75.1599 29.0365H75.2035C76.0132 28.2925 77.1275 27.6797 78.3959 27.6797C80.6039 27.6797 82.0682 29.0588 82.0682 31.2918C82.0682 32.1454 81.85 33.0438 81.6968 33.7441L80.5166 39.2189H77.5852L78.6781 33.8985C78.8313 33.1321 79.0059 32.3659 79.0059 31.5335C79.0059 30.5924 78.3504 29.9572 77.4098 29.9572C75.3772 29.9572 74.6334 31.8618 74.262 33.5479L73.0549 39.2207H70.1328L72.21 29.5619Z" fill="#5A5B5D"/>
<path d="M83.1188 40.9255C84.2776 41.4072 85.3918 41.8015 86.6602 41.8015C89.7642 41.8015 90.2229 39.6337 90.9231 37.0725H90.8785C90.1356 38.4294 88.7151 39.218 87.0966 39.218C84.3649 39.218 83.1838 36.919 83.1838 34.4444C83.1838 31.0732 85.2386 27.6797 88.8896 27.6797C90.3752 27.6797 91.6223 28.4013 92.3251 29.5843L92.6539 27.9419H95.4738C95.381 28.2488 95.2546 28.7957 95.1024 29.5183L93.3057 37.9914C92.5842 41.6703 90.9843 44.0781 86.8784 44.0781C85.3482 44.0781 83.8143 43.8596 82.375 43.3118L83.1188 40.9255ZM89.2852 29.9563C87.1644 29.9563 86.246 32.7369 86.246 34.4201C86.246 35.778 86.793 36.9376 88.1031 36.9376C90.443 36.9376 91.405 34.4639 91.405 32.3184C91.4041 31.0072 90.6389 29.9563 89.2852 29.9563Z" fill="#5A5B5D"/>
<path d="M98.3532 34.4881C98.3532 36.5675 99.4674 37.3339 101.48 37.3339C102.681 37.3339 103.84 37.0279 104.933 36.5239L104.561 38.8488C103.425 39.1985 102.179 39.483 100.976 39.483C97.7414 39.483 95.5547 37.9068 95.5547 34.5541C95.5547 31.0509 98.2659 27.6797 101.961 27.6797C104.738 27.6797 106.574 29.1025 106.574 31.9706C106.567 32.8176 106.472 33.6617 106.29 34.489L98.3532 34.4881ZM103.709 32.4738C103.753 32.2206 103.775 31.9643 103.775 31.7074C103.775 30.4985 103.141 29.8242 101.918 29.8242C100.103 29.8242 99.318 30.9188 98.7488 32.4738H103.709Z" fill="#5A5B5D"/>
<path d="M148.552 28.3965C148.552 28.3965 144.889 31.7929 138.516 31.5584C138.675 31.7026 141.156 38.2795 143.809 43.0773C144.823 44.914 148.387 48.8776 151.294 49.39C154.2 49.9024 154.838 49.1817 155.301 50.5944C154.901 49.1622 155.822 49.3101 157.957 47.2697C160.093 45.2293 160.861 39.9516 160.688 37.861C160.237 32.3946 158.656 25.5433 158.71 25.3359C153.537 29.0716 148.554 28.3946 148.554 28.3946L148.552 28.3965Z" fill="#00853F"/>
<path d="M155.166 50.6415C154.895 49.812 154.616 49.8045 153.582 49.7609C152.806 49.7404 152.032 49.6636 151.267 49.5312C148.358 49.0188 144.732 45.0459 143.685 43.1487C141.773 39.691 139.983 35.3879 139.021 33.076C138.716 32.3394 138.471 31.7536 138.411 31.6578L138.133 31.4086L138.516 31.4224C144.755 31.6503 148.418 28.3294 148.452 28.2958L148.5 28.2512L148.564 28.2596C148.614 28.2662 153.558 28.8827 158.622 25.226L158.936 25L158.843 25.3618C158.843 25.4752 158.969 26.1002 159.122 26.886C159.601 29.3431 160.494 33.9168 160.82 37.8525C160.999 40.0137 160.183 45.3341 158.047 47.3745C157.503 47.8904 156.929 48.373 156.328 48.8198C155.45 49.4883 155.184 49.6902 155.428 50.5607L155.166 50.6415ZM138.746 31.7079C138.839 31.9107 138.992 32.2789 139.278 32.969C140.238 35.2754 142.024 39.5719 143.928 43.0129C144.949 44.8729 148.492 48.7574 151.315 49.255C152.068 49.3852 152.83 49.4608 153.593 49.4809C154.315 49.5088 154.761 49.5265 155.079 49.8789C155.146 49.3722 155.532 49.0774 156.163 48.5965C156.757 48.1564 157.322 47.6806 157.858 47.1718C159.933 45.1909 160.721 39.9914 160.551 37.872C160.228 33.9511 159.336 29.3877 158.856 26.9362C158.712 26.1969 158.637 25.8045 158.6 25.5859C153.826 28.9339 149.198 28.6 148.6 28.5395C148.144 28.9347 144.571 31.8409 138.746 31.7079Z" fill="#5A5B5D"/>
<path d="M148.6 28.3281L148.516 28.3537L155.151 50.4188L155.234 50.3934L148.6 28.3281Z" fill="#5A5B5D"/>
<path d="M143.806 43.0789C143.351 42.2578 142.902 41.3845 142.469 40.5001C142.645 40.5299 147.313 41.2785 151.258 37.5586L151.319 37.5C151.319 37.5 151.282 37.5604 151.275 37.541L155.195 50.3245C154.731 49.2783 153.987 49.8641 151.295 49.3945C148.388 48.8821 144.823 44.9184 143.811 43.0817L143.806 43.0789Z" fill="#8DC63F"/>
<path d="M155.068 50.3792C154.814 49.8045 154.504 49.7934 153.583 49.7571C152.807 49.737 152.033 49.6605 151.268 49.5283C148.36 49.0159 144.734 45.0429 143.686 43.1459C143.256 42.3693 142.806 41.4997 142.346 40.5605L142.227 40.3177L142.494 40.3624C142.688 40.3939 147.288 41.111 151.165 37.4553L151.226 37.3976C151.238 37.385 151.252 37.375 151.268 37.3684C151.283 37.3619 151.301 37.3588 151.319 37.3595H151.664L151.433 37.5808L155.329 50.2862L155.068 50.3792ZM142.709 40.6711C143.128 41.5165 143.537 42.3033 143.928 43.011C144.949 44.8709 148.492 48.7555 151.315 49.2531C152.068 49.3836 152.829 49.4588 153.592 49.4781C154.162 49.5004 154.559 49.5162 154.855 49.6902L151.208 37.7937C150.067 38.8358 148.723 39.6298 147.26 40.1257C145.797 40.6216 144.249 40.8086 142.709 40.6749V40.6711ZM151.238 37.4162L151.291 37.472L151.302 37.4105C151.281 37.4067 151.259 37.4093 151.238 37.4162Z" fill="#5A5B5D"/>
<path d="M148.552 28.3946C148.552 28.3946 153.535 29.0717 158.709 25.3359C158.665 25.5043 159.695 30.0342 160.328 34.6562C160.328 34.6562 156.557 38.5018 151.32 37.4983C151.312 37.5513 149.742 32.3629 148.539 28.4039L148.552 28.3946Z" fill="#8DC63F"/>
<path d="M153.057 37.8009C152.472 37.8008 151.889 37.7461 151.314 37.6372C151.222 37.6372 151.203 37.5898 151.114 37.3107C151.067 37.162 150.998 36.9444 150.913 36.672C150.745 36.127 150.51 35.3597 150.238 34.4688C149.787 32.9892 149.171 30.9618 148.41 28.4434L148.383 28.3504L148.513 28.2444L148.573 28.2518C148.623 28.2583 153.566 28.8749 158.631 25.2182L158.944 24.9922L158.851 25.354C158.851 25.4674 158.977 26.0932 159.129 26.881C159.475 28.6479 160.053 31.6137 160.467 34.6333L160.476 34.7012L160.429 34.7496C160.395 34.7868 157.383 37.8009 153.057 37.8009ZM151.426 37.3741C156.175 38.2427 159.731 35.0342 160.182 34.6037C159.77 31.6165 159.199 28.6908 158.857 26.9377C158.711 26.1937 158.636 25.8031 158.601 25.5846C154.085 28.7522 149.701 28.6247 148.733 28.5504C150.712 35.0882 151.305 37.0123 151.426 37.3741Z" fill="#5A5B5D"/>
<path d="M154.098 49.7248C154.005 48.0742 153.263 46.8298 152.486 45.511C151.919 44.5522 151.332 43.558 150.97 42.365C150.321 40.2176 150.658 38.06 150.673 37.9689L150.952 38.0135C150.952 38.0349 150.613 40.1999 151.241 42.284C151.593 43.4465 152.169 44.423 152.727 45.3687C153.524 46.7173 154.277 47.9904 154.378 49.709L154.098 49.7248ZM152.892 49.6318C152.667 48.3299 152.042 47.3133 151.382 46.2392C150.809 45.3093 150.217 44.3468 149.852 43.1359C149.202 40.9904 149.539 38.8319 149.553 38.7417L149.832 38.7854C149.832 38.8068 149.493 40.9737 150.121 43.0559C150.476 44.2314 151.059 45.1781 151.621 46.0932C152.297 47.1906 152.935 48.2275 153.169 49.5844L152.892 49.6318ZM151.565 49.4672C151.267 48.5242 150.773 47.7217 150.25 46.8717C149.677 45.9416 149.085 44.9791 148.721 43.7701C148.071 41.6227 148.407 39.4662 148.422 39.375L148.7 39.4197C148.7 39.441 148.363 41.606 148.992 43.6893C149.345 44.8637 149.928 45.8105 150.491 46.7256C151.023 47.5905 151.526 48.4071 151.834 49.3826L151.565 49.4672ZM150.095 49.1223C149.801 48.5196 149.472 47.9348 149.11 47.371C148.537 46.4411 147.946 45.4785 147.582 44.2696C146.932 42.1231 147.267 39.9655 147.282 39.8754L147.561 39.919C147.561 39.9404 147.225 42.1055 147.852 44.1895C148.206 45.3632 148.787 46.31 149.35 47.2241C149.719 47.7971 150.054 48.3918 150.351 49.005L150.095 49.1223ZM148.058 47.89L147.965 47.7337C147.394 46.8038 146.803 45.844 146.437 44.635C145.788 42.4886 146.125 40.332 146.14 40.2408L146.418 40.2855C146.418 40.3069 146.08 42.4718 146.709 44.5551C147.062 45.7287 147.644 46.6735 148.207 47.5878L148.3 47.7439L148.058 47.89ZM145.547 45.6208C145.439 45.352 145.352 45.1065 145.28 44.8685C144.63 42.7211 144.966 40.5636 144.98 40.4724L145.26 40.5171C145.26 40.5384 144.923 42.7034 145.55 44.7875C145.619 45.0181 145.703 45.2526 145.809 45.5167L145.547 45.6208ZM143.791 43.3563C143.67 42.393 143.674 41.418 143.803 40.4557L144.081 40.4993C143.959 41.4361 143.956 42.3844 144.072 43.3218L143.791 43.3563ZM151.386 37.6591L151.144 37.5216C151.563 36.7736 152.043 36.0616 152.579 35.3928C152.393 35.2663 151.386 34.5995 150.443 34.7046L150.412 34.4257C151.499 34.3039 152.605 35.0646 152.759 35.1752C152.872 35.0403 152.984 34.9111 153.098 34.7855C152.783 34.5224 151.718 33.7234 150.007 33.4055L150.057 33.1311C151.865 33.4668 152.961 34.3001 153.288 34.5801C153.411 34.4488 153.533 34.3224 153.659 34.2015C153.288 33.8435 152.088 32.8297 149.599 32.1062L149.677 31.8384C152.251 32.5871 153.476 33.624 153.861 34.0081C153.994 33.8841 154.125 33.765 154.257 33.6509C153.877 33.226 152.53 31.9565 149.197 30.8079L149.29 30.5439C152.708 31.7221 154.071 33.0111 154.473 33.4696C154.613 33.3543 154.75 33.2448 154.888 33.1413C154.675 32.8623 154.022 32.1388 152.49 31.234L152.471 31.2469L152.443 31.2051C151.278 30.5386 150.06 29.9717 148.8 29.5106L148.899 29.2493C149.576 29.5041 150.182 29.7581 150.726 30.0054C154.953 26.9365 159.123 27.3521 159.165 27.3577L159.134 27.6367C159.093 27.6321 155.109 27.234 151.017 30.1421C151.229 30.2426 151.431 30.3411 151.625 30.4397C155.568 27.6674 159.287 28.2803 159.324 28.2868L159.275 28.5658C159.24 28.5592 155.705 27.9818 151.903 30.5894C152.108 30.6964 152.301 30.8033 152.481 30.9066C156.158 28.4086 159.452 29.2112 159.484 29.2196L159.416 29.4902C159.385 29.4818 156.271 28.7286 152.748 31.0637C152.943 31.1799 153.12 31.2943 153.29 31.4041C156.716 29.1359 159.527 30.1021 159.645 30.1477L159.553 30.4109C159.526 30.4006 156.804 29.4688 153.541 31.5733C153.727 31.7017 153.893 31.8238 154.037 31.9398C157.247 29.8492 159.708 31.0293 159.812 31.0814L159.751 31.2061L159.759 31.3715C159.748 31.3715 158.495 31.4497 156.847 32.2606C155.321 33.0046 153.139 34.5493 151.39 37.6591H151.386ZM154.259 32.1202C154.573 32.3727 154.857 32.6597 155.108 32.9758C155.62 32.605 156.163 32.2784 156.73 31.9992C157.512 31.6088 158.342 31.3273 159.199 31.1623C158.358 30.9326 156.489 30.7011 154.262 32.1202H154.259ZM152.302 37.6517L152.07 37.4983C153.891 34.7223 155.912 33.3421 157.286 32.6736C158.783 31.9444 159.835 31.8774 159.879 31.8746L159.895 32.1536C159.855 32.1555 155.715 32.4577 152.305 37.6517H152.302ZM153.215 37.6452L152.996 37.4732C156.552 32.9255 159.879 32.6698 160.018 32.6615L160.036 32.9405C160.005 32.9413 156.689 33.2055 153.218 37.6452H153.215ZM154.125 37.6405L153.924 37.4472C157.546 33.6733 160.053 33.4548 160.16 33.4482L160.18 33.7272C160.158 33.7291 157.663 33.955 154.128 37.6405H154.125ZM155.034 37.6405L154.857 37.4248C158.534 34.4228 160.228 34.2424 160.299 34.2359L160.323 34.5149C160.311 34.5122 158.628 34.7046 155.036 37.635L155.034 37.6405Z" fill="#5A5B5D"/>
<path d="M143.562 34.6644L143.347 34.7286C143.301 34.5702 143.246 34.415 143.18 34.2637C143.081 34.1862 142.963 34.138 142.838 34.1241C142.683 34.099 142.523 34.1112 142.374 34.1594C142.273 34.1844 142.179 34.2295 142.096 34.2924C142.013 34.3554 141.944 34.4344 141.893 34.5249C141.851 34.6037 141.824 34.6902 141.816 34.7793C141.806 34.8683 141.816 34.9584 141.843 35.0439C141.872 35.1498 141.923 35.2486 141.992 35.334C142.046 35.4002 142.118 35.4488 142.2 35.4735C142.308 35.5027 142.421 35.5145 142.533 35.5089C142.637 35.5023 142.782 35.4894 142.97 35.4698C143.158 35.4503 143.278 35.4391 143.336 35.4353C143.464 35.4313 143.591 35.4464 143.715 35.4801C143.81 35.5062 143.898 35.5515 143.976 35.613C144.058 35.6817 144.127 35.763 144.183 35.8539C144.254 35.9661 144.308 36.0879 144.344 36.2157C144.416 36.4381 144.436 36.6742 144.403 36.9057C144.375 37.0719 144.317 37.2318 144.234 37.3782C144.159 37.5185 144.059 37.6443 143.939 37.7501C143.737 37.9195 143.5 38.0434 143.246 38.1137C143.058 38.1751 142.863 38.211 142.665 38.2207C142.461 38.2241 142.258 38.2035 142.058 38.1593C142.023 37.8115 141.95 37.4686 141.841 37.1363L142.056 37.0713C142.106 37.2441 142.168 37.4134 142.241 37.5781C142.36 37.6869 142.508 37.7601 142.667 37.7891C142.851 37.8316 143.044 37.8236 143.225 37.7659C143.375 37.7233 143.513 37.6457 143.628 37.5391C143.729 37.4457 143.798 37.3222 143.824 37.1866C143.847 37.0488 143.837 36.9076 143.795 36.7746C143.766 36.6663 143.713 36.5662 143.639 36.4826C143.575 36.4076 143.488 36.3552 143.393 36.3328C143.227 36.3027 143.059 36.2945 142.892 36.3087C142.564 36.3309 142.343 36.3402 142.242 36.3384C142.097 36.3371 141.952 36.3004 141.823 36.2315C141.703 36.1618 141.601 36.0665 141.522 35.9524C141.435 35.8262 141.369 35.6872 141.325 35.5404C141.262 35.3366 141.244 35.1218 141.268 34.91C141.285 34.7237 141.349 34.5447 141.454 34.3901C141.557 34.2498 141.688 34.1309 141.836 34.0404C141.989 33.9453 142.153 33.8704 142.325 33.8172C142.5 33.7635 142.681 33.7283 142.864 33.7121C143.027 33.6949 143.192 33.7024 143.353 33.7345L143.395 33.7968C143.408 33.9279 143.427 34.0562 143.451 34.1818C143.477 34.3073 143.517 34.4608 143.57 34.6617L143.562 34.6644Z" fill="#5A5B5D"/>
<path d="M145.685 32.8631L145.76 33.117C145.658 33.1475 145.557 33.1867 145.461 33.2342C145.436 33.2461 145.415 33.2644 145.401 33.2873C145.39 33.3032 145.386 33.3221 145.387 33.3412C145.388 33.4071 145.398 33.4724 145.417 33.5355C145.428 33.5867 145.455 33.6815 145.494 33.821C145.629 34.2954 145.702 34.5505 145.712 34.5864L146.059 35.746L146.224 36.2715C146.257 36.402 146.306 36.5285 146.365 36.6491C146.377 36.6717 146.396 36.6902 146.418 36.7021C146.445 36.7116 146.476 36.7151 146.504 36.7123C146.609 36.6941 146.712 36.6686 146.813 36.6361L146.89 36.8899C146.608 36.9643 146.309 37.0493 145.994 37.1448C145.716 37.2312 145.477 37.3122 145.267 37.3903L145.192 37.1355C145.366 37.0732 145.47 37.035 145.49 37.0211C145.517 37.0106 145.538 36.9915 145.552 36.9671C145.562 36.9505 145.566 36.9314 145.565 36.9123C145.565 36.889 145.543 36.797 145.504 36.6333C145.449 36.398 145.393 36.1841 145.335 35.9869L144.974 34.7844C144.86 34.4032 144.785 34.158 144.749 34.0489C144.701 33.8968 144.645 33.7474 144.581 33.6016C144.572 33.5794 144.556 33.5609 144.535 33.5494C144.515 33.5378 144.49 33.5339 144.468 33.5383C144.355 33.5555 144.246 33.5801 144.137 33.6117L144.062 33.3588C144.279 33.303 144.527 33.2342 144.805 33.1486C145.115 33.0532 145.408 32.9568 145.685 32.8594V32.8631Z" fill="#5A5B5D"/>
<path d="M146.125 32.9889L146.055 32.7518C146.093 32.7406 146.231 32.7006 146.467 32.6374C146.582 32.6067 146.746 32.5583 146.954 32.4942C147.133 32.4384 147.284 32.3882 147.411 32.3417C147.62 32.2664 147.791 32.2077 147.93 32.1659C148.13 32.0957 148.339 32.0556 148.55 32.0469C148.705 32.0521 148.854 32.1098 148.971 32.2105C149.111 32.3292 149.212 32.4877 149.26 32.6653C149.331 32.8906 149.331 33.1319 149.26 33.3572C149.174 33.6084 149.016 33.8285 148.805 33.9896C148.874 34.064 148.949 34.1374 149.029 34.2108C149.109 34.2844 149.16 34.3299 149.174 34.3457L149.22 34.3913L149.818 34.94L150.073 35.1753C150.259 35.3268 150.372 35.418 150.412 35.4431C150.443 35.465 150.479 35.4804 150.516 35.4887C150.574 35.4905 150.631 35.4817 150.685 35.4626L150.757 35.7026C150.494 35.7751 150.301 35.8291 150.182 35.8644C150.049 35.9062 149.913 35.9519 149.781 36.0011C149.75 35.9483 149.714 35.8996 149.67 35.8561L148.818 35.0079C148.575 34.7642 148.374 34.5764 148.213 34.4434C148.15 34.3851 148.078 34.3371 147.999 34.3011V34.1979C148.161 34.1661 148.314 34.0935 148.441 33.9868C148.536 33.8833 148.597 33.7536 148.616 33.6148C148.646 33.4454 148.634 33.2716 148.581 33.1079C148.542 32.9514 148.458 32.8101 148.338 32.7016C148.24 32.6131 148.117 32.5577 147.985 32.5434C147.85 32.5451 147.716 32.57 147.589 32.6169C147.508 32.6424 147.429 32.6754 147.354 32.7154C147.368 32.7862 147.411 32.9433 147.478 33.1851C147.629 33.7326 147.734 34.0974 147.789 34.2797C147.874 34.5671 147.969 34.8702 148.067 35.1929C148.191 35.5854 148.264 35.8079 148.285 35.8607C148.305 35.9321 148.337 36.0001 148.378 36.0625C148.391 36.0765 148.406 36.0878 148.423 36.096C148.451 36.1032 148.479 36.1047 148.506 36.1006C148.608 36.0827 148.708 36.0582 148.807 36.0272L148.883 36.281C148.589 36.3592 148.293 36.4428 147.993 36.5349C147.729 36.6168 147.483 36.6995 147.261 36.7795L147.186 36.5265C147.301 36.4919 147.413 36.4458 147.52 36.3889C147.536 36.3794 147.549 36.3647 147.555 36.347C147.561 36.318 147.561 36.2878 147.555 36.2587C147.536 36.1414 147.512 36.0253 147.479 35.9109L147.248 35.0646L146.93 33.9961L146.737 33.3915C146.7 33.2455 146.646 33.1039 146.576 32.9694C146.563 32.9527 146.545 32.9399 146.525 32.9322C146.391 32.9336 146.258 32.954 146.129 32.9926L146.125 32.9889Z" fill="#5A5B5D"/>
<path d="M143.108 34.5013L142.893 34.5682C142.846 34.4101 142.791 34.2547 142.726 34.1032C142.627 34.0265 142.508 33.9784 142.383 33.9637C142.227 33.9398 142.068 33.9523 141.919 33.9999C141.818 34.0247 141.723 34.0698 141.641 34.1327C141.559 34.1955 141.489 34.2749 141.439 34.3655C141.396 34.444 141.371 34.5301 141.361 34.6188C141.353 34.7076 141.361 34.7973 141.388 34.8826C141.416 34.9891 141.467 35.0883 141.536 35.1736C141.593 35.2379 141.664 35.2855 141.747 35.3113C141.855 35.3406 141.966 35.3528 142.079 35.3475C142.184 35.3401 142.33 35.3261 142.515 35.3075C142.699 35.2889 142.825 35.2759 142.886 35.2741C143.014 35.268 143.142 35.2823 143.266 35.3168C143.361 35.3432 143.449 35.3887 143.527 35.4507C143.609 35.5189 143.678 35.6002 143.735 35.6916C143.805 35.8039 143.859 35.9257 143.896 36.0534C143.967 36.2758 143.987 36.5119 143.954 36.7434C143.926 36.9096 143.869 37.0695 143.785 37.2159C143.709 37.3558 143.609 37.4816 143.49 37.5879C143.287 37.757 143.051 37.8813 142.796 37.9524C142.608 38.0132 142.413 38.0489 142.217 38.0584C142.012 38.062 141.808 38.0409 141.609 37.9952C141.573 37.6474 141.501 37.3045 141.393 36.9722L141.607 36.9061C141.658 37.0786 141.719 37.2475 141.792 37.4121C141.912 37.5212 142.059 37.5946 142.218 37.6241C142.402 37.6669 142.595 37.6591 142.775 37.6018C142.925 37.5591 143.063 37.4816 143.178 37.3758C143.28 37.2824 143.348 37.1583 143.374 37.0224C143.397 36.8845 143.388 36.7428 143.345 36.6095C143.316 36.5015 143.265 36.4014 143.192 36.3165C143.126 36.2426 143.039 36.1904 142.943 36.1669C142.778 36.1385 142.611 36.1313 142.444 36.1454C142.114 36.1669 141.897 36.1762 141.788 36.1733C141.645 36.174 141.506 36.1391 141.38 36.0716C141.254 36.0043 141.147 35.9065 141.07 35.7874C140.982 35.6622 140.915 35.5234 140.872 35.3764C140.809 35.1728 140.79 34.9582 140.816 34.7468C140.834 34.5598 140.899 34.3804 141.006 34.226C141.108 34.0854 141.238 33.9669 141.387 33.8772C141.539 33.7816 141.703 33.7066 141.875 33.6541C142.051 33.5995 142.233 33.5639 142.416 33.548C142.58 33.5309 142.744 33.5384 142.905 33.5703L142.946 33.6336C142.96 33.7647 142.978 33.8931 143.003 34.0176C143.026 34.1422 143.067 34.2966 143.121 34.4975L143.108 34.5013Z" fill="white"/>
<path d="M145.225 32.6981L145.301 32.9502C145.197 32.9825 145.097 33.022 145 33.0683C144.976 33.081 144.956 33.0992 144.941 33.1213C144.93 33.1378 144.927 33.157 144.928 33.1762C144.929 33.2422 144.939 33.3079 144.956 33.3715C144.969 33.4226 144.995 33.5175 145.034 33.6551C145.168 34.1294 145.242 34.3851 145.251 34.4206L145.599 35.5812L145.766 36.1057C145.799 36.2362 145.846 36.3628 145.906 36.4832C145.919 36.5052 145.936 36.5238 145.957 36.5371C145.986 36.5456 146.015 36.549 146.044 36.5473C146.149 36.5293 146.252 36.5042 146.355 36.472L146.43 36.725C146.149 36.7981 145.852 36.8834 145.536 36.9808C145.262 37.065 145.02 37.1464 144.807 37.2244L144.731 36.9696C144.833 36.9373 144.934 36.8992 145.032 36.8552C145.057 36.8446 145.08 36.8265 145.095 36.8032C145.103 36.7858 145.107 36.7665 145.106 36.7473C145.09 36.6531 145.07 36.5601 145.044 36.4684C144.99 36.2349 144.933 36.0192 144.875 35.8238L144.513 34.6205C144.401 34.2383 144.328 33.9936 144.289 33.8849C144.242 33.7325 144.186 33.583 144.121 33.4375C144.112 33.4171 144.097 33.3995 144.079 33.3873C144.057 33.3749 144.032 33.37 144.008 33.3733C143.896 33.3898 143.786 33.4142 143.678 33.4468L143.602 33.1938C143.82 33.138 144.066 33.0692 144.344 32.9846C144.654 32.8891 144.947 32.7928 145.224 32.6953L145.225 32.6981Z" fill="white"/>
<path d="M145.672 32.8231L145.602 32.5877C145.642 32.5739 145.778 32.5376 146.014 32.4733C146.129 32.443 146.291 32.395 146.5 32.3293C146.679 32.2753 146.833 32.2242 146.958 32.1768C147.165 32.1014 147.341 32.0438 147.478 32.001C147.678 31.9314 147.886 31.8916 148.097 31.8828C148.252 31.8872 148.4 31.9446 148.519 32.0456C148.659 32.164 148.76 32.3232 148.807 32.5014C148.876 32.7266 148.876 32.9679 148.807 33.1932C148.719 33.444 148.561 33.6638 148.351 33.8257C148.422 33.903 148.497 33.9765 148.575 34.046C148.658 34.1205 148.705 34.1651 148.72 34.1827L148.767 34.2264L149.364 34.7751C149.523 34.9212 149.608 34.9992 149.62 35.0113C149.806 35.1627 149.917 35.2516 149.957 35.2782C149.989 35.3007 150.024 35.3161 150.063 35.3238C150.119 35.3261 150.177 35.3173 150.231 35.2978L150.302 35.5377C150.037 35.6093 149.847 35.6642 149.728 35.6995C149.593 35.7423 149.458 35.7925 149.326 35.8371C149.296 35.7838 149.258 35.7347 149.215 35.6912L148.364 34.844C148.122 34.5993 147.92 34.4115 147.76 34.2785C147.697 34.2202 147.624 34.1722 147.545 34.1362V34.034C147.708 34.0011 147.861 33.9283 147.988 33.8219C148.083 33.7187 148.144 33.5889 148.164 33.4499C148.192 33.2802 148.181 33.1061 148.129 32.9421C148.089 32.7858 148.004 32.6446 147.886 32.5357C147.787 32.448 147.665 32.3925 147.534 32.3767C147.398 32.379 147.264 32.4045 147.137 32.452C147.055 32.4752 146.976 32.5064 146.901 32.545C146.916 32.6166 146.96 32.7729 147.026 33.0174C147.177 33.5643 147.282 33.9285 147.337 34.1102C147.422 34.3967 147.514 34.701 147.616 35.0234C147.74 35.4169 147.812 35.639 147.833 35.6921C147.854 35.763 147.886 35.8305 147.926 35.893C147.939 35.907 147.954 35.9181 147.972 35.9255C147.999 35.9338 148.027 35.9364 148.054 35.9329C148.157 35.9145 148.258 35.8894 148.357 35.8576L148.432 36.1125C148.138 36.1887 147.841 36.2751 147.543 36.3663C147.278 36.4481 147.032 36.5291 146.809 36.6109L146.733 36.357C146.849 36.3226 146.962 36.2768 147.069 36.2203C147.086 36.2109 147.097 36.1956 147.103 36.1776C147.111 36.1486 147.111 36.1181 147.103 36.0892C147.084 35.972 147.059 35.8559 147.027 35.7413L146.797 34.895L146.477 33.8284L146.284 33.223C146.247 33.0768 146.194 32.9353 146.124 32.8007C146.113 32.7826 146.094 32.7694 146.073 32.7636C145.939 32.7639 145.805 32.7837 145.677 32.8222L145.672 32.8231Z" fill="white"/>
<path d="M159.439 41.2246C159.383 41.2479 159.311 41.2804 159.218 41.3232C159.139 41.3574 159.067 41.4021 159.002 41.4562C158.944 41.5066 158.905 41.5757 158.892 41.6516C158.882 41.7333 158.889 41.8162 158.912 41.8952L159.024 42.2895C159.105 42.576 159.16 42.7693 159.192 42.868C159.224 42.9666 159.252 43.0493 159.275 43.1125C159.009 43.3374 158.722 43.5372 158.419 43.7096C158.137 43.8687 157.836 43.9936 157.525 44.0816C157.204 44.1732 156.868 44.2011 156.535 44.1634C156.21 44.1282 155.894 44.0269 155.607 43.8658C155.307 43.6942 155.044 43.4644 154.834 43.1897C154.598 42.8818 154.425 42.5304 154.326 42.1556C154.219 41.7884 154.182 41.4047 154.215 41.0237C154.245 40.6686 154.347 40.3233 154.514 40.0082C154.674 39.7039 154.895 39.4362 155.164 39.2224C155.445 38.9986 155.769 38.8341 156.115 38.7388C156.367 38.6626 156.629 38.6266 156.892 38.6318C157.106 38.6388 157.318 38.6699 157.525 38.7249L157.602 38.4403L157.89 38.3594L158.421 40.1264L158.129 40.2091C158.023 40.0267 157.907 39.8509 157.778 39.6827C157.657 39.5194 157.513 39.3746 157.35 39.2531C157.192 39.136 157.011 39.0541 156.818 39.0131C156.606 38.9723 156.386 38.9847 156.178 39.0495C155.94 39.1115 155.72 39.2312 155.538 39.3982C155.36 39.568 155.225 39.7777 155.145 40.0101C155.051 40.2788 155.008 40.5627 155.017 40.8471C155.027 41.1937 155.081 41.5375 155.178 41.8701C155.263 42.1786 155.387 42.4744 155.549 42.7498C155.693 42.9956 155.877 43.2142 156.097 43.3953C156.298 43.5635 156.536 43.6816 156.793 43.7402C157.061 43.7993 157.338 43.7891 157.601 43.7105C157.797 43.6576 157.983 43.5697 158.149 43.4511C158.272 43.3704 158.377 43.2657 158.459 43.1432C158.442 43.0133 158.418 42.8846 158.384 42.7582C158.349 42.6318 158.319 42.5239 158.291 42.4355L158.212 42.1566C158.189 42.0655 158.149 41.9793 158.096 41.9017C158.071 41.8665 158.038 41.8372 158.001 41.816C157.963 41.7948 157.921 41.7821 157.877 41.7789C157.763 41.7657 157.648 41.7689 157.535 41.7882C157.395 41.8087 157.286 41.8273 157.209 41.844L157.135 41.5827L159.364 40.9541L159.439 41.2246Z" fill="#5A5B5D"/>
<path d="M159.093 41.0334C159.037 41.0567 158.964 41.0901 158.871 41.1329C158.793 41.1665 158.721 41.2109 158.655 41.265C158.597 41.3156 158.558 41.3845 158.545 41.4602C158.535 41.542 158.542 41.6251 158.565 41.7039L158.677 42.0983C158.757 42.3855 158.813 42.5781 158.845 42.6776C158.877 42.7771 158.905 42.858 158.929 42.9212C158.662 43.1467 158.375 43.3467 158.072 43.5183C157.79 43.679 157.49 43.8055 157.178 43.895C156.857 43.986 156.521 44.0139 156.188 43.9767C155.861 43.9417 155.542 43.8401 155.254 43.6783C154.955 43.5071 154.691 43.2775 154.481 43.0032C154.246 42.6948 154.075 42.3435 153.975 41.9689C153.868 41.6019 153.83 41.2181 153.863 40.8372C153.894 40.4819 153.996 40.1366 154.163 39.8217C154.323 39.5169 154.543 39.2488 154.812 39.0349C155.094 38.8114 155.418 38.6472 155.763 38.5522C156.016 38.4755 156.278 38.4394 156.541 38.4453C156.755 38.4521 156.966 38.4833 157.173 38.5382L157.251 38.2527L157.538 38.1719L158.07 39.9388L157.777 40.0216C157.67 39.8395 157.554 39.6638 157.428 39.4952C157.306 39.3318 157.16 39.187 156.997 39.0656C156.839 38.9488 156.658 38.8674 156.467 38.8266C156.254 38.7849 156.034 38.797 155.827 38.8619C155.588 38.9246 155.368 39.0446 155.186 39.2116C155.009 39.3812 154.874 39.591 154.794 39.8235C154.7 40.0921 154.656 40.376 154.666 40.6604C154.675 41.007 154.729 41.3509 154.827 41.6834C154.911 41.9919 155.036 42.2878 155.198 42.5632C155.341 42.8091 155.526 43.0276 155.745 43.2086C155.948 43.3762 156.186 43.4942 156.441 43.5537C156.709 43.6128 156.987 43.6023 157.249 43.523C157.446 43.4706 157.631 43.3829 157.797 43.2644C157.92 43.1834 158.025 43.0788 158.107 42.9565C158.092 42.8266 158.066 42.6979 158.032 42.5716C157.997 42.4442 157.969 42.3364 157.939 42.248L157.86 41.9689C157.837 41.8776 157.797 41.7911 157.744 41.7132C157.719 41.6781 157.687 41.649 157.649 41.628C157.611 41.6069 157.569 41.5945 157.526 41.5914C157.412 41.5778 157.296 41.5809 157.184 41.6007C157.043 41.6212 156.935 41.6398 156.857 41.6565L156.783 41.3942L159.012 40.7665L159.093 41.0334Z" fill="white"/>
<path d="M82.3672 59.7891L107.062 66.616L105.353 60.5823L109.91 56.2802L85.216 49.4531L82.3672 59.7891Z" fill="#5A5B5D"/>
<path d="M105.716 65.4049L84.6484 59.5842L87.0626 50.8125L87.1972 50.8497L108.132 56.638L104.215 60.2751L105.716 65.4049ZM84.9892 59.3851L105.308 65.0032L103.9 60.1831L107.578 56.7691L87.2586 51.1511L84.9892 59.3851Z" fill="white"/>
<path d="M98.9778 61.3207L82.3672 59.7908L84.2326 53.0234L98.9778 61.3207Z" fill="#5A5B5D"/>
<path d="M42.5509 59.6953L17.8565 66.5224L19.5651 60.4885L15.0078 56.1865L39.7021 49.3594L42.5509 59.6953Z" fill="#5A5B5D"/>
<path d="M19.4446 65.279L20.9033 60.1279L16.9766 56.4432L37.9299 50.7266L40.3961 59.5614L40.2614 59.5977L19.4446 65.279ZM17.5309 56.5818L21.2181 60.0404L19.8476 64.8763L40.0525 59.3634L37.7312 51.0641L17.5309 56.5818Z" fill="white"/>
<path d="M25.9453 61.2279L42.5558 59.6982L40.6904 52.9297L25.9453 61.2279Z" fill="#5A5B5D"/>
<path d="M98.91 61.2285C74.5063 55.0255 50.2837 55.0255 25.88 61.2285C24.7038 56.9189 23.5276 52.61 22.3516 48.3017C49.0524 41.4619 75.7499 41.4619 102.444 48.3017C101.265 52.61 100.087 56.9189 98.91 61.2285Z" fill="#5A5B5D"/>
<path d="M98.1729 59.982L98.0485 59.9532C73.3495 54.2905 51.3433 54.2505 26.6731 59.8258L26.5477 59.8537L26.5097 59.7319C25.9377 57.9138 25.466 56.1468 25.0101 54.4263C24.5542 52.7058 24.0815 50.9435 23.5142 49.1366L23.4688 48.9933L23.6154 48.9589C37.8117 45.5942 50.2318 44.0234 62.6594 44.0234H63.0382C75.0162 44.0542 87.1364 45.5607 101.169 48.7663L101.316 48.8008L101.27 48.945C100.701 50.7519 100.215 52.6035 99.744 54.3947C99.2732 56.1858 98.7839 58.0449 98.2119 59.8592L98.1729 59.982ZM62.0938 55.4251H62.5999C74.1378 55.4642 85.7147 56.847 97.9854 59.6528C98.5379 57.8858 99.0142 56.0743 99.471 54.323C99.9279 52.5719 100.4 50.7724 100.957 49.0054C72.9995 42.6378 51.3433 42.6917 23.8216 49.1914C24.3722 50.9583 24.8309 52.6807 25.2747 54.3509C25.7185 56.0212 26.1801 57.7556 26.7325 59.5217C38.979 56.7671 50.554 55.4251 62.0938 55.4251Z" fill="white"/>
<path d="M35.3111 56.2124L35.3222 55.887C35.4176 55.8591 35.529 55.8237 35.6564 55.7809C35.7573 55.7499 35.8554 55.7107 35.9498 55.6637C36.0232 55.627 36.0908 55.5797 36.1504 55.5233C36.1718 55.5002 36.1868 55.472 36.1944 55.4414C36.2018 55.4108 36.2014 55.3788 36.1932 55.3485C36.1882 55.3236 36.1402 55.1733 36.0492 54.8974L35.6621 53.7341L33.3091 54.1832C33.2368 54.3692 33.1624 54.5775 33.0872 54.8146C33.012 55.0518 32.9535 55.2341 32.9127 55.3596C32.8725 55.4816 32.8396 55.6058 32.8142 55.7316C32.7911 55.8171 32.7807 55.9055 32.7836 55.9938C32.8031 56.098 32.9025 56.165 33.0817 56.1957C33.2972 56.2279 33.5162 56.2279 33.7317 56.1957L33.7205 56.5212L31.1484 57.0131L31.1596 56.6877C31.2649 56.6565 31.3679 56.6179 31.4678 56.5724C31.5781 56.5255 31.6811 56.4628 31.7733 56.3863C31.8767 56.2985 31.9701 56.1997 32.0519 56.0915C32.1554 55.9426 32.2387 55.7806 32.2998 55.6098C32.6799 54.6426 33.0938 53.5672 33.5413 52.3837C33.9888 51.2001 34.384 50.1638 34.727 49.2747L35.1049 49.2031L37.0985 54.8407C37.1326 54.9417 37.1838 55.0361 37.2499 55.1197C37.3164 55.1976 37.3983 55.2609 37.4903 55.3057C37.579 55.3422 37.6732 55.3633 37.7689 55.368C37.8661 55.3784 37.9644 55.3768 38.0613 55.3634L38.0503 55.6897L35.3111 56.2124ZM35.52 53.3509L34.5998 50.8129L33.4948 53.7377L35.52 53.3509Z" fill="#5A5B5D"/>
<path d="M45.7762 47.7578L45.6026 49.5025L45.2451 49.549C45.2012 49.2418 45.0882 48.9485 44.9145 48.6915C44.7511 48.4582 44.5719 48.34 44.3769 48.3354C44.2766 48.3354 44.1605 48.3409 44.0278 48.3512C43.895 48.3614 43.7427 48.3781 43.5709 48.4005L42.4121 48.5502L42.1335 51.3867L42.9126 51.2862C43.0838 51.2655 43.2516 51.2232 43.4122 51.1606C43.5722 51.0926 43.7136 50.9871 43.8245 50.8529C43.9085 50.744 43.9772 50.6242 44.0287 50.4967C44.1011 50.3353 44.1538 50.1657 44.1857 49.9917L44.5431 49.9452L44.2738 52.6831L43.9164 52.7296C43.9164 52.6905 43.9164 52.6459 43.9117 52.5938C43.9096 52.5378 43.9046 52.4819 43.8969 52.4265C43.8832 52.3243 43.8637 52.2231 43.8383 52.1232C43.8214 52.0337 43.7861 51.9489 43.7344 51.874C43.6417 51.7608 43.5116 51.6846 43.3676 51.6592C43.2035 51.6354 43.0368 51.6354 42.8727 51.6592L42.0955 51.7587L41.8532 54.2027C41.8498 54.2293 41.8481 54.256 41.8485 54.2827C41.8485 54.3094 41.8504 54.3361 41.8541 54.3626C41.8608 54.4265 41.8835 54.4876 41.92 54.5403C41.9633 54.5952 42.0207 54.6374 42.0862 54.6621C42.1878 54.6887 42.2923 54.703 42.3973 54.7049C42.5208 54.7138 42.6449 54.7156 42.7687 54.7105L42.7334 55.035L39.7891 55.4154L39.8253 55.0899C39.9228 55.0713 40.048 55.0443 40.2022 55.01C40.3096 54.9916 40.4143 54.9603 40.5142 54.9169C40.6107 54.8677 40.6903 54.7906 40.7426 54.6956C40.7917 54.601 40.8213 54.4977 40.8299 54.3914L41.3359 49.3082C41.3359 49.2756 41.3359 49.2439 41.3406 49.2151C41.3412 49.184 41.3397 49.153 41.3359 49.1221C41.3298 49.0649 41.3101 49.0101 41.2784 48.9622C41.2355 48.9099 41.1774 48.8726 41.1122 48.8552C41.0077 48.8198 40.8991 48.7979 40.7891 48.7901C40.6725 48.7771 40.5553 48.7712 40.438 48.7725L40.4734 48.447L45.7762 47.7578Z" fill="#5A5B5D"/>
<path d="M48.0072 53.9279L47.9654 54.2412C47.7459 54.3602 47.5196 54.4661 47.2875 54.5584C47.1451 54.6144 46.9963 54.6529 46.8446 54.6728C46.5895 54.6975 46.3918 54.6501 46.2513 54.5305C46.1818 54.4718 46.1247 54.3997 46.0835 54.3186C46.0421 54.2375 46.0174 54.1489 46.0109 54.058C46.0047 53.9809 46.0047 53.9035 46.0109 53.8265C46.0154 53.7446 46.0266 53.6405 46.0433 53.5177L46.345 51.4299C46.3599 51.3155 46.3721 51.1928 46.384 51.0626C46.3943 50.953 46.3943 50.8429 46.384 50.7333C46.3664 50.5539 46.3247 50.4376 46.2605 50.3846C46.1965 50.3316 46.0749 50.3139 45.8891 50.3316C45.7948 50.344 45.7016 50.3646 45.6107 50.393C45.4964 50.4274 45.4101 50.4552 45.3516 50.4776L45.3925 50.1633C45.599 50.0421 45.8144 49.9367 46.0368 49.848C46.1853 49.7853 46.3414 49.7422 46.5011 49.7197C46.762 49.6936 46.9579 49.7364 47.0888 49.8499C47.2255 49.9753 47.3069 50.1499 47.3153 50.3353C47.32 50.4143 47.32 50.4935 47.3153 50.5725C47.3125 50.674 47.3032 50.7752 47.2875 50.8756L46.9821 52.9644C46.9626 53.0918 46.9467 53.2165 46.9356 53.3364C46.9241 53.4355 46.9218 53.5354 46.9291 53.6349C46.9467 53.8209 46.9997 53.9381 47.0879 53.9967C47.2116 54.0618 47.3535 54.0834 47.4909 54.058C47.5777 54.0474 47.6636 54.0306 47.7481 54.0078C47.8369 53.9899 47.9236 53.963 48.0072 53.9279ZM47.7369 47.7676C47.757 47.9429 47.711 48.1193 47.6079 48.2624C47.5607 48.3322 47.4985 48.3907 47.4259 48.4335C47.3533 48.4764 47.2721 48.5024 47.1882 48.5098C47.1082 48.5177 47.0275 48.508 46.9514 48.4818C46.8754 48.4554 46.8061 48.413 46.748 48.3573C46.622 48.2497 46.5427 48.0973 46.527 47.9322C46.508 47.7619 46.5548 47.5909 46.658 47.4542C46.7038 47.3879 46.7632 47.3323 46.8325 47.2912C46.9017 47.25 46.9791 47.2245 47.0591 47.2161C47.142 47.205 47.2264 47.2118 47.3064 47.236C47.3865 47.2602 47.4605 47.3013 47.5234 47.3566C47.5842 47.4077 47.6344 47.4703 47.671 47.5408C47.7077 47.6114 47.73 47.6884 47.7369 47.7676Z" fill="#5A5B5D"/>
<path d="M53.415 53.4761L53.3648 53.7886C53.0845 53.9244 52.8659 54.0245 52.7093 54.089C52.5563 54.1523 52.3943 54.1909 52.2292 54.2034C51.9729 54.222 51.7757 54.1693 51.6378 54.0453C51.57 53.9849 51.5149 53.9113 51.4759 53.8293C51.4368 53.7472 51.4144 53.6582 51.4102 53.5673C51.4042 53.4893 51.4042 53.4109 51.4102 53.3329C51.4177 53.2464 51.4306 53.147 51.452 53.0279L51.7965 51.2005C51.8216 51.0601 51.8411 50.9336 51.8532 50.8201C51.865 50.7301 51.8692 50.6393 51.8653 50.5486C51.8634 50.3658 51.7977 50.1895 51.6795 50.0501C51.6193 49.9901 51.5461 49.9448 51.4655 49.9178C51.3851 49.8909 51.2994 49.883 51.2153 49.8948C50.9864 49.9217 50.7674 50.0041 50.5774 50.1347C50.3291 50.296 50.1125 50.5014 49.9385 50.741L49.373 54.328L48.4779 54.3931L48.972 51.2265C48.983 51.1485 48.9979 51.0349 49.0174 50.8871C49.0361 50.7694 49.0429 50.6501 49.0379 50.5309C49.0248 50.3512 48.9858 50.233 48.9208 50.1766C48.8549 50.1199 48.7351 50.0985 48.5494 50.1114C48.4589 50.1211 48.3696 50.1398 48.2829 50.1673C48.1752 50.1989 48.0916 50.2249 48.0312 50.2454L48.0814 49.9329C48.291 49.8189 48.5082 49.7194 48.7314 49.6353C48.8889 49.5747 49.0537 49.5353 49.2216 49.5182C49.4761 49.4996 49.6618 49.5554 49.7788 49.6855C49.9088 49.8434 49.9841 50.0392 49.9933 50.2436H50.0221C50.2883 49.9875 50.5767 49.7557 50.8838 49.5507C51.1423 49.3919 51.4362 49.3002 51.739 49.2838C51.8679 49.2641 51.9996 49.2726 52.125 49.3085C52.2504 49.3445 52.3666 49.4071 52.4657 49.4921C52.5648 49.577 52.6443 49.6825 52.6991 49.8011C52.7537 49.9197 52.7822 50.0487 52.7826 50.1793C52.7826 50.237 52.7826 50.3402 52.7826 50.4891C52.776 50.638 52.7586 50.7862 52.7307 50.9326L52.427 52.5034C52.4053 52.6082 52.3858 52.7281 52.3685 52.8634C52.3523 52.9667 52.3461 53.0713 52.35 53.1758C52.3629 53.3617 52.4121 53.4799 52.4966 53.5395C52.6183 53.6074 52.7593 53.6322 52.8968 53.6101C52.9847 53.6004 53.0716 53.5837 53.1568 53.5598C53.245 53.5391 53.3313 53.5111 53.415 53.4761Z" fill="#5A5B5D"/>
<path d="M57.627 50.0127C57.6464 50.3345 57.5451 50.6519 57.3429 50.9028C57.0983 51.1834 56.7859 51.3967 56.4357 51.5221C56.1453 51.6422 55.8472 51.7425 55.5434 51.8225C55.2426 51.9025 54.9085 51.9719 54.5415 52.0308C54.5619 52.5379 54.6708 52.9214 54.8683 53.1811C54.9646 53.3092 55.0918 53.4105 55.2381 53.4756C55.3843 53.5406 55.5447 53.5674 55.704 53.5531C56.0035 53.547 56.2943 53.4519 56.5397 53.2797C56.8124 53.0738 57.0474 52.8221 57.2342 52.5357L57.5128 52.7273C57.2839 53.1153 56.971 53.4472 56.5972 53.6982C56.248 53.937 55.8395 54.0739 55.4171 54.0934C54.8501 54.1158 54.4109 53.9738 54.0995 53.6675C53.7882 53.3613 53.6207 52.9164 53.5972 52.333C53.5797 51.9393 53.6284 51.5454 53.741 51.1678C53.8519 50.7966 54.0262 50.4477 54.2564 50.1364C54.4816 49.8282 54.7689 49.5707 55.0996 49.3803C55.443 49.1834 55.8301 49.075 56.2258 49.0651C56.6876 49.0465 57.033 49.1268 57.2621 49.3059C57.373 49.3878 57.4636 49.4942 57.5268 49.6167C57.5901 49.7392 57.6244 49.8748 57.627 50.0127ZM56.7393 49.93C56.7396 49.8287 56.7174 49.7286 56.6743 49.637C56.6426 49.5732 56.5942 49.5191 56.5341 49.4808C56.4776 49.4461 56.4143 49.4242 56.3484 49.4166C56.2828 49.4092 56.2167 49.4071 56.1506 49.4101C55.7669 49.425 55.4208 49.65 55.1125 50.0852C54.7888 50.561 54.5966 51.1142 54.5554 51.6885C54.7782 51.6476 55.0293 51.5921 55.3085 51.5221C55.5498 51.4662 55.7827 51.3787 56.0012 51.2617C56.2402 51.1329 56.4384 50.9396 56.5732 50.7036C56.6978 50.4657 56.7553 50.1982 56.7393 49.93Z" fill="#5A5B5D"/>
<path d="M62.1189 49.7463C62.1187 49.8462 62.1072 49.9458 62.0844 50.043C62.0647 50.1383 62.0283 50.2293 61.9767 50.3118C61.9283 50.3904 61.8653 50.4589 61.791 50.5136C61.6834 50.57 61.562 50.5949 61.441 50.5857C61.3199 50.5764 61.2038 50.5335 61.1058 50.4615C61.0652 50.4251 61.0326 50.381 61.0095 50.3315C60.9866 50.2821 60.9738 50.2286 60.9721 50.1742C60.9743 50.059 60.9976 49.9452 61.0408 49.8384C61.0872 49.7148 61.1336 49.5911 61.1857 49.4664C61.1228 49.4717 61.0607 49.483 60.9999 49.4999C60.8898 49.5306 60.7834 49.5731 60.6823 49.6264C60.5332 49.7056 60.3921 49.799 60.2608 49.9054C60.0794 50.0538 59.9122 50.2188 59.7612 50.3983L59.0259 53.8559L58.1289 53.8662L58.7947 50.7359C58.8104 50.6587 58.8318 50.5424 58.8606 50.388C58.8845 50.2754 58.8985 50.1609 58.9024 50.0458C58.9024 49.8654 58.8689 49.7455 58.8095 49.685C58.7501 49.6245 58.6238 49.592 58.4437 49.5975C58.3531 49.6013 58.2632 49.6144 58.1753 49.6366C58.0666 49.6617 57.9822 49.6831 57.9219 49.6998L57.9905 49.3911C58.204 49.2892 58.4247 49.2032 58.6507 49.1335C58.8108 49.0822 58.9769 49.0528 59.1447 49.0461C59.401 49.0461 59.5843 49.114 59.6944 49.2498C59.8049 49.3883 59.8616 49.5966 59.8652 49.8766H59.894C60.1673 49.6263 60.4544 49.3915 60.7539 49.1735C60.9335 49.0449 61.1477 48.9736 61.3685 48.9689C61.4693 48.9674 61.5699 48.9792 61.6675 49.0042C61.7587 49.0258 61.8432 49.0696 61.9136 49.1316C61.9836 49.1955 62.038 49.2747 62.0723 49.3632C62.1103 49.4872 62.126 49.6168 62.1189 49.7463Z" fill="#5A5B5D"/>
<path d="M66.7534 54.0978C66.4151 54.0877 66.0818 54.0135 65.771 53.8792C65.4698 53.7498 65.1996 53.5576 64.9781 53.3156C64.7474 53.0598 64.5708 52.7599 64.459 52.434C64.3342 52.0643 64.2806 51.6742 64.3012 51.2845C64.3181 50.7032 64.444 50.1303 64.6726 49.5957C64.8897 49.0871 65.1929 48.6199 65.5685 48.2146C65.9304 47.8276 66.3658 47.5169 66.849 47.3005C67.3291 47.0798 67.8541 46.975 68.3821 46.9945C68.7388 47.0008 69.0925 47.061 69.4313 47.173C69.6943 47.2593 69.9421 47.3864 70.1658 47.5497L70.4443 47.2316L70.8288 47.2455L70.2234 49.6636L69.8287 49.6496L69.8361 49.4571C69.8458 49.2042 69.834 48.951 69.8009 48.7001C69.7708 48.4694 69.697 48.2465 69.5836 48.0435C69.4743 47.8512 69.3169 47.6909 69.1268 47.5786C68.8936 47.4506 68.632 47.3841 68.3663 47.3851C67.9776 47.3697 67.5928 47.4665 67.2576 47.6641C66.9039 47.8696 66.5957 48.1449 66.3513 48.4732C66.0739 48.8472 65.8605 49.2649 65.72 49.7091C65.5539 50.1978 65.4601 50.7082 65.4414 51.2241C65.4166 51.906 65.5639 52.4669 65.8833 52.9065C66.0333 53.1183 66.2319 53.2912 66.4622 53.4106C66.6925 53.53 66.9481 53.5924 67.2074 53.5928C67.6736 53.611 68.1337 53.4808 68.5213 53.2208C68.9385 52.9441 69.2842 52.5721 69.5297 52.1355L69.8687 52.3307C69.4408 53.0053 68.9738 53.475 68.4675 53.7397C67.9373 54.0075 67.3462 54.131 66.7534 54.0978Z" fill="#5A5B5D"/>
<path d="M74.9244 53.8562L74.8316 54.1585C74.5353 54.2514 74.306 54.3203 74.1416 54.3612C73.9817 54.4019 73.8161 54.4168 73.6514 54.4049C73.3951 54.3863 73.2094 54.3057 73.0943 54.163C73.0357 54.0934 72.9917 54.0126 72.9648 53.9256C72.938 53.8385 72.929 53.7469 72.9383 53.6563C72.944 53.5782 72.9561 53.5007 72.9745 53.4247C72.9975 53.3247 73.0257 53.226 73.059 53.129L73.6588 51.3703C73.7046 51.2358 73.7417 51.1119 73.7703 50.9983C73.7945 50.911 73.8117 50.8216 73.8213 50.7314C73.8441 50.5496 73.8031 50.3655 73.7052 50.2106C73.6542 50.1425 73.5881 50.0871 73.5119 50.0488C73.4359 50.0106 73.3521 49.9906 73.2669 49.9902C73.0339 49.982 72.8026 50.0332 72.5947 50.1391C72.3307 50.2662 72.0897 50.4366 71.8816 50.6431L70.8092 54.111L69.9141 54.045L71.7924 47.9666L71.8473 47.7806C71.8624 47.7277 71.8721 47.6736 71.8761 47.6188C71.8881 47.5267 71.8746 47.4331 71.8371 47.3481C71.8033 47.2819 71.7498 47.2279 71.6838 47.1938C71.6066 47.155 71.5235 47.1294 71.4378 47.1184C71.3329 47.1007 71.2279 47.0812 71.123 47.0608L71.2113 46.7734L73.0023 46.7985L73.0451 46.8738L72.0376 50.1353H72.0562C72.3457 49.9269 72.6545 49.7466 72.9782 49.5968C73.2598 49.4768 73.5667 49.4285 73.8715 49.4564C74.0019 49.4555 74.131 49.4828 74.2499 49.5364C74.369 49.5901 74.4749 49.6688 74.5607 49.7673C74.6465 49.8657 74.7101 49.9816 74.747 50.1068C74.784 50.2322 74.7935 50.364 74.7749 50.4933C74.7641 50.596 74.7479 50.6982 74.7266 50.7993C74.6981 50.9457 74.6593 51.0898 74.6105 51.2308L74.0942 52.7439C74.0618 52.8444 74.0256 52.9607 73.9876 53.0908C73.9552 53.1906 73.9333 53.2935 73.9216 53.3977C73.9086 53.5837 73.9393 53.7074 74.0145 53.779C74.1253 53.8638 74.2613 53.9086 74.4007 53.9064C74.4888 53.9097 74.577 53.9057 74.6645 53.8944C74.7519 53.8885 74.8388 53.8758 74.9244 53.8562Z" fill="#5A5B5D"/>
<path d="M80.0192 51.9822C79.9769 52.367 79.8715 52.7422 79.7071 53.0926C79.548 53.4419 79.3236 53.7577 79.046 54.0226C78.7701 54.2895 78.4428 54.4974 78.0841 54.6336C77.6909 54.7774 77.2688 54.8242 76.8537 54.7702C76.3251 54.7133 75.9141 54.4962 75.6207 54.1193C75.3273 53.7424 75.2118 53.2647 75.2743 52.6861C75.3531 51.8978 75.7096 51.1633 76.28 50.6142C76.5562 50.3574 76.8825 50.1605 77.2382 50.0357C77.6142 49.9052 78.0148 49.8619 78.41 49.9093C78.9776 49.9713 79.4025 50.1923 79.6849 50.5723C79.9671 50.9524 80.0785 51.4223 80.0192 51.9822ZM79.0636 51.6948C79.1131 51.2416 79.0692 50.8929 78.9318 50.6486C78.866 50.5294 78.7711 50.4289 78.6559 50.3562C78.5409 50.2838 78.4093 50.2416 78.2735 50.2339C78.0046 50.206 77.7338 50.2633 77.499 50.3974C77.2471 50.5351 77.0172 50.7787 76.8092 51.1285C76.642 51.4087 76.5124 51.7098 76.4238 52.0241C76.3325 52.3277 76.2682 52.639 76.2317 52.954C76.1827 53.411 76.2245 53.7653 76.357 54.017C76.4898 54.269 76.7154 54.4113 77.0338 54.4458C77.3089 54.4786 77.5866 54.4127 77.8176 54.2597C78.0627 54.0981 78.2701 53.8857 78.4257 53.6366C78.6021 53.36 78.7413 53.0614 78.8399 52.7485C78.9511 52.4061 79.026 52.0529 79.0636 51.6948Z" fill="#5A5B5D"/>
<path d="M82.3245 54.7713L82.2131 55.067C81.9717 55.1316 81.7268 55.1826 81.4796 55.2196C81.3282 55.2413 81.1748 55.2444 81.0227 55.2289C80.7683 55.1945 80.5873 55.1033 80.4776 54.9545C80.4236 54.8813 80.3847 54.798 80.3632 54.7095C80.3417 54.621 80.3379 54.5292 80.3524 54.4393C80.3625 54.3625 80.3791 54.2866 80.4015 54.2124C80.4248 54.1343 80.4591 54.0366 80.5037 53.9194L81.2771 51.9571C81.3171 51.8484 81.357 51.7331 81.3979 51.6084C81.4336 51.5043 81.4601 51.3973 81.4767 51.2884C81.5009 51.1099 81.487 50.9872 81.436 50.9212C81.3849 50.8551 81.2697 50.8086 81.0886 50.7844C80.9959 50.7763 80.9028 50.7763 80.81 50.7844C80.6913 50.7909 80.6011 50.7984 80.539 50.8068L80.6504 50.511C80.8795 50.4404 81.1134 50.3872 81.3505 50.352C81.5081 50.3256 81.6685 50.319 81.8277 50.3325C82.0877 50.3678 82.2688 50.4543 82.37 50.5947C82.474 50.7483 82.513 50.9369 82.4787 51.1192C82.4669 51.1974 82.4501 51.2748 82.4285 51.3508C82.4042 51.4492 82.3732 51.5458 82.3357 51.64L81.5604 53.6023C81.5121 53.7223 81.4675 53.8404 81.4284 53.9566C81.3945 54.0504 81.3696 54.1472 81.3542 54.2458C81.3301 54.4272 81.3542 54.5564 81.4257 54.6345C81.531 54.7266 81.6642 54.7802 81.8036 54.7871C81.8906 54.7959 81.9781 54.7993 82.0654 54.7973C82.1525 54.797 82.2392 54.7882 82.3245 54.7713ZM83.474 48.7133C83.4533 48.8882 83.3683 49.049 83.2355 49.1644C83.175 49.2203 83.1031 49.2623 83.0248 49.2876C82.9464 49.3129 82.8636 49.3208 82.7819 49.3109C82.7003 49.301 82.6218 49.2735 82.5517 49.2302C82.4817 49.1868 82.4219 49.1289 82.3766 49.0602C82.2787 48.9263 82.2364 48.7597 82.2586 48.5952C82.2789 48.4252 82.3641 48.2696 82.4963 48.1609C82.5556 48.1063 82.6262 48.0654 82.7031 48.0411C82.7799 48.0168 82.8612 48.0098 82.941 48.0205C83.0242 48.0287 83.1047 48.0547 83.177 48.0967C83.2491 48.1388 83.3115 48.1958 83.3598 48.2642C83.4556 48.393 83.4966 48.5544 83.474 48.7133Z" fill="#5A5B5D"/>
<path d="M84.2489 55.7269C83.6917 55.6408 83.2791 55.4104 83.0111 55.0359C82.743 54.6614 82.6545 54.176 82.7456 53.5796C82.8044 53.192 82.9261 52.8166 83.1058 52.4683C83.2751 52.1371 83.499 51.8369 83.7678 51.5801C84.0367 51.3279 84.356 51.1361 84.7048 51.0175C85.0758 50.8899 85.4731 50.8579 85.8598 50.9245C86.313 50.9951 86.6423 51.1451 86.8478 51.3746C86.9462 51.4767 87.0192 51.6005 87.0609 51.736C87.1027 51.8715 87.1121 52.0151 87.0883 52.1549C87.0606 52.3581 86.976 52.5493 86.8441 52.7063C86.784 52.778 86.7057 52.8321 86.6174 52.863C86.5292 52.8937 86.4342 52.9 86.3427 52.8812C86.2726 52.8758 86.2043 52.8566 86.1417 52.8246C86.079 52.7927 86.0233 52.7487 85.9778 52.6952C85.9437 52.653 85.9187 52.6042 85.9043 52.5518C85.8899 52.4996 85.8865 52.4447 85.8942 52.3911C85.9263 52.2494 85.9828 52.1143 86.0613 51.9921C86.1543 51.8275 86.234 51.6945 86.2907 51.5932C86.2754 51.5432 86.2493 51.4973 86.2141 51.4587C86.1789 51.4201 86.1357 51.3897 86.0874 51.3699C85.9725 51.3112 85.849 51.2714 85.7215 51.2519C85.2912 51.1836 84.8809 51.3767 84.4902 51.8312C84.0996 52.2856 83.8477 52.8769 83.7345 53.6047C83.6638 54.0561 83.7087 54.4281 83.8691 54.7207C83.9424 54.863 84.0494 54.9853 84.1806 55.0768C84.3117 55.1684 84.4633 55.2265 84.6221 55.2461C84.9138 55.2966 85.2139 55.2549 85.481 55.1271C85.7781 54.9766 86.0474 54.7765 86.2777 54.5356L86.5181 54.7783C86.2312 55.1 85.8801 55.358 85.4876 55.5353C85.1036 55.7234 84.6715 55.7901 84.2489 55.7269Z" fill="#5A5B5D"/>
<path d="M91.2586 52.9101C91.2063 53.2282 91.0371 53.5153 90.7842 53.7146C90.4837 53.9341 90.132 54.0729 89.7627 54.1172C89.4529 54.1694 89.1399 54.2004 88.8258 54.2103C88.4853 54.2209 88.1444 54.2143 87.8045 54.1908C87.7115 54.6905 87.7329 55.0888 87.8685 55.3857C87.9347 55.532 88.037 55.659 88.1659 55.7544C88.2948 55.85 88.4458 55.911 88.6049 55.9317C88.8992 55.9923 89.2048 55.9642 89.4832 55.8508C89.7949 55.7101 90.0799 55.5163 90.3254 55.2779L90.5575 55.5272C90.2465 55.8557 89.8657 56.1099 89.4433 56.2712C89.0496 56.4284 88.6198 56.472 88.2028 56.3966C87.6456 56.2932 87.2486 56.0576 87.0115 55.6898C86.7744 55.3222 86.7088 54.8538 86.8147 54.2847C86.8842 53.8968 87.0189 53.5236 87.213 53.1808C87.4031 52.8439 87.65 52.5424 87.9428 52.2898C88.231 52.0395 88.5681 51.852 88.9326 51.7393C89.3125 51.622 89.7155 51.6013 90.1054 51.6788C90.5584 51.7638 90.8773 51.9188 91.0618 52.1439C91.1508 52.2481 91.2147 52.3714 91.2489 52.5041C91.2829 52.637 91.2864 52.7759 91.2586 52.9101ZM90.4109 52.6311C90.4333 52.5326 90.4333 52.4302 90.4109 52.3317C90.3944 52.2615 90.359 52.1972 90.3088 52.1457C90.2613 52.0992 90.2042 52.0636 90.1416 52.0415C90.081 52.0201 90.0189 52.0034 89.9559 51.9914C89.5783 51.9207 89.1907 52.0633 88.7934 52.4192C88.3731 52.8118 88.0639 53.3087 87.8973 53.8596C88.1238 53.869 88.381 53.8706 88.6689 53.8643C88.9165 53.8636 89.1629 53.8298 89.4015 53.7639C89.6623 53.6929 89.8979 53.5498 90.0812 53.351C90.2551 53.146 90.369 52.8968 90.4109 52.6311Z" fill="#5A5B5D"/>
<path d="M35.6861 55.8452L35.6972 55.5197C35.7926 55.4918 35.904 55.4565 36.0314 55.4136C36.1323 55.3827 36.2304 55.3435 36.3248 55.2965C36.3982 55.2597 36.4658 55.2124 36.5254 55.156C36.5468 55.133 36.5618 55.1047 36.5694 55.0741C36.5768 55.0436 36.5764 55.0116 36.5682 54.9813C36.5632 54.9564 36.5152 54.806 36.4242 54.5302L36.0371 53.3668L33.6841 53.816C33.6118 54.002 33.5374 54.2103 33.4622 54.4475C33.387 54.6846 33.3294 54.8669 33.2877 54.9925C33.2474 55.1143 33.2145 55.2385 33.1892 55.3645C33.1661 55.4498 33.1557 55.5382 33.1586 55.6267C33.1781 55.7308 33.2775 55.7978 33.4567 55.8285C33.6722 55.8607 33.8912 55.8607 34.1067 55.8285L34.0955 56.154L31.5234 56.6459L31.5346 56.3204C31.6399 56.2892 31.7429 56.2507 31.8428 56.2051C31.9531 56.1582 32.0561 56.0956 32.1483 56.0191C32.2517 55.9313 32.3451 55.8325 32.4269 55.7243C32.5304 55.5753 32.6137 55.4134 32.6748 55.2425C33.0549 54.2754 33.4688 53.2 33.9163 52.0165C34.3639 50.8329 34.759 49.7966 35.102 48.9075L35.4799 48.8359L37.4735 54.4735C37.5076 54.5744 37.5588 54.6688 37.6249 54.7525C37.6914 54.8304 37.7733 54.8937 37.8653 54.9384C37.954 54.9749 38.0482 54.9961 38.1439 55.0008C38.2411 55.011 38.3394 55.0095 38.4363 54.9961L38.4253 55.3226L35.6861 55.8452ZM35.895 52.9836L34.9748 50.4457L33.8698 53.3705L35.895 52.9836Z" fill="white"/>
<path d="M46.1513 47.3906L45.9776 49.1353L45.6201 49.1818C45.5762 48.8746 45.4632 48.5814 45.2895 48.3243C45.1261 48.091 44.9469 47.9728 44.752 47.9681C44.6516 47.9681 44.5355 47.9737 44.4028 47.984C44.27 47.9942 44.1177 48.0109 43.9459 48.0333L42.7881 48.183L42.5095 51.0194L43.2885 50.919C43.4597 50.8983 43.6275 50.8561 43.7881 50.7935C43.948 50.7251 44.0893 50.6195 44.2004 50.4856C44.2844 50.3767 44.3535 50.2569 44.4056 50.1295C44.4773 49.9679 44.5297 49.7983 44.5616 49.6245L44.9191 49.578L44.6497 52.3158L44.2923 52.3623C44.2923 52.3233 44.2923 52.2786 44.2876 52.2266C44.2855 52.1706 44.2806 52.1147 44.2728 52.0591C44.2592 51.9571 44.2399 51.8559 44.2152 51.756C44.1977 51.6666 44.162 51.5818 44.1103 51.5067C44.0176 51.3935 43.8875 51.3174 43.7436 51.292C43.5794 51.2682 43.4127 51.2682 43.2487 51.292L42.4724 51.3914L42.2291 53.8355C42.2257 53.8619 42.2241 53.8887 42.2244 53.9155C42.2244 53.9422 42.2263 53.9689 42.2301 53.9954C42.2368 54.0593 42.2594 54.1204 42.296 54.1731C42.3392 54.2281 42.3967 54.2702 42.4621 54.2949C42.5638 54.3215 42.6682 54.3359 42.7733 54.3376C42.8968 54.3466 43.0208 54.3485 43.1447 54.3433L43.1093 54.6678L40.1641 55.0482L40.2003 54.7227C40.2978 54.7041 40.4232 54.6771 40.5772 54.6427C40.6846 54.6243 40.7893 54.5931 40.8893 54.5497C40.9857 54.5004 41.0653 54.4233 41.1177 54.3283C41.1667 54.2338 41.1963 54.1304 41.2049 54.0242L41.711 48.9409C41.711 48.9084 41.711 48.8767 41.7157 48.8479C41.7162 48.8168 41.7147 48.7858 41.711 48.7549C41.7048 48.6977 41.6851 48.6429 41.6534 48.595C41.6106 48.5427 41.5524 48.5053 41.4872 48.488C41.3828 48.4521 41.2742 48.4302 41.1641 48.4229C41.0475 48.4098 40.9303 48.4039 40.8131 48.4053L40.8484 48.0798L46.1513 47.3906Z" fill="white"/>
<path d="M48.3822 53.553L48.3403 53.8664C48.1209 53.9854 47.8946 54.0913 47.6625 54.1836C47.5201 54.2396 47.3713 54.2781 47.2196 54.298C46.9645 54.3228 46.7668 54.2754 46.6263 54.1557C46.5568 54.0969 46.4997 54.0249 46.4585 53.9437C46.4171 53.8626 46.3924 53.774 46.3859 53.6833C46.3797 53.6062 46.3797 53.5288 46.3859 53.4517C46.3904 53.3698 46.4016 53.2656 46.4183 53.1429L46.7201 51.0551C46.7349 50.9407 46.7471 50.8179 46.759 50.6878C46.7693 50.5782 46.7693 50.4681 46.759 50.3585C46.7414 50.179 46.6997 50.0627 46.6355 50.0098C46.5715 49.9567 46.4499 49.9391 46.2641 49.9567C46.1698 49.9692 46.0766 49.9898 45.9856 50.0181C45.8714 50.0525 45.7851 50.0804 45.7266 50.1028L45.7674 49.7884C45.9738 49.6669 46.1892 49.5614 46.4118 49.4732C46.5603 49.4104 46.7164 49.3674 46.8761 49.3449C47.137 49.3188 47.3329 49.3616 47.4638 49.475C47.6005 49.6005 47.6819 49.775 47.6905 49.9605C47.695 50.0394 47.695 50.1186 47.6905 50.1976C47.6875 50.2992 47.6782 50.4005 47.6625 50.5008L47.3571 52.5886C47.3376 52.717 47.3217 52.8416 47.3106 52.9606C47.2991 53.0597 47.2969 53.1597 47.3041 53.2592C47.3217 53.4452 47.3747 53.5614 47.4629 53.6209C47.5866 53.6861 47.7285 53.7077 47.8659 53.6824C47.9527 53.6716 48.0386 53.6549 48.1231 53.6321C48.2119 53.6144 48.2986 53.588 48.3822 53.553ZM48.1119 47.3927C48.132 47.5681 48.086 47.7445 47.9829 47.8876C47.9357 47.9574 47.8735 48.0159 47.8009 48.0587C47.7283 48.1015 47.6471 48.1276 47.5632 48.135C47.4832 48.1429 47.4025 48.1332 47.3264 48.107C47.2505 48.0806 47.1811 48.0381 47.123 47.9824C46.997 47.8749 46.9177 47.7225 46.902 47.5574C46.883 47.3871 46.9299 47.2161 47.033 47.0793C47.0784 47.0127 47.1379 46.9568 47.2072 46.9158C47.2765 46.8746 47.3539 46.8492 47.4341 46.8413C47.517 46.83 47.6014 46.8367 47.6815 46.8609C47.7617 46.8852 47.8356 46.9264 47.8984 46.9818C47.9592 47.0329 48.0094 47.0955 48.046 47.166C48.0827 47.2366 48.105 47.3135 48.1119 47.3927Z" fill="white"/>
<path d="M53.783 53.1054L53.7328 53.4178C53.4525 53.5536 53.2339 53.6538 53.0773 53.7183C52.9244 53.7816 52.7623 53.8202 52.5973 53.8327C52.341 53.8513 52.1439 53.7985 52.0058 53.6745C51.938 53.6141 51.883 53.5406 51.8439 53.4586C51.8049 53.3764 51.7826 53.2873 51.7783 53.1966C51.7723 53.1186 51.7723 53.0402 51.7783 52.9622C51.7857 52.8757 51.7988 52.7762 51.8202 52.6571L52.1645 50.8297C52.1897 50.6893 52.2092 50.5628 52.2212 50.4494C52.2332 50.3594 52.2372 50.2685 52.2333 50.1778C52.2314 49.995 52.1657 49.8186 52.0476 49.6794C51.9875 49.6192 51.9143 49.574 51.8337 49.5471C51.7531 49.5202 51.6674 49.5123 51.5833 49.524C51.3544 49.551 51.1355 49.6332 50.9455 49.764C50.6972 49.9252 50.4807 50.1307 50.3066 50.3703L49.7411 53.9573L48.846 54.0214L49.34 50.8595C49.3511 50.7814 49.366 50.6679 49.3856 50.52C49.4042 50.4023 49.4111 50.283 49.4059 50.1639C49.393 49.9841 49.3539 49.8659 49.289 49.8095C49.2231 49.7528 49.1032 49.7314 48.9176 49.7445C48.8267 49.7539 48.7372 49.7726 48.6501 49.8002C48.5424 49.8319 48.4588 49.8579 48.3984 49.8784L48.4486 49.5658C48.6582 49.4519 48.8754 49.3525 49.0986 49.2683C49.2561 49.2076 49.4209 49.1682 49.5888 49.1511C49.8432 49.1325 50.029 49.1883 50.146 49.3184C50.276 49.4763 50.3512 49.6721 50.3605 49.8765H50.3892C50.6555 49.6205 50.9438 49.3886 51.2509 49.1837C51.5094 49.0249 51.8034 48.9331 52.106 48.9168C52.235 48.8969 52.3668 48.9053 52.4923 48.9411C52.6177 48.977 52.7341 49.0395 52.8331 49.1246C52.9322 49.2097 53.0118 49.3151 53.0665 49.4338C53.1211 49.5525 53.1496 49.6816 53.1498 49.8124C53.1498 49.87 53.1498 49.9732 53.1498 50.122C53.1431 50.271 53.1257 50.4191 53.0977 50.5657L52.7951 52.1326C52.7734 52.2375 52.7539 52.3574 52.7365 52.4925C52.7209 52.5959 52.7147 52.7006 52.718 52.8051C52.731 52.991 52.7802 53.1092 52.8647 53.1687C52.9863 53.2366 53.1273 53.2614 53.2649 53.2393C53.3527 53.2297 53.4397 53.213 53.5248 53.1891C53.6131 53.1683 53.6993 53.1403 53.783 53.1054Z" fill="white"/>
<path d="M58.002 49.6386C58.0214 49.9604 57.9201 50.2778 57.7179 50.5285C57.4733 50.8092 57.1609 51.0225 56.8107 51.1479C56.5203 51.2679 56.2222 51.3683 55.9184 51.4484C55.6176 51.5283 55.2839 51.5977 54.9174 51.6567C54.9373 52.1638 55.0458 52.5473 55.2433 52.807C55.3396 52.9351 55.4668 53.0364 55.6131 53.1015C55.7593 53.1665 55.9197 53.1933 56.079 53.179C56.3784 53.1724 56.6692 53.0773 56.9147 52.9056C57.1874 52.6997 57.4224 52.448 57.6092 52.1616L57.8878 52.3532C57.6589 52.7412 57.346 53.073 56.9722 53.3241C56.6231 53.5629 56.2145 53.6998 55.7921 53.7193C55.2251 53.7417 54.7859 53.5996 54.4745 53.2934C54.1632 52.9871 53.9957 52.5422 53.9722 51.9589C53.9547 51.5651 54.0034 51.1712 54.1162 50.7936C54.2272 50.4226 54.4016 50.0737 54.6314 49.7623C54.8567 49.4541 55.1439 49.1965 55.4746 49.0062C55.8182 48.8093 56.2051 48.7007 56.6008 48.69C57.0626 48.672 57.408 48.7526 57.6371 48.9318C57.748 49.0136 57.8386 49.12 57.9019 49.2425C57.9651 49.3651 57.9994 49.5006 58.002 49.6386ZM57.1143 49.5558C57.1146 49.4546 57.0924 49.3544 57.0493 49.2628C57.0176 49.1989 56.9692 49.145 56.9091 49.1066C56.8526 49.0718 56.7893 49.05 56.7234 49.0424C56.6578 49.0351 56.5917 49.0329 56.5256 49.036C56.1419 49.0508 55.7958 49.2759 55.4875 49.7111C55.1638 50.1869 54.9716 50.74 54.9304 51.3144C55.1533 51.2735 55.4049 51.2213 55.6835 51.1479C55.9248 51.092 56.1577 51.0045 56.3762 50.8875C56.6152 50.7588 56.8134 50.5655 56.9482 50.3295C57.0728 50.0916 57.1303 49.8241 57.1143 49.5558Z" fill="white"/>
<path d="M62.4937 49.3713C62.4937 49.4712 62.4822 49.5708 62.4594 49.668C62.4397 49.7633 62.4033 49.8543 62.3517 49.9368C62.3033 50.0154 62.2403 50.0839 62.166 50.1386C62.0584 50.1948 61.937 50.2199 61.816 50.2106C61.6949 50.2014 61.5788 50.1585 61.4808 50.0864C61.4402 50.0501 61.4076 50.0058 61.3845 49.9565C61.3616 49.9071 61.3488 49.8536 61.3471 49.7991C61.3493 49.684 61.3726 49.5702 61.4158 49.4634C61.4622 49.3397 61.5086 49.2161 61.5607 49.0914C61.4978 49.0968 61.4357 49.108 61.3749 49.1249C61.2649 49.1558 61.1585 49.1982 61.0573 49.2514C60.908 49.3302 60.7668 49.4237 60.6358 49.5304C60.4546 49.6787 60.2874 49.8433 60.1362 50.0223L59.4009 53.4809L58.5039 53.4912L59.1697 50.3608C59.1854 50.2837 59.2068 50.1674 59.2356 50.013C59.2596 49.9004 59.2735 49.7859 59.2774 49.6708C59.2774 49.4904 59.2439 49.3703 59.1845 49.31C59.1251 49.2495 58.9988 49.217 58.8187 49.2225C58.7281 49.2263 58.6382 49.2394 58.5503 49.2616C58.4416 49.2867 58.3572 49.3081 58.2969 49.3248L58.3655 49.0161C58.5791 48.9142 58.7997 48.8282 59.0257 48.7585C59.1858 48.7072 59.3519 48.6778 59.5197 48.6711C59.776 48.6711 59.9593 48.739 60.0694 48.8747C60.1799 49.0133 60.2366 49.2216 60.2402 49.5016H60.269C60.5423 49.2512 60.8294 49.0165 61.1289 48.7984C61.3088 48.6697 61.5233 48.5983 61.7444 48.5939C61.8449 48.5925 61.9451 48.6043 62.0425 48.6292C62.1337 48.6508 62.2182 48.6946 62.2886 48.7566C62.3586 48.8205 62.413 48.8997 62.4473 48.9882C62.4853 49.1121 62.501 49.2418 62.4937 49.3713Z" fill="white"/>
<path d="M67.1284 53.7306C66.7901 53.7204 66.4568 53.6463 66.146 53.512C65.8448 53.3826 65.5746 53.1904 65.3531 52.9484C65.1224 52.6926 64.9459 52.3927 64.834 52.0669C64.7092 51.6971 64.6556 51.3071 64.6762 50.9173C64.6931 50.3361 64.819 49.7631 65.0476 49.2284C65.2647 48.7199 65.5679 48.2527 65.9436 47.8474C66.3054 47.4605 66.7408 47.1497 67.224 46.9333C67.7041 46.7127 68.2292 46.6079 68.7571 46.6273C69.1138 46.6336 69.4675 46.6939 69.8063 46.8059C70.0693 46.8922 70.3171 47.0193 70.5408 47.1825L70.8193 46.8645L71.2038 46.8784L70.5984 49.2963L70.2037 49.2825L70.2111 49.0899C70.2207 48.837 70.209 48.5838 70.1759 48.3329C70.1458 48.1022 70.072 47.8794 69.9586 47.6763C69.8493 47.4841 69.6919 47.3239 69.5018 47.2113C69.2686 47.0835 69.007 47.0169 68.7413 47.0179C68.3526 47.0026 67.9678 47.0994 67.6326 47.2969C67.279 47.5024 66.9707 47.7776 66.7263 48.106C66.4489 48.4801 66.2355 48.8978 66.095 49.342C65.9294 49.8308 65.8355 50.341 65.8164 50.857C65.7916 51.5389 65.9389 52.0997 66.2583 52.5392C66.4086 52.751 66.607 52.9237 66.8373 53.0431C67.0676 53.1624 67.3231 53.225 67.5824 53.2256C68.0486 53.2438 68.5087 53.1135 68.8963 52.8536C69.3135 52.5769 69.6592 52.205 69.9047 51.7683L70.2437 51.9635C69.8158 52.6381 69.3489 53.1078 68.8425 53.3724C68.3123 53.6403 67.7212 53.7637 67.1284 53.7306Z" fill="white"/>
<path d="M75.2916 53.4891L75.1987 53.7914C74.9025 53.8844 74.6732 53.9532 74.5089 53.994C74.3489 54.0349 74.1833 54.0496 74.0186 54.0378C73.7632 54.0192 73.5757 53.9383 73.4615 53.796C73.4029 53.7263 73.3589 53.6455 73.3321 53.5585C73.3052 53.4714 73.2962 53.3798 73.3055 53.2891C73.3112 53.2111 73.3233 53.1336 73.3417 53.0576C73.3647 52.9576 73.3929 52.8589 73.4261 52.7619L74.026 51.0032C74.0718 50.8687 74.1089 50.7447 74.1375 50.6312C74.1617 50.5438 74.1788 50.4546 74.1885 50.3643C74.2114 50.1825 74.1703 49.9984 74.0724 49.8436C74.0214 49.7754 73.9552 49.72 73.8791 49.6817C73.8031 49.6435 73.7193 49.6235 73.6341 49.6231C73.4011 49.6149 73.1698 49.6661 72.9619 49.7719C72.6979 49.8991 72.4569 50.0694 72.2488 50.2759L71.1764 53.744L70.2812 53.6778L72.1596 47.5994L72.2145 47.4135C72.2296 47.3607 72.2393 47.3064 72.2433 47.2517C72.2553 47.1593 72.2417 47.0654 72.2043 46.9801C72.1702 46.9143 72.1167 46.8607 72.051 46.8266C71.9738 46.7878 71.8907 46.7624 71.805 46.7513C71.7001 46.7336 71.5951 46.7141 71.4902 46.6936L71.5785 46.4062L73.3695 46.4314L73.4123 46.5068L72.4048 49.7682H72.4234C72.7129 49.5598 73.0217 49.3795 73.3454 49.2297C73.6269 49.1096 73.9339 49.0613 74.2386 49.0893C74.3692 49.088 74.4984 49.1151 74.6176 49.1686C74.7367 49.2222 74.8428 49.301 74.9286 49.3995C75.0145 49.498 75.0781 49.614 75.1148 49.7394C75.1517 49.8649 75.161 49.9969 75.1421 50.1262C75.1313 50.229 75.1151 50.3311 75.0938 50.4322C75.0653 50.5786 75.0265 50.7228 74.9777 50.8638L74.4615 52.3768C74.429 52.4772 74.3928 52.5935 74.3547 52.7238C74.3225 52.8235 74.3005 52.9264 74.2888 53.0306C74.2758 53.2166 74.3064 53.3403 74.3816 53.4119C74.4925 53.4966 74.6285 53.5415 74.7679 53.5393C74.856 53.5426 74.9442 53.5385 75.0317 53.5272C75.1192 53.5214 75.206 53.5086 75.2916 53.4891Z" fill="white"/>
<path d="M80.3863 51.615C80.3442 51.9999 80.2387 52.375 80.0743 52.7254C79.9152 53.0748 79.6907 53.3905 79.4132 53.6554C79.1373 53.9223 78.81 54.1303 78.4512 54.2664C78.0581 54.4101 77.636 54.4571 77.2209 54.4031C76.6923 54.3461 76.2813 54.1291 75.9879 53.7522C75.6945 53.3751 75.579 52.8974 75.6415 52.319C75.7203 51.5306 76.0768 50.7961 76.6471 50.247C76.9234 49.9903 77.2497 49.7934 77.6054 49.6685C77.9814 49.538 78.382 49.4947 78.7772 49.542C79.3448 49.604 79.7697 49.8251 80.0521 50.2052C80.3343 50.5852 80.4457 51.0552 80.3863 51.615ZM79.4318 51.3276C79.4801 50.8744 79.4358 50.5257 79.299 50.2814C79.2332 50.1622 79.1383 50.0616 79.0231 49.9891C78.9081 49.9166 78.7765 49.8745 78.6407 49.8666C78.3718 49.8388 78.101 49.896 77.8663 50.0303C77.6143 50.168 77.3843 50.4116 77.1764 50.7612C77.0092 51.0416 76.8796 51.3427 76.7911 51.6568C76.6997 51.9605 76.6354 52.2718 76.5989 52.5869C76.55 53.0438 76.5917 53.3981 76.7242 53.6498C76.857 53.9019 77.0826 54.0441 77.401 54.0785C77.6761 54.1116 77.9539 54.0457 78.1848 53.8926C78.4299 53.731 78.6372 53.5184 78.7929 53.2694C78.9693 52.9929 79.1085 52.6943 79.2071 52.3813C79.3182 52.0388 79.3935 51.6858 79.4318 51.3276Z" fill="white"/>
<path d="M82.6986 54.3962L82.5872 54.6919C82.3461 54.7556 82.1015 54.8049 81.8546 54.8398C81.7033 54.8623 81.5498 54.8657 81.3978 54.8501C81.1433 54.8156 80.9622 54.7245 80.8527 54.5756C80.7987 54.5024 80.7598 54.4192 80.7381 54.3307C80.7166 54.2423 80.713 54.1505 80.7273 54.0605C80.7376 53.9836 80.754 53.9078 80.7766 53.8335C80.7998 53.7555 80.8341 53.6578 80.8787 53.5406L81.6522 51.5784C81.6921 51.4695 81.732 51.3543 81.7728 51.2297C81.8091 51.1256 81.8355 51.0185 81.8518 50.9097C81.8759 50.7312 81.862 50.6084 81.8109 50.5424C81.7599 50.4764 81.6448 50.4299 81.4637 50.4056C81.371 50.3975 81.2778 50.3975 81.1851 50.4056C81.0663 50.4121 80.9762 50.4196 80.914 50.428L81.0254 50.1323C81.2544 50.0614 81.4885 50.0079 81.7255 49.9723C81.8832 49.9466 82.0436 49.9403 82.2028 49.9537C82.4628 49.989 82.6439 50.0755 82.745 50.2159C82.8489 50.3696 82.8883 50.558 82.8545 50.7404C82.8419 50.8185 82.8252 50.8958 82.8045 50.9721C82.7792 51.0702 82.7482 51.1667 82.7116 51.2612L81.9354 53.2235C81.8871 53.3435 81.8425 53.4615 81.8035 53.5778C81.7694 53.6716 81.7445 53.7685 81.7293 53.8671C81.7051 54.0484 81.7293 54.1776 81.8007 54.2558C81.906 54.3477 82.0391 54.4015 82.1786 54.4083C82.2656 54.417 82.3531 54.4205 82.4405 54.4185C82.5271 54.4194 82.6134 54.412 82.6986 54.3962ZM83.8481 48.3383C83.8277 48.5133 83.7426 48.6742 83.6095 48.7894C83.549 48.8452 83.4772 48.8872 83.3988 48.9125C83.3206 48.9378 83.2377 48.9458 83.1561 48.9359C83.0744 48.926 82.9958 48.8985 82.9258 48.8552C82.8558 48.8118 82.796 48.7538 82.7506 48.6852C82.6528 48.5513 82.6105 48.3847 82.6327 48.2201C82.653 48.0501 82.7382 47.8945 82.8704 47.7859C82.9298 47.7313 83.0002 47.6903 83.0772 47.6661C83.1541 47.6418 83.2352 47.6348 83.3151 47.6455C83.3982 47.6537 83.4785 47.6796 83.5507 47.7215C83.6229 47.7634 83.6854 47.8202 83.7339 47.8881C83.8299 48.0171 83.871 48.1791 83.8481 48.3383Z" fill="white"/>
<path d="M84.6238 55.3518C84.0667 55.2657 83.6541 55.0354 83.3861 54.6609C83.1181 54.2865 83.0295 53.801 83.1206 53.2046C83.1794 52.8169 83.301 52.4415 83.4808 52.0932C83.6501 51.762 83.874 51.4618 84.1428 51.2051C84.4116 50.9529 84.731 50.7611 85.0798 50.6425C85.4509 50.5149 85.8481 50.4829 86.2348 50.5494C86.688 50.6201 87.0173 50.7702 87.2228 50.9995C87.3212 51.1016 87.3942 51.2254 87.4359 51.3609C87.4777 51.4965 87.4871 51.64 87.4632 51.7798C87.4361 51.9831 87.3514 52.1745 87.2191 52.3313C87.159 52.403 87.0807 52.4572 86.9924 52.4879C86.9042 52.5187 86.8092 52.525 86.7177 52.5061C86.6476 52.5007 86.5793 52.4815 86.5167 52.4496C86.454 52.4178 86.3983 52.3737 86.3528 52.3202C86.3187 52.2779 86.2936 52.2291 86.2793 52.1769C86.2649 52.1245 86.2614 52.0698 86.2692 52.016C86.3013 51.8743 86.3578 51.7393 86.4363 51.617C86.5317 51.4527 86.6084 51.3198 86.6666 51.2181C86.651 51.1682 86.6246 51.1223 86.5893 51.0837C86.554 51.0451 86.5107 51.0148 86.4624 50.995C86.3475 50.9362 86.224 50.8963 86.0965 50.8768C85.6663 50.8085 85.2559 51.0018 84.8652 51.4562C84.4746 51.9107 84.2227 52.5018 84.1094 53.2297C84.0388 53.681 84.0837 54.053 84.2441 54.3456C84.3174 54.4879 84.4243 54.6102 84.5556 54.7018C84.6868 54.7933 84.8384 54.8515 84.9972 54.8711C85.2888 54.9216 85.589 54.8799 85.856 54.752C86.1531 54.6015 86.4224 54.4016 86.6527 54.1605L86.8931 54.4033C86.6062 54.7251 86.2551 54.9829 85.8625 55.1603C85.4785 55.3483 85.0465 55.4152 84.6238 55.3518Z" fill="white"/>
<path d="M91.6335 52.5351C91.5813 52.8532 91.412 53.1403 91.159 53.3395C90.8586 53.5591 90.5069 53.6977 90.1377 53.7422C89.8278 53.7942 89.5149 53.8253 89.2008 53.8352C88.8888 53.8454 88.5508 53.8352 88.1794 53.8157C88.0865 54.3117 88.1079 54.7101 88.2435 55.0107C88.3097 55.157 88.412 55.2839 88.5409 55.3794C88.6697 55.475 88.8208 55.536 88.9798 55.5567C89.2741 55.6173 89.5798 55.589 89.8582 55.4757C90.1699 55.335 90.4549 55.1411 90.7003 54.9028L90.9325 55.1521C90.6215 55.4807 90.2407 55.7349 89.8182 55.8961C89.4246 56.0534 88.9948 56.0969 88.5778 56.0217C88.0206 55.9181 87.6236 55.6825 87.3865 55.3148C87.1493 54.9472 87.0838 54.4788 87.1897 53.9097C87.2592 53.5218 87.3939 53.1485 87.588 52.8057C87.7781 52.4688 88.025 52.1674 88.3178 51.9148C88.606 51.6645 88.9431 51.477 89.3076 51.3643C89.6875 51.247 90.0905 51.2263 90.4804 51.3038C90.9334 51.3888 91.2522 51.5438 91.4367 51.7688C91.5256 51.8731 91.5897 51.9963 91.6237 52.1291C91.6579 52.2619 91.6612 52.4009 91.6335 52.5351ZM90.7857 52.2561C90.8082 52.1576 90.8082 52.0552 90.7857 51.9566C90.7694 51.8865 90.734 51.8221 90.6836 51.7707C90.6362 51.7242 90.5792 51.6886 90.5165 51.6665C90.4559 51.6451 90.3939 51.6283 90.3308 51.6163C89.9532 51.5457 89.5657 51.6882 89.1682 52.0441C88.7481 52.4368 88.4389 52.9337 88.2723 53.4846C88.4988 53.4939 88.756 53.4954 89.0439 53.4893C89.2915 53.4886 89.5378 53.4548 89.7765 53.3888C90.0373 53.3179 90.2729 53.1748 90.4562 52.976C90.6299 52.7709 90.744 52.5218 90.7857 52.2561Z" fill="white"/>
</g>
</svg>
