<svg width="200" height="80" viewBox="0 0 200 80" fill="none" xmlns="http://www.w3.org/2000/svg">
<path fill-rule="evenodd" clip-rule="evenodd" d="M10.0126 10.6261C9.73719 10.0828 9.06843 9.84999 8.47835 10.1216C7.9276 10.3933 7.69157 11.0529 7.96694 11.635C8.24231 12.1783 8.95041 12.4111 9.50115 12.1395C10.0519 11.8679 10.2879 11.2082 10.0126 10.6261Z" fill="white" stroke="white" stroke-width="3" stroke-linecap="round" stroke-linejoin="round"/>
<path fill-rule="evenodd" clip-rule="evenodd" d="M9.93453 10.6663C9.65916 10.1619 9.02974 9.92903 8.479 10.2007C7.96759 10.4723 7.73156 11.0932 8.00693 11.6365C8.2823 12.1409 8.91172 12.3738 9.46247 12.1021C9.97387 11.8305 10.2099 11.2096 9.93453 10.6663Z" fill="white" stroke="white" stroke-width="3" stroke-linecap="round" stroke-linejoin="round"/>
<path fill-rule="evenodd" clip-rule="evenodd" d="M9.89522 10.7061C9.65918 10.2016 9.02976 10.0076 8.51836 10.2793C8.00696 10.5121 7.81026 11.133 8.08563 11.6374C8.32167 12.1419 8.95109 12.3359 9.46249 12.0643C9.97389 11.8315 10.1706 11.2106 9.89522 10.7061Z" fill="white" stroke="white" stroke-width="3" stroke-linecap="round" stroke-linejoin="round"/>
<path fill-rule="evenodd" clip-rule="evenodd" d="M9.8153 10.7833C9.57926 10.3177 8.98918 10.1236 8.51712 10.3565C8.04505 10.5893 7.84836 11.1714 8.08439 11.637C8.32042 12.1027 8.9105 12.2967 9.38257 12.0639C9.85464 11.8311 10.0513 11.249 9.8153 10.7833Z" fill="white" stroke="white" stroke-width="3" stroke-linecap="round" stroke-linejoin="round"/>
<path fill-rule="evenodd" clip-rule="evenodd" d="M9.77636 10.8236C9.54033 10.3967 9.02893 10.2027 8.55686 10.4355C8.12413 10.6684 7.92744 11.1728 8.16347 11.6385C8.39951 12.0654 8.91091 12.2594 9.38298 12.0266C9.8157 11.7937 10.0124 11.2893 9.77636 10.8236Z" fill="white" stroke="white" stroke-width="3" stroke-linecap="round" stroke-linejoin="round"/>
<path fill-rule="evenodd" clip-rule="evenodd" d="M9.78418 10.8236C9.54814 10.3967 9.03674 10.2027 8.56467 10.4355C8.13195 10.6684 7.93525 11.1728 8.17129 11.6385C8.40732 12.0654 8.91872 12.2594 9.39079 12.0266C9.82351 11.7937 10.0202 11.2893 9.78418 10.8236Z" fill="white" stroke="white" stroke-width="3" stroke-linecap="round" stroke-linejoin="round"/>
<path fill-rule="evenodd" clip-rule="evenodd" d="M9.66521 10.9015C9.46852 10.5135 8.95712 10.3583 8.56373 10.5523C8.17034 10.7463 8.01299 11.2508 8.20968 11.6388C8.40637 12.0269 8.91778 12.1821 9.31117 11.9881C9.70455 11.794 9.86191 11.2896 9.66521 10.9015Z" fill="white" stroke="white" stroke-width="3" stroke-linecap="round" stroke-linejoin="round"/>
<path fill-rule="evenodd" clip-rule="evenodd" d="M9.58727 10.9809C9.39057 10.6317 8.95785 10.4764 8.56446 10.6705C8.21041 10.8645 8.05305 11.2913 8.24975 11.6794C8.44644 12.0286 8.87917 12.1839 9.27256 11.9898C9.62661 11.7958 9.78396 11.369 9.58727 10.9809Z" fill="white" stroke="white" stroke-width="3" stroke-linecap="round" stroke-linejoin="round"/>
<path fill-rule="evenodd" clip-rule="evenodd" d="M9.47004 11.0525C9.31269 10.7421 8.87996 10.5869 8.56525 10.7809C8.25054 10.9361 8.09318 11.363 8.28988 11.6734C8.44723 11.9838 8.87996 12.1391 9.19467 11.945C9.50938 11.7898 9.66673 11.363 9.47004 11.0525Z" fill="white" stroke="white" stroke-width="3" stroke-linecap="round" stroke-linejoin="round"/>
<path fill-rule="evenodd" clip-rule="evenodd" d="M9.38897 11.1369C9.23161 10.8653 8.87756 10.7488 8.60219 10.8653C8.32682 11.0205 8.2088 11.3697 8.32682 11.6414C8.48417 11.913 8.83822 12.0294 9.11359 11.913C9.38897 11.7578 9.50698 11.4085 9.38897 11.1369Z" fill="white" stroke="white" stroke-width="3" stroke-linecap="round" stroke-linejoin="round"/>
<path fill-rule="evenodd" clip-rule="evenodd" d="M9.27068 11.254C9.15266 10.9823 8.83795 10.9047 8.56258 11.0211C8.28721 11.1376 8.20853 11.448 8.32654 11.7196C8.44456 11.9913 8.75927 12.0689 9.03464 11.9525C9.31001 11.836 9.38869 11.5256 9.27068 11.254Z" fill="white" stroke="white" stroke-width="3" stroke-linecap="round" stroke-linejoin="round"/>
<path fill-rule="evenodd" clip-rule="evenodd" d="M9.19256 11.3256C9.07454 11.0928 8.79917 11.0152 8.60248 11.1316C8.36644 11.248 8.28777 11.5197 8.40578 11.7137C8.5238 11.9465 8.79917 12.0241 8.99586 11.9077C9.2319 11.7913 9.31057 11.5197 9.19256 11.3256Z" fill="white" stroke="white" stroke-width="3" stroke-linecap="round" stroke-linejoin="round"/>
<path fill-rule="evenodd" clip-rule="evenodd" d="M9.07394 11.4036C8.99526 11.2096 8.75923 11.1708 8.56253 11.2484C8.36584 11.326 8.3265 11.5589 8.40518 11.7529C8.48386 11.9469 8.71989 11.9857 8.91658 11.9081C9.11328 11.8305 9.15262 11.5977 9.07394 11.4036Z" fill="white" stroke="white" stroke-width="3" stroke-linecap="round" stroke-linejoin="round"/>
<path fill-rule="evenodd" clip-rule="evenodd" d="M8.99606 11.4833C8.91738 11.3281 8.76002 11.2893 8.60267 11.3669C8.44531 11.4445 8.40597 11.5998 8.48465 11.755C8.56333 11.9102 8.72068 11.949 8.87804 11.8714C9.03539 11.7938 9.07473 11.6386 8.99606 11.4833Z" fill="white" stroke="white" stroke-width="3" stroke-linecap="round" stroke-linejoin="round"/>
<path fill-rule="evenodd" clip-rule="evenodd" d="M39.011 69.3748V69.2972C36.0212 61.8854 31.694 53.0378 27.9175 45.7425L14.6996 20.0923L14.3849 19.4714C14.4636 19.355 14.5029 19.2774 14.5816 19.1998C15.4471 18.7729 16.2338 18.5789 17.1386 18.5789C17.532 18.967 18.0041 19.0446 18.5548 18.967V18.8506L18.3975 18.5401L18.8695 18.0745L18.2795 17.6864L18.3581 17.4536V17.2984C18.3975 17.2984 18.3975 17.2984 18.3975 17.2984C17.9254 17.2984 17.532 17.376 17.06 17.8028C16.2338 17.6864 14.8963 18.0745 13.7555 18.5401L9.78228 11.6328L9.50691 11.7492L8.9955 12.0209L12.3786 19.2774C11.2772 19.9371 10.1363 20.7908 9.74294 21.5281C9.1922 21.6445 8.75947 21.955 8.52344 22.3042L8.95616 22.6147V23.1579C8.91683 23.1579 8.91683 23.1579 8.91683 23.1579L9.50691 23.0803L9.82162 23.546C10.0577 23.2355 10.1363 22.8863 10.1757 22.537C10.1757 22.3818 10.1757 22.2266 10.1757 22.0714C10.6871 21.3729 11.3165 20.8684 12.1426 20.4416C12.3393 20.4416 12.4967 20.4416 12.6933 20.4416L26.1472 46.635C29.9237 53.9304 34.6051 62.6227 38.9717 69.336C38.9717 69.336 38.9717 69.336 38.9717 69.3748H39.011Z" fill="white" stroke="white" stroke-width="3" stroke-linecap="round" stroke-linejoin="round"/>
<path fill-rule="evenodd" clip-rule="evenodd" d="M12.2188 19.666L13.989 18.7734L27.9149 45.743C31.6914 53.0383 36.0187 61.8859 38.9691 69.3365C34.5632 62.6232 29.9212 53.9308 26.1447 46.6355L12.2188 19.666Z" fill="#00853F"/>
<path fill-rule="evenodd" clip-rule="evenodd" d="M13.125 19.2L14.0298 18.7344L27.9164 45.7427C31.6929 53.0381 36.0202 61.8856 38.9706 69.3362L13.125 19.2Z" fill="#00853F"/>
<path fill-rule="evenodd" clip-rule="evenodd" d="M13.125 19.2016L13.5971 18.9688L27.523 45.9771C31.2995 53.2725 34.84 60.6842 39.0099 69.3766L13.125 19.2016Z" fill="#8DC63F"/>
<path fill-rule="evenodd" clip-rule="evenodd" d="M13.1205 19.2422L12.6484 19.475L26.5744 46.4446C30.3509 53.7399 35.0715 62.4323 39.0054 69.3784L13.1205 19.2422Z" fill="white"/>
<path fill-rule="evenodd" clip-rule="evenodd" d="M8.99219 12.0209L9.77896 11.6328L13.8309 18.7341L12.4147 19.4326L8.99219 12.0209Z" fill="#00853F"/>
<path fill-rule="evenodd" clip-rule="evenodd" d="M9.07031 11.9841L9.14899 11.9453L12.7288 19.2795L12.5321 19.3959L9.07031 11.9841Z" fill="#8DC63F"/>
<path fill-rule="evenodd" clip-rule="evenodd" d="M9.34375 11.8656L9.77648 11.6328L13.7497 18.773L12.9629 19.161L9.34375 11.8656Z" fill="#00853F"/>
<path fill-rule="evenodd" clip-rule="evenodd" d="M9.5 11.7883L9.69669 11.6719L13.6306 18.8508L13.2765 19.006L9.5 11.7883Z" fill="#00853F"/>
<path fill-rule="evenodd" clip-rule="evenodd" d="M9.53906 11.7497L9.61774 11.7109L13.5123 18.8899L13.3943 18.9675L9.53906 11.7497Z" fill="#00853F"/>
<path fill-rule="evenodd" clip-rule="evenodd" d="M8.47766 10.1208C9.0284 9.8492 9.69716 10.0432 10.0119 10.6253C10.2872 11.1686 10.0905 11.8283 9.50046 12.1387C8.94972 12.4103 8.28096 12.2163 7.96625 11.6342C7.69088 11.091 7.88757 10.4313 8.47766 10.1208Z" fill="#00853F"/>
<path fill-rule="evenodd" clip-rule="evenodd" d="M8.51806 10.2007C9.02946 9.92903 9.69822 10.1619 9.97359 10.6663C10.249 11.1708 10.0129 11.8305 9.50153 12.1021C8.99012 12.3738 8.32136 12.1409 8.04599 11.6365C7.77062 11.132 8.00665 10.4723 8.51806 10.2007Z" fill="#00853F"/>
<path fill-rule="evenodd" clip-rule="evenodd" d="M8.51712 10.2783C9.02852 10.0455 9.6186 10.2395 9.89397 10.7052C10.13 11.2097 9.93331 11.7917 9.46125 12.0634C8.94984 12.2962 8.35976 12.1022 8.08439 11.6365C7.84836 11.1321 8.04505 10.55 8.51712 10.2783Z" fill="#00853F"/>
<path fill-rule="evenodd" clip-rule="evenodd" d="M8.55618 10.3565C9.02824 10.1236 9.61833 10.3177 9.85436 10.7833C10.0904 11.249 9.8937 11.8311 9.42163 12.0639C8.94957 12.2967 8.35949 12.1027 8.12345 11.637C7.88742 11.1714 8.08411 10.5893 8.55618 10.3565Z" fill="#00853F"/>
<path fill-rule="evenodd" clip-rule="evenodd" d="M8.55686 10.4277C8.98959 10.1949 9.54033 10.3889 9.77636 10.8158C10.0124 11.2426 9.8157 11.7859 9.38298 12.0187C8.95025 12.2516 8.39951 12.0575 8.16347 11.6307C7.92744 11.2038 8.12413 10.6606 8.55686 10.4277Z" fill="#00853F"/>
<path fill-rule="evenodd" clip-rule="evenodd" d="M8.55686 10.4277C8.98959 10.1949 9.54033 10.3889 9.77636 10.8158C10.0124 11.2426 9.8157 11.7859 9.38298 12.0187C8.95025 12.2516 8.39951 12.0575 8.16347 11.6307C7.92744 11.2038 8.12413 10.6606 8.55686 10.4277Z" fill="#8DC63F"/>
<path fill-rule="evenodd" clip-rule="evenodd" d="M8.55592 10.5445C8.9493 10.3504 9.46071 10.5057 9.6574 10.8937C9.8541 11.2818 9.69674 11.7862 9.30335 11.9803C8.90996 12.1743 8.39856 12.0191 8.20187 11.631C8.00517 11.243 8.16253 10.7385 8.55592 10.5445Z" fill="#8DC63F"/>
<path fill-rule="evenodd" clip-rule="evenodd" d="M8.55665 10.6626C8.9107 10.4686 9.38276 10.6238 9.57945 10.9731C9.77615 11.3223 9.61879 11.788 9.26474 11.982C8.91069 12.176 8.43863 12.0208 8.24194 11.6716C8.04524 11.3223 8.2026 10.8567 8.55665 10.6626Z" fill="#8DC63F"/>
<path fill-rule="evenodd" clip-rule="evenodd" d="M8.55663 10.7804C8.87134 10.6252 9.30407 10.7804 9.46142 11.052C9.61878 11.3625 9.46142 11.7893 9.18605 11.9446C8.87134 12.0998 8.43862 11.9446 8.28126 11.6729C8.12391 11.3625 8.28126 10.9356 8.55663 10.7804Z" fill="#8DC63F"/>
<path fill-rule="evenodd" clip-rule="evenodd" d="M8.55663 10.8976C8.832 10.7424 9.22539 10.8976 9.34341 11.1692C9.50076 11.4409 9.34341 11.8289 9.06804 11.9453C8.79266 12.1006 8.39928 11.9453 8.28126 11.6737C8.12391 11.4021 8.28126 11.014 8.55663 10.8976Z" fill="#8DC63F"/>
<path fill-rule="evenodd" clip-rule="evenodd" d="M8.55577 11.0066C8.83114 10.8902 9.14585 11.0066 9.26387 11.2394C9.38188 11.4723 9.26387 11.8215 9.02783 11.9379C8.75246 12.0543 8.43775 11.9379 8.31974 11.7051C8.20172 11.4335 8.31974 11.123 8.55577 11.0066Z" fill="#8DC63F"/>
<path fill-rule="evenodd" clip-rule="evenodd" d="M8.55628 11.1246C8.79231 11.0082 9.02835 11.1246 9.14636 11.3186C9.26438 11.5514 9.14636 11.7843 8.94967 11.9007C8.71364 12.0171 8.4776 11.9007 8.35959 11.7066C8.24157 11.4738 8.35959 11.241 8.55628 11.1246Z" fill="#8DC63F"/>
<path fill-rule="evenodd" clip-rule="evenodd" d="M8.55541 11.2414C8.7521 11.1638 8.9488 11.2414 9.06681 11.3966C9.14549 11.5906 9.06681 11.7847 8.90946 11.9011C8.71276 11.9787 8.51607 11.9011 8.39805 11.7459C8.31938 11.5518 8.39805 11.3578 8.55541 11.2414Z" fill="#8DC63F"/>
<path fill-rule="evenodd" clip-rule="evenodd" d="M8.55594 11.3203C8.71329 11.2427 8.87065 11.3203 8.94932 11.4367C9.028 11.5919 8.94932 11.7472 8.83131 11.8248C8.67395 11.9024 8.5166 11.8248 8.43792 11.7084C8.35924 11.5531 8.43792 11.3979 8.55594 11.3203Z" fill="#8DC63F"/>
<path fill-rule="evenodd" clip-rule="evenodd" d="M14.4539 21.8414C14.2965 20.9488 14.4539 20.4056 14.6506 20.0951L14.1392 19.125L13.2344 19.5519L14.4145 21.8414H14.4539Z" fill="#00853F"/>
<path fill-rule="evenodd" clip-rule="evenodd" d="M14.4167 21.643C13.866 20.5565 14.0233 19.5088 14.5741 18.9267C15.4395 18.4998 16.2263 18.3058 17.1311 18.3058C17.5245 18.6551 17.9965 18.8491 18.5473 18.8879L18.3113 18.4222L18.862 18.1118L18.2326 17.6849L18.3899 17.2969C17.9179 17.2969 17.5245 17.4133 17.0524 17.8401C16.0296 17.7237 14.2594 18.3058 13.0005 18.9267C11.7417 19.5476 10.1681 20.6729 9.69606 21.5266C9.14532 21.643 8.67326 21.9535 8.47656 22.3027L8.90929 22.4191L8.83061 23.1564L9.46003 22.846L9.7354 23.3117C10.0501 22.846 10.1681 22.3803 10.0895 21.8759C10.6009 21.1386 11.2303 20.6341 12.0957 20.2073C12.9218 20.1296 13.866 20.5953 14.4167 21.643Z" fill="#00853F"/>
<path fill-rule="evenodd" clip-rule="evenodd" d="M14.4167 21.916C13.866 20.8294 14.0233 19.7817 14.5741 19.1996C15.4395 18.7728 16.2263 18.5787 17.1311 18.5787C17.5245 18.9668 17.9965 19.0444 18.5473 18.9668L18.3113 18.6563L18.9013 18.1131L18.2326 17.9967L18.3899 17.4922C17.9179 17.5698 17.4851 17.7638 17.0524 18.1131C16.0296 17.9967 14.2987 18.6563 13.0399 19.2772C11.781 19.8981 10.2075 20.907 9.7354 21.7996C9.18466 21.916 8.83061 21.9936 8.47656 22.3428L8.94863 22.6921L8.83061 23.1965L9.42069 23.1189L9.7354 23.5846C10.0501 23.1189 10.1288 22.6921 10.0501 22.1488C10.5615 21.4115 11.1909 20.907 12.0564 20.4802C12.8825 20.4026 13.8266 20.8682 14.3774 21.916H14.4167Z" fill="#00853F"/>
<path fill-rule="evenodd" clip-rule="evenodd" d="M14.417 21.76C13.8663 20.6734 14.0236 19.6257 14.5744 19.0436C15.4398 18.6168 16.2266 18.4227 17.1314 18.4227C17.5248 18.772 17.9968 18.966 18.5476 19.0048L18.3115 18.5392L18.8623 18.1511L18.2329 17.8795L18.3902 17.375C17.9181 17.4526 17.4854 17.6466 17.0527 17.9959C16.0299 17.8795 14.299 18.5392 13.0401 19.16C11.7813 19.7809 10.2077 20.7898 9.73568 21.6824C9.18494 21.7988 8.79155 22.0316 8.4375 22.3809L8.9489 22.5749L8.83089 23.2346L9.46031 23.0405L9.73568 23.5062C10.0504 23.0405 10.1684 22.5749 10.0897 22.0704C10.6011 21.3331 11.2306 20.8287 12.096 20.4018C12.9221 20.3242 13.8663 20.7898 14.417 21.8376V21.76Z" fill="#8DC63F"/>
<path fill-rule="evenodd" clip-rule="evenodd" d="M11.5873 20.4832L11.3906 20.0951C11.9414 19.7071 12.4921 19.3966 13.0429 19.125L14.3017 21.4533C13.7116 20.4832 12.9642 20.0175 12.0987 20.2115L11.5873 20.4832Z" fill="white"/>
<path fill-rule="evenodd" clip-rule="evenodd" d="M9.88972 22.7319L9.61435 22.111L8.90625 22.0334C9.18162 21.8394 9.45699 21.723 9.81104 21.6453C9.88972 21.4513 10.0077 21.2961 10.1651 21.1797L10.4011 21.4513L10.0471 21.8782C10.0471 22.2274 10.0471 22.4991 9.92906 22.7319H9.88972Z" fill="white"/>
<path fill-rule="evenodd" clip-rule="evenodd" d="M47.1544 10.6261C47.4298 10.0828 48.0986 9.84999 48.6887 10.1216C49.2394 10.3933 49.4754 11.0529 49.2001 11.635C48.9247 12.1783 48.2166 12.4111 47.6658 12.1395C47.1151 11.8679 46.8791 11.2082 47.1544 10.6261Z" fill="white" stroke="white" stroke-width="3" stroke-linecap="round" stroke-linejoin="round"/>
<path fill-rule="evenodd" clip-rule="evenodd" d="M47.2335 10.6663C47.5089 10.1619 48.1383 9.92903 48.689 10.2007C49.2004 10.4723 49.4365 11.0932 49.1611 11.6365C48.8857 12.1409 48.2563 12.3738 47.7056 12.1021C47.1942 11.8305 46.9581 11.2096 47.2335 10.6663Z" fill="white" stroke="white" stroke-width="3" stroke-linecap="round" stroke-linejoin="round"/>
<path fill-rule="evenodd" clip-rule="evenodd" d="M47.3044 10.7061C47.5404 10.2016 48.1698 10.0076 48.6812 10.2793C49.1926 10.5121 49.3893 11.133 49.114 11.6374C48.8779 12.1419 48.2485 12.3359 47.7371 12.0643C47.2257 11.8315 47.029 11.2106 47.3044 10.7061Z" fill="white" stroke="white" stroke-width="3" stroke-linecap="round" stroke-linejoin="round"/>
<path fill-rule="evenodd" clip-rule="evenodd" d="M47.35 10.7833C47.586 10.3177 48.1761 10.1236 48.6482 10.3565C49.1203 10.5893 49.317 11.1714 49.0809 11.637C48.8449 12.1027 48.2548 12.2967 47.7827 12.0639C47.3107 11.8311 47.114 11.249 47.35 10.7833Z" fill="white" stroke="white" stroke-width="3" stroke-linecap="round" stroke-linejoin="round"/>
<path fill-rule="evenodd" clip-rule="evenodd" d="M47.4291 10.8236C47.6651 10.3967 48.1765 10.2027 48.6486 10.4355C49.0813 10.6684 49.278 11.1728 49.042 11.6385C48.806 12.0654 48.2946 12.2594 47.8225 12.0266C47.3898 11.7937 47.1931 11.2893 47.4291 10.8236Z" fill="white" stroke="white" stroke-width="3" stroke-linecap="round" stroke-linejoin="round"/>
<path fill-rule="evenodd" clip-rule="evenodd" d="M47.4291 10.8236C47.6651 10.3967 48.1765 10.2027 48.6486 10.4355C49.0813 10.6684 49.278 11.1728 49.042 11.6385C48.806 12.0654 48.2946 12.2594 47.8225 12.0266C47.3898 11.7937 47.1931 11.2893 47.4291 10.8236Z" fill="white" stroke="white" stroke-width="3" stroke-linecap="round" stroke-linejoin="round"/>
<path fill-rule="evenodd" clip-rule="evenodd" d="M47.5066 10.9015C47.7032 10.5135 48.2147 10.3583 48.608 10.5523C49.0014 10.7463 49.1588 11.2508 48.9621 11.6388C48.7654 12.0269 48.254 12.1821 47.8606 11.9881C47.4672 11.794 47.3099 11.2896 47.5066 10.9015Z" fill="white" stroke="white" stroke-width="3" stroke-linecap="round" stroke-linejoin="round"/>
<path fill-rule="evenodd" clip-rule="evenodd" d="M47.6247 10.9809C47.8214 10.6317 48.2542 10.4764 48.6476 10.6705C49.0016 10.8645 49.159 11.2913 48.9623 11.6794C48.7656 12.0286 48.3328 12.1839 47.9395 11.9898C47.5854 11.7958 47.4281 11.369 47.6247 10.9809Z" fill="white" stroke="white" stroke-width="3" stroke-linecap="round" stroke-linejoin="round"/>
<path fill-rule="evenodd" clip-rule="evenodd" d="M47.7039 11.0525C47.8613 10.7421 48.294 10.5869 48.6087 10.7809C48.9234 10.9361 49.0808 11.363 48.8841 11.6734C48.7267 11.9838 48.294 12.1391 47.9793 11.945C47.6646 11.7898 47.5072 11.363 47.7039 11.0525Z" fill="white" stroke="white" stroke-width="3" stroke-linecap="round" stroke-linejoin="round"/>
<path fill-rule="evenodd" clip-rule="evenodd" d="M47.8268 11.1369C47.9842 10.8653 48.3382 10.7488 48.6136 10.8653C48.889 11.0205 49.007 11.3697 48.889 11.6414C48.7316 11.913 48.3776 12.0294 48.1022 11.913C47.8268 11.7578 47.7088 11.4085 47.8268 11.1369Z" fill="white" stroke="white" stroke-width="3" stroke-linecap="round" stroke-linejoin="round"/>
<path fill-rule="evenodd" clip-rule="evenodd" d="M47.9047 11.2462C48.0227 10.9745 48.3374 10.8969 48.6128 11.0133C48.8881 11.1297 48.9668 11.4402 48.8488 11.7118C48.7308 11.9835 48.4161 12.0611 48.1407 11.9446C47.8653 11.8282 47.7867 11.5178 47.9047 11.2462Z" fill="white" stroke="white" stroke-width="3" stroke-linecap="round" stroke-linejoin="round"/>
<path fill-rule="evenodd" clip-rule="evenodd" d="M48.023 11.3256C48.141 11.0928 48.4164 11.0152 48.6131 11.1316C48.8491 11.248 48.9278 11.5197 48.8097 11.7137C48.6917 11.9465 48.4164 12.0241 48.2197 11.9077C47.9836 11.7913 47.905 11.5197 48.023 11.3256Z" fill="white" stroke="white" stroke-width="3" stroke-linecap="round" stroke-linejoin="round"/>
<path fill-rule="evenodd" clip-rule="evenodd" d="M48.1005 11.4036C48.1792 11.2096 48.4152 11.1708 48.6119 11.2484C48.8086 11.326 48.8479 11.5589 48.7693 11.7529C48.6906 11.9469 48.4545 11.9857 48.2578 11.9081C48.0612 11.8305 48.0218 11.5977 48.1005 11.4036Z" fill="white" stroke="white" stroke-width="3" stroke-linecap="round" stroke-linejoin="round"/>
<path fill-rule="evenodd" clip-rule="evenodd" d="M48.2112 11.4833C48.2899 11.3281 48.4472 11.2893 48.6046 11.3669C48.762 11.4445 48.8013 11.5998 48.7226 11.755C48.6439 11.9102 48.4866 11.949 48.3292 11.8714C48.1719 11.7938 48.1325 11.6386 48.2112 11.4833Z" fill="white" stroke="white" stroke-width="3" stroke-linecap="round" stroke-linejoin="round"/>
<path fill-rule="evenodd" clip-rule="evenodd" d="M18.1562 69.3745V69.2969C21.146 61.8852 25.4733 53.0376 29.2498 45.7422L42.507 20.0921L42.8217 19.4712C42.743 19.3548 42.7036 19.2772 42.625 19.1995C41.7595 18.7727 40.9727 18.5787 40.068 18.5787C39.6746 18.9667 39.2025 19.0443 38.6518 18.9667V18.8503L38.8091 18.5399L38.337 18.0742L38.9271 17.6861L38.8484 17.4533V17.2981C38.8091 17.2981 38.8091 17.2981 38.8091 17.2981C39.2812 17.2981 39.6746 17.3757 40.1466 17.8026C40.9727 17.6861 42.3103 18.0742 43.4511 18.5399L47.4243 11.5938L47.6997 11.7102L48.2111 11.9818L44.8279 19.2384C45.9294 19.898 47.0703 20.7518 47.4636 21.489C48.0144 21.6055 48.4471 21.9159 48.6831 22.2652L48.2504 22.5756V23.1189C48.2898 23.1189 48.2898 23.1189 48.2898 23.1189L47.6997 23.0413L47.385 23.5069C47.1489 23.1965 47.0703 22.8472 47.0309 22.498C47.0309 22.3428 47.0309 22.1875 47.0309 22.0323C46.5195 21.3338 45.8901 20.8294 45.064 20.4025C44.8673 20.4025 44.7099 20.4025 44.5132 20.4025L31.02 46.5571C27.2435 53.8525 22.5622 62.5448 18.1956 69.2581C18.1956 69.2581 18.1956 69.2581 18.1956 69.2969L18.1562 69.3745Z" fill="white" stroke="white" stroke-width="3" stroke-linecap="round" stroke-linejoin="round"/>
<path fill-rule="evenodd" clip-rule="evenodd" d="M44.9457 19.666L43.1754 18.7734L29.2495 45.743C25.473 53.0383 21.1457 61.8859 18.1953 69.3365C22.6013 62.6232 27.2432 53.9308 31.0198 46.6355L44.9457 19.666Z" fill="#00853F"/>
<path fill-rule="evenodd" clip-rule="evenodd" d="M44.0802 19.2L43.1754 18.7344L29.2495 45.7427C25.473 53.0381 21.1457 61.8856 18.1953 69.3362L44.0802 19.2Z" fill="#00853F"/>
<path fill-rule="evenodd" clip-rule="evenodd" d="M44.0802 19.2016L43.6082 18.9688L29.6822 45.9383C25.9057 53.2336 22.3652 60.6454 18.1953 69.3378L44.0802 19.2016Z" fill="#8DC63F"/>
<path fill-rule="evenodd" clip-rule="evenodd" d="M44.0412 19.2422L44.5132 19.475L30.5873 46.4446C26.8108 53.7399 22.0901 62.4323 18.1562 69.3784L44.0412 19.2422Z" fill="white"/>
<path fill-rule="evenodd" clip-rule="evenodd" d="M48.2061 12.0209L47.38 11.6328L43.3281 18.7341L44.7443 19.4326L48.2061 12.0209Z" fill="#00853F"/>
<path fill-rule="evenodd" clip-rule="evenodd" d="M48.096 11.9841L48.0567 11.9453L44.4375 19.2795L44.6342 19.3959L48.096 11.9841Z" fill="#8DC63F"/>
<path fill-rule="evenodd" clip-rule="evenodd" d="M47.8122 11.8656L47.4188 11.6328L43.4062 18.773L44.193 19.161L47.8122 11.8656Z" fill="#00853F"/>
<path fill-rule="evenodd" clip-rule="evenodd" d="M47.7012 11.7883L47.5045 11.6719L43.5312 18.8508L43.8853 19.006L47.7012 11.7883Z" fill="#00853F"/>
<path fill-rule="evenodd" clip-rule="evenodd" d="M47.6217 11.7497L47.543 11.7109L43.6484 18.8899L43.8058 18.9675L47.6217 11.7497Z" fill="#00853F"/>
<path fill-rule="evenodd" clip-rule="evenodd" d="M48.6802 10.1208C48.1294 9.8492 47.4606 10.0432 47.1459 10.6253C46.8706 11.1686 47.0673 11.8283 47.6573 12.1387C48.2081 12.4103 48.8768 12.2163 49.1916 11.6342C49.4669 11.091 49.2702 10.4313 48.6802 10.1208Z" fill="#00853F"/>
<path fill-rule="evenodd" clip-rule="evenodd" d="M48.6812 10.2007C48.1698 9.92903 47.5011 10.1619 47.2257 10.6663C46.9503 11.1708 47.1863 11.8305 47.6977 12.1021C48.2091 12.3738 48.8779 12.1409 49.1533 11.6365C49.4287 11.132 49.1926 10.4723 48.6812 10.2007Z" fill="#00853F"/>
<path fill-rule="evenodd" clip-rule="evenodd" d="M48.6409 10.2783C48.1295 10.0455 47.5394 10.2395 47.2641 10.7052C47.028 11.2097 47.2247 11.7917 47.6968 12.0634C48.2082 12.2962 48.7983 12.1022 49.0737 11.6365C49.3097 11.1321 49.113 10.55 48.6409 10.2783Z" fill="#00853F"/>
<path fill-rule="evenodd" clip-rule="evenodd" d="M48.6404 10.3565C48.1683 10.1236 47.5782 10.3177 47.3422 10.7833C47.1062 11.249 47.3029 11.8311 47.7749 12.0639C48.247 12.2967 48.8371 12.1027 49.0731 11.637C49.3091 11.1714 49.1124 10.5893 48.6404 10.3565Z" fill="#00853F"/>
<path fill-rule="evenodd" clip-rule="evenodd" d="M48.6017 10.4277C48.169 10.1949 47.6183 10.3889 47.3822 10.8158C47.1462 11.2426 47.3429 11.7859 47.7756 12.0187C48.2083 12.2516 48.7591 12.0575 48.9951 11.6307C49.2311 11.2038 49.0345 10.6606 48.6017 10.4277Z" fill="#00853F"/>
<path fill-rule="evenodd" clip-rule="evenodd" d="M48.6017 10.4277C48.169 10.1949 47.6183 10.3889 47.3822 10.8158C47.1462 11.2426 47.3429 11.7859 47.7756 12.0187C48.2083 12.2516 48.7591 12.0575 48.9951 11.6307C49.2311 11.2038 49.0345 10.6606 48.6017 10.4277Z" fill="#8DC63F"/>
<path fill-rule="evenodd" clip-rule="evenodd" d="M48.6002 10.5445C48.2068 10.3504 47.6954 10.5057 47.4987 10.8937C47.302 11.2818 47.4594 11.7862 47.8528 11.9803C48.2462 12.1743 48.7576 12.0191 48.9543 11.631C49.151 11.243 48.9936 10.7385 48.6002 10.5445Z" fill="#8DC63F"/>
<path fill-rule="evenodd" clip-rule="evenodd" d="M48.6007 10.6626C48.2466 10.4686 47.7746 10.6238 47.5779 10.9731C47.3812 11.3223 47.5385 11.788 47.8926 11.982C48.2466 12.176 48.7187 12.0208 48.9154 11.6716C49.1121 11.3223 48.9547 10.8567 48.6007 10.6626Z" fill="#8DC63F"/>
<path fill-rule="evenodd" clip-rule="evenodd" d="M48.6001 10.7804C48.2854 10.6252 47.8527 10.7804 47.6953 11.052C47.538 11.3625 47.6953 11.7893 47.9707 11.9446C48.2854 12.0998 48.7181 11.9446 48.8755 11.6729C49.0328 11.3625 48.8755 10.9356 48.6001 10.7804Z" fill="#8DC63F"/>
<path fill-rule="evenodd" clip-rule="evenodd" d="M48.5993 10.8976C48.3239 10.7424 47.9305 10.8976 47.8125 11.1692C47.6552 11.4409 47.8125 11.8289 48.0879 11.9453C48.3633 12.1006 48.7566 11.9453 48.8747 11.6737C49.032 11.4021 48.8747 11.014 48.5993 10.8976Z" fill="#8DC63F"/>
<path fill-rule="evenodd" clip-rule="evenodd" d="M48.5981 11.0066C48.3228 10.8902 48.0081 11.0066 47.89 11.2394C47.772 11.4723 47.89 11.8215 48.1261 11.9379C48.4015 12.0543 48.7162 11.9379 48.8342 11.7051C48.9522 11.4335 48.8342 11.123 48.5981 11.0066Z" fill="#8DC63F"/>
<path fill-rule="evenodd" clip-rule="evenodd" d="M48.5981 11.1246C48.3621 11.0082 48.126 11.1246 48.008 11.3186C47.89 11.5514 48.008 11.7843 48.2047 11.9007C48.4408 12.0171 48.6768 11.9007 48.7948 11.7066C48.9128 11.4738 48.7948 11.241 48.5981 11.1246Z" fill="#8DC63F"/>
<path fill-rule="evenodd" clip-rule="evenodd" d="M48.597 11.2414C48.4003 11.1638 48.2036 11.2414 48.0856 11.3966C48.0069 11.5906 48.0856 11.7847 48.2429 11.9011C48.4396 11.9787 48.6363 11.9011 48.7543 11.7459C48.833 11.5518 48.7543 11.3578 48.597 11.2414Z" fill="#8DC63F"/>
<path fill-rule="evenodd" clip-rule="evenodd" d="M48.5969 11.3203C48.4396 11.2427 48.2822 11.3203 48.2035 11.4367C48.1249 11.5919 48.2035 11.7472 48.3216 11.8248C48.4789 11.9024 48.6363 11.8248 48.7149 11.7084C48.7936 11.5531 48.7149 11.3979 48.5969 11.3203Z" fill="#8DC63F"/>
<path fill-rule="evenodd" clip-rule="evenodd" d="M42.6967 21.8414C42.854 20.9488 42.6967 20.4056 42.5 20.0951L43.0114 19.125L43.9162 19.5519L42.736 21.8414H42.6967Z" fill="#00853F"/>
<path fill-rule="evenodd" clip-rule="evenodd" d="M42.7812 21.643C43.332 20.5565 43.1746 19.5088 42.6239 18.9267C41.7584 18.4998 40.9716 18.3058 40.0668 18.3058C39.6735 18.6551 39.2014 18.8491 38.6506 18.8879L38.8867 18.4222L38.3359 18.1118L38.9654 17.6849L38.808 17.2969C39.2801 17.2969 39.6735 17.4133 40.1455 17.8401C41.1683 17.7237 42.9386 18.3058 44.1974 18.9267C45.4563 19.5476 47.0298 20.6729 47.5019 21.5266C48.0526 21.643 48.5247 21.9535 48.7214 22.3027L48.2886 22.4191L48.3673 23.1564L47.7379 22.846L47.4625 23.3117C47.1478 22.846 47.0298 22.3803 47.1085 21.8759C46.5971 21.1386 45.9677 20.6341 45.1022 20.2073C44.2761 20.1296 43.332 20.5953 42.7812 21.643Z" fill="#00853F"/>
<path fill-rule="evenodd" clip-rule="evenodd" d="M42.7815 21.916C43.3322 20.8294 43.1749 19.7817 42.6241 19.1996C41.7587 18.7728 40.9719 18.5787 40.0671 18.5787C39.6737 18.9668 39.2017 19.0444 38.6509 18.9668L38.887 18.6563L38.2969 18.1131L38.9656 17.9967L38.8083 17.4922C39.2803 17.5698 39.7131 17.7638 40.1458 18.1131C41.1686 17.9967 42.8995 18.6563 44.1584 19.2772C45.4172 19.8981 46.9907 20.907 47.4628 21.7996C48.0136 21.916 48.3676 21.9936 48.7217 22.3428L48.2496 22.6921L48.3676 23.1965L47.7775 23.1189L47.4628 23.5846C47.1481 23.1189 47.0694 22.6921 47.1481 22.1488C46.6367 21.4115 46.0073 20.907 45.1418 20.4802C44.3157 20.4026 43.3716 20.8682 42.8208 21.916H42.7815Z" fill="#00853F"/>
<path fill-rule="evenodd" clip-rule="evenodd" d="M42.7422 21.76C43.2929 20.6734 43.1355 19.6257 42.5848 19.0436C41.7193 18.6168 40.9326 18.4227 40.0278 18.4227C39.6344 18.772 39.1623 18.966 38.6116 19.0048L38.8476 18.5392L38.2969 18.1511L38.9263 17.8795L38.7689 17.375C39.241 17.4526 39.6737 17.6466 40.1065 17.9959C41.1293 17.8795 42.8602 18.5392 44.119 19.16C45.3779 19.7809 46.9514 20.7898 47.4235 21.6824C47.9742 21.7988 48.3676 22.0316 48.7217 22.3809L48.2103 22.5749L48.3283 23.2346L47.6988 23.0405L47.4235 23.5062C47.1088 23.0405 46.9907 22.5749 47.0694 22.0704C46.558 21.3331 45.9286 20.8287 45.0631 20.4018C44.237 20.3242 43.2929 20.7898 42.7422 21.8376V21.76Z" fill="#8DC63F"/>
<path fill-rule="evenodd" clip-rule="evenodd" d="M45.6128 20.4832L45.8095 20.0951C45.2588 19.7071 44.708 19.3966 44.1573 19.125L42.8984 21.4533C43.4885 20.4832 44.236 20.0175 45.1014 20.2115L45.6128 20.4832Z" fill="white"/>
<path fill-rule="evenodd" clip-rule="evenodd" d="M47.2692 22.7319L47.5446 22.111L48.2527 22.0334C47.9773 21.8394 47.7019 21.723 47.3479 21.6453C47.2692 21.4513 47.1512 21.2961 46.9938 21.1797L46.7578 21.4513L47.1119 21.8782C47.1119 22.2274 47.1119 22.4991 47.2299 22.7319H47.2692Z" fill="white"/>
<path d="M28.4624 57.0327C25.4334 55.9461 19.6506 53.385 14.4972 47.7583C8.439 41.1226 6.59008 33.9825 6 30.8004C6 30.8004 20.2406 27.6184 28.5018 18.3828C36.7236 27.6572 51.0036 30.8004 51.0036 30.8004C50.4135 33.9437 48.5646 41.1226 42.4671 47.7583C37.3137 53.385 31.5309 55.9461 28.5018 57.0327H28.4624Z" fill="white" stroke="white" stroke-width="7" stroke-miterlimit="10"/>
<path d="M16.2268 27.4671H24.0159L24.2126 27.0014H25.9042L28.1072 31.7356V18.9688C24.1339 22.9657 19.8853 25.6432 16.1875 27.4671H16.2268Z" fill="#007934" stroke="#8DC63F" stroke-width="2" stroke-miterlimit="3.9"/>
<path d="M15.2441 39.1466C15.8341 39.1466 16.1882 39.1466 16.3455 39.069C16.5029 39.0302 16.6209 38.9138 16.6996 38.7585C16.7783 38.6033 16.8176 38.3317 16.8176 37.9048V29.9498C16.8176 29.7169 16.8176 29.5617 16.6996 29.5229C16.6209 29.4453 16.5029 29.4453 16.2669 29.4453C15.8341 29.4453 15.3227 29.5617 14.772 29.8334C14.2213 30.105 13.7492 30.4542 13.3165 30.9199C13.1591 31.1139 12.8051 31.6184 12.215 32.4333L9.89399 31.8124L10.8775 29.6781C7.96639 30.6483 6.07812 30.9199 6.07812 30.9199C6.8649 34.8004 8.20242 38.1377 9.89399 41.048H14.6146V39.1854H15.126L15.2441 39.1466Z" fill="#007934" stroke="#8DC63F" stroke-width="2" stroke-miterlimit="3.9"/>
<path d="M24.6488 30.842C24.216 30.3764 23.6653 29.9883 23.1145 29.7167C22.6818 29.5227 22.2491 29.4063 21.8164 29.4063C21.3836 29.4063 21.4623 29.4062 21.3836 29.5227C21.305 29.6003 21.2656 29.7555 21.2656 30.0271V37.827C21.2656 38.2926 21.2656 38.5643 21.3443 38.6807C21.3836 38.7971 21.4623 38.8747 21.5803 38.9523C21.6984 39.0299 21.8164 39.0687 22.0131 39.1075C22.2098 39.1075 22.6818 39.1075 23.4293 39.1075V40.9702H28.1892V31.7346L25.8289 32.3554C25.3175 31.5793 24.9241 31.0361 24.6881 30.8032L24.6488 30.842Z" fill="#007934" stroke="#8DC63F" stroke-width="2" stroke-miterlimit="3.9"/>
<path d="M40.7709 27.4671H32.9819L32.7852 27.0014H31.0936L28.8906 31.7356V18.9688C32.8638 22.9657 37.1124 25.6432 40.8103 27.4671H40.7709Z" fill="#8DC63F" stroke="#007934" stroke-width="2" stroke-miterlimit="3.9"/>
<path d="M41.7532 39.1466C41.1632 39.1466 40.8091 39.1466 40.6518 39.069C40.4944 39.0302 40.3764 38.9138 40.2977 38.7585C40.219 38.6033 40.1797 38.3317 40.1797 37.9048V29.9498C40.1797 29.7169 40.1797 29.5617 40.2977 29.5229C40.3764 29.4453 40.4944 29.4453 40.7304 29.4453C41.1632 29.4453 41.6746 29.5617 42.2253 29.8334C42.776 30.105 43.2481 30.4542 43.6808 30.9199C43.8382 31.1139 44.1922 31.6184 44.7823 32.4333L47.1033 31.8124L46.1198 29.6781C49.0309 30.6483 50.9192 30.9199 50.9192 30.9199C50.1324 34.8004 48.7949 38.1377 47.1033 41.048H42.3827V39.1854H41.8713L41.7532 39.1466Z" fill="#8DC63F" stroke="#007934" stroke-width="2" stroke-miterlimit="3.9"/>
<path d="M32.353 30.842C32.7857 30.3764 33.3365 29.9883 33.8872 29.7167C34.3199 29.5227 34.7527 29.4063 35.1854 29.4063C35.6181 29.4063 35.5394 29.4062 35.6181 29.5227C35.6968 29.6003 35.7361 29.7555 35.7361 30.0271V37.827C35.7361 38.2926 35.7361 38.5643 35.6574 38.6807C35.6181 38.7971 35.5394 38.8747 35.4214 38.9523C35.3034 39.0299 35.1854 39.0687 34.9887 39.1075C34.792 39.1075 34.3199 39.1075 33.5725 39.1075V40.9702H28.8125V31.7346L31.1728 32.3554C31.6842 31.5793 32.0776 31.0361 32.3137 30.8032L32.353 30.842Z" fill="#8DC63F" stroke="#007934" stroke-width="2" stroke-miterlimit="3.9"/>
<path d="M31.802 41.7109H28.8516V45.0482C29.363 43.6124 30.4251 42.4094 31.802 41.7109Z" fill="#007934" stroke="#8DC63F" stroke-miterlimit="3.9"/>
<path d="M32.1625 41.7109C30.3135 42.7199 29.0547 44.6601 29.0547 46.8332C29.0547 49.0063 29.9201 49.666 30.8249 50.7137C31.2183 49.5108 32.0051 49.3943 32.0051 49.3943L31.8871 50.7137L32.5165 50.8689C32.5165 50.8689 32.2805 49.7048 32.5165 49.2003C32.6739 49.2391 33.1853 49.3167 33.1853 49.3167L32.5952 48.9287C32.5952 48.9287 33.1459 48.8511 33.3426 48.4242C33.382 48.2302 33.4213 47.9586 33.4213 47.9586C33.4213 47.9586 34.5228 47.7645 35.6636 46.3287C34.0507 47.6481 33.1066 47.6481 33.1066 47.6481C33.1066 47.6481 32.4772 46.9884 32.5952 45.9407H34.1294C34.6408 45.9407 35.2702 45.5526 34.8375 45.5526H33.0672C33.0672 45.5526 32.6739 44.8542 33.6573 44.2721C34.3654 43.884 35.3489 43.9616 35.3489 43.9616C35.3489 43.9616 35.7029 42.6423 36.2143 42.4482C36.8831 42.2542 37.7486 42.1766 38.378 43.1855C38.8894 44.078 38.5747 44.8153 38.9681 45.3586C39.3221 45.8631 39.4401 46.1735 40.7776 46.4064C40.2662 46.7168 39.8335 47.3377 38.614 46.8332C37.3158 46.2899 37.2372 45.4362 36.8044 44.9706C36.411 44.5049 36.3717 44.6601 36.3717 44.6601C36.3717 44.6601 37.0011 45.3974 36.8831 46.4452C36.7651 47.4153 36.1357 47.6481 36.0177 47.8421C35.8603 48.0362 36.6471 48.3854 37.5125 48.3854C37.2765 48.6959 36.8831 48.8899 36.8831 48.8899C37.4338 48.8899 37.8666 48.463 37.8666 48.463C38.4567 48.6182 38.8894 49.1227 38.8894 50.054C38.8894 50.2481 38.8894 50.4033 38.8107 50.5585C41.4464 48.3078 44.2001 45.3974 46.4424 41.7497H32.0051L32.1625 41.7109Z" fill="#007934" stroke="#8DC63F" stroke-miterlimit="3.9"/>
<path d="M34.713 52.8089C31.9593 52.8089 29.6383 51.1015 28.8516 48.7344V56.767C28.8516 56.767 32.1167 55.5253 36.1686 52.6537C35.6965 52.7701 35.2244 52.8089 34.713 52.8089Z" fill="#007934" stroke="#8DC63F" stroke-miterlimit="3.9"/>
<path d="M23.9396 49.7473C25.9852 49.3204 27.5194 49.3204 28.1489 49.3592V48.1562C26.4179 48.1562 22.3267 48.3891 18.0781 50.5622C18.4322 50.8726 18.7862 51.1442 19.1403 51.4159C20.9892 50.5234 22.6414 50.0189 23.9396 49.7473Z" fill="#8DC63F" stroke="#007934" stroke-miterlimit="3.9"/>
<path d="M18.788 49.6271C19.3387 49.3943 19.8501 49.1614 20.4009 49.0062C17.2144 45.5137 13.2412 43.6511 11.1562 42.875C11.7463 43.7675 12.4151 44.6212 13.0445 45.4361C14.382 46.2122 16.3096 47.5316 18.788 49.6271Z" fill="#8DC63F" stroke="#007934" stroke-miterlimit="3.9"/>
<path d="M23.2656 41.7109C25.2326 43.4184 26.8455 45.3974 28.065 47.6093C28.065 47.6093 28.1043 47.6093 28.1436 47.6093V45.0094C27.3962 43.8064 26.5701 42.6811 25.6653 41.7109H23.2656Z" fill="#8DC63F" stroke="#007934" stroke-miterlimit="3.9"/>
<path d="M14.1797 46.7578C15.3205 48.0384 16.5007 49.1637 17.6415 50.1727C17.8382 50.0562 18.0742 49.9786 18.2709 49.8622C16.658 48.504 15.3205 47.4951 14.1797 46.7578Z" fill="#8DC63F" stroke="#007934" stroke-miterlimit="3.9"/>
<path d="M23.1484 54.205C23.7779 54.5931 24.3286 54.9035 24.8793 55.214C26.6102 54.7483 27.6724 54.6707 28.1445 54.6319V53.3125C27.4757 53.3125 25.7448 53.3125 23.1484 54.205Z" fill="#8DC63F" stroke="#007934" stroke-miterlimit="3.9"/>
<path d="M21.2266 52.9288C21.6986 53.2393 22.1314 53.5497 22.5641 53.8214C25.4752 52.8124 27.4028 52.7348 28.1502 52.7736V51.5319C27.3241 51.493 24.7277 51.5319 21.2266 52.9288Z" fill="#8DC63F" stroke="#007934" stroke-miterlimit="3.9"/>
<path d="M25.5102 47.8033C26.2576 47.7257 26.9264 47.6481 27.4771 47.6481C26.2183 45.3974 24.5267 43.4184 22.4418 41.7109H19.6094C21.8517 43.3408 23.8186 45.3974 25.5102 47.8033Z" fill="#8DC63F" stroke="#007934" stroke-miterlimit="3.9"/>
<path d="M20.949 48.8125C21.4998 48.6185 22.0505 48.4633 22.6013 48.3469C19.6902 44.7768 16.8185 42.7977 14.7335 41.75H10.4062C10.4849 41.9052 10.5636 42.0216 10.6423 42.1381C12.5699 42.7977 17.2512 44.738 20.9097 48.8125H20.949Z" fill="#8DC63F" stroke="#007934" stroke-miterlimit="3.9"/>
<path d="M23.1532 48.1914C23.7826 48.0362 24.3334 47.9586 24.8841 47.8809C23.1139 45.4362 21.0289 43.3408 18.6686 41.7109H15.7969C17.8818 42.9139 20.5175 44.893 23.1532 48.1914Z" fill="#8DC63F" stroke="#007934" stroke-miterlimit="3.9"/>
<path d="M25.5547 55.5675C27.1282 56.3824 28.151 56.7704 28.151 56.7704V55.1406C27.7577 55.1406 26.8922 55.257 25.5547 55.5675Z" fill="#8DC63F" stroke="#007934" stroke-miterlimit="3.9"/>
<path d="M28.1459 51.0268V49.9015C27.1624 49.8627 23.7793 49.8239 19.6094 51.7641C19.9634 52.0358 20.3568 52.3074 20.7109 52.579C24.448 50.988 27.2018 50.9492 28.1459 51.0268Z" fill="#8DC63F" stroke="#007934" stroke-miterlimit="3.9"/>
<path d="M28.1452 44.0392V41.7109H26.375C27.0044 42.4094 27.5945 43.1855 28.1452 44.0392Z" fill="#8DC63F" stroke="#007934" stroke-miterlimit="3.9"/>
<path d="M77.5158 34.1033H72.2444V50.5179H64.9274V34.1033H59.6953V28.4766H77.5158V34.1033Z" fill="white" stroke="white" stroke-width="2" stroke-miterlimit="10"/>
<path d="M92.9342 50.5179H85.6172V28.4766H92.9342V50.5179Z" fill="white" stroke="white" stroke-width="2" stroke-miterlimit="10"/>
<path d="M118.187 34.1421H109.926V37.557H117.715V43.2225H109.926V50.4791H102.648V28.4766H118.187V34.1421Z" fill="white" stroke="white" stroke-width="2" stroke-miterlimit="10"/>
<path d="M143.172 34.1033H137.901V50.5179H130.584V34.1033H125.352V28.4766H143.172V34.1033Z" fill="white" stroke="white" stroke-width="2" stroke-miterlimit="10"/>
<path d="M170.198 41.0882C170.198 44.6195 169.372 46.6762 167.759 48.2672C166.146 49.8582 163.55 50.8671 159.97 50.8671C156.39 50.8671 153.833 49.8582 152.181 48.2672C150.568 46.6762 149.742 44.5807 149.742 41.0882V28.4766H157.099V41.3987C157.099 42.718 157.374 43.3001 157.846 43.8046C158.318 44.309 158.987 44.6195 159.97 44.6195C160.954 44.6195 161.583 44.309 162.055 43.8046C162.527 43.3389 162.763 42.6792 162.763 41.3987V28.4766H170.159V41.0882H170.198Z" fill="white" stroke="white" stroke-width="2" stroke-miterlimit="10"/>
<path d="M194 34.1421H185.739V37.557H193.528V43.2225H185.739V50.4791H178.461V28.4766H194V34.1421Z" fill="white" stroke="white" stroke-width="2" stroke-miterlimit="10"/>
<path d="M77.5158 34.1033H72.2444V50.5179H64.9274V34.1033H59.6953V28.4766H77.5158V34.1033Z" fill="#007934" stroke="#8DC63F" stroke-width="2" stroke-miterlimit="10"/>
<path d="M92.9342 50.5179H85.6172V28.4766H92.9342V50.5179Z" fill="#007934" stroke="#8DC63F" stroke-width="2" stroke-miterlimit="10"/>
<path d="M118.187 34.1421H109.926V37.557H117.715V43.2225H109.926V50.4791H102.648V28.4766H118.187V34.1421Z" fill="#007934" stroke="#8DC63F" stroke-width="2" stroke-miterlimit="10"/>
<path d="M143.172 34.1033H137.901V50.5179H130.584V34.1033H125.352V28.4766H143.172V34.1033Z" fill="#007934" stroke="#8DC63F" stroke-width="2" stroke-miterlimit="10"/>
<path d="M170.198 41.0882C170.198 44.6195 169.372 46.6762 167.759 48.2672C166.146 49.8582 163.55 50.8671 159.97 50.8671C156.39 50.8671 153.833 49.8582 152.181 48.2672C150.568 46.6762 149.742 44.5807 149.742 41.0882V28.4766H157.099V41.3987C157.099 42.718 157.374 43.3001 157.846 43.8046C158.318 44.309 158.987 44.6195 159.97 44.6195C160.954 44.6195 161.583 44.309 162.055 43.8046C162.527 43.3389 162.763 42.6792 162.763 41.3987V28.4766H170.159V41.0882H170.198Z" fill="#007934" stroke="#8DC63F" stroke-width="2" stroke-miterlimit="10"/>
<path d="M194 34.1421H185.739V37.557H193.528V43.2225H185.739V50.4791H178.461V28.4766H194V34.1421Z" fill="#007934" stroke="#8DC63F" stroke-width="2" stroke-miterlimit="10"/>
</svg>
