<svg width="20" height="20" viewBox="0 0 20 20" fill="none" xmlns="http://www.w3.org/2000/svg">
<path d="M10 0.0126953C11.3817 0.0126953 12.6805 0.274533 13.8955 0.798828C15.1106 1.32321 16.1677 2.03484 17.0664 2.93359C17.9652 3.83235 18.6768 4.88936 19.2012 6.10449C19.7255 7.31953 19.9873 8.61829 19.9873 10C19.9873 11.3817 19.7255 12.6805 19.2012 13.8955C18.6768 15.1106 17.9652 16.1677 17.0664 17.0664C16.1677 17.9652 15.1106 18.6768 13.8955 19.2012C12.6805 19.7255 11.3817 19.9873 10 19.9873C8.61829 19.9873 7.31953 19.7255 6.10449 19.2012C4.88936 18.6768 3.83235 17.9652 2.93359 17.0664C2.03484 16.1677 1.32321 15.1106 0.798828 13.8955C0.274533 12.6805 0.0126953 11.3817 0.0126953 10C0.0126953 8.61829 0.274533 7.31953 0.798828 6.10449C1.32321 4.88936 2.03484 3.83235 2.93359 2.93359C3.83235 2.03484 4.88936 1.32321 6.10449 0.798828C7.31953 0.274533 8.61829 0.0126953 10 0.0126953ZM10 1.9873C7.78004 1.9873 5.88979 2.76841 4.3291 4.3291C2.76841 5.88979 1.9873 7.78004 1.9873 10C1.9873 10.9847 2.15007 11.9112 2.47559 12.7793C2.80108 13.6473 3.25652 14.4239 3.84082 15.1084L3.84863 15.1172L3.85742 15.1104C4.70633 14.4612 5.6553 13.9488 6.7041 13.5742C7.75271 13.1997 8.85139 13.0127 10 13.0127C11.1486 13.0127 12.2473 13.1997 13.2959 13.5742C14.3447 13.9488 15.2937 14.4612 16.1426 15.1104L16.1514 15.1172L16.1592 15.1084C16.7435 14.4239 17.1989 13.6473 17.5244 12.7793C17.8499 11.9112 18.0127 10.9847 18.0127 10C18.0127 7.78004 17.2316 5.88979 15.6709 4.3291C14.1102 2.76841 12.22 1.9873 10 1.9873ZM10 4.0127C10.9801 4.0127 11.8059 4.34891 12.4785 5.02148C13.1511 5.69406 13.4873 6.51987 13.4873 7.5C13.4873 8.48013 13.1511 9.30594 12.4785 9.97852C11.8059 10.6511 10.9801 10.9873 10 10.9873C9.01987 10.9873 8.19406 10.6511 7.52148 9.97852C6.84891 9.30594 6.5127 8.48013 6.5127 7.5C6.5127 6.51987 6.84891 5.69406 7.52148 5.02148C8.19406 4.34891 9.01987 4.0127 10 4.0127Z" fill="#5D9732" stroke="#5D9732" stroke-width="0.025"/>
</svg>
