<svg width="80" height="80" viewBox="0 0 80 80" fill="none" xmlns="http://www.w3.org/2000/svg">
<g clip-path="url(#clip0_182_2335)">
<path d="M39.695 74.899C39.59 74.864 37.1866 74.0706 33.7683 72.1106C30.6183 70.3023 25.9866 67.1173 21.74 62.194C16.9683 56.664 13.655 50.1073 11.8933 42.7223C9.71163 33.5406 9.94496 23.0406 12.5816 11.514L12.6633 11.1523L12.9666 10.9306C13.0483 10.8723 15.16 9.39062 19.57 7.93229C22.125 7.08062 24.9483 6.40396 27.9583 5.92563C31.7033 5.31896 35.7516 5.01562 39.9983 5.01562C44.245 5.01562 48.2933 5.31896 52.0383 5.92563C55.0483 6.41562 57.8716 7.09229 60.4266 7.93229C64.8366 9.40229 66.9366 10.8723 67.03 10.9306L67.3333 11.1523L67.415 11.514C70.0633 23.0406 70.2966 33.5406 68.1033 42.7223C66.3416 50.1073 63.0283 56.6523 58.2566 62.194C54.01 67.1173 49.3666 70.3023 46.2283 72.1106C42.81 74.0823 40.395 74.8756 40.3016 74.899L39.9983 75.004L39.695 74.899Z" fill="#5D9732"/>
<path d="M27.9592 5.91C24.9492 6.4 22.1258 7.07667 19.5708 7.91667C15.1608 9.38667 13.0608 10.8567 12.9675 10.915L12.6642 11.1367L12.5825 11.4983C9.93416 23.025 9.70082 33.525 11.8942 42.7067C13.6558 50.0917 16.9692 56.6367 21.7408 62.1783C25.9875 67.1017 30.6308 70.2867 33.7692 72.095C37.1875 74.0667 39.6025 74.86 39.6958 74.8833L39.9992 74.9883V5C35.7525 5 31.7042 5.30333 27.9592 5.91Z" fill="#5D9732"/>
<path d="M66.464 11.7322C66.464 11.7322 58.3673 5.99219 40.004 5.99219C21.6407 5.99219 13.544 11.7322 13.544 11.7322C2.09898 61.5955 40.004 73.9622 40.004 73.9622C40.004 73.9622 77.909 61.5955 66.464 11.7322Z" fill="#404040"/>
<path d="M64.345 37.7281C64.275 37.9886 64.2051 38.2491 64.1351 38.4991C63.6922 40.0726 62.1069 41.1667 60.2885 41.1667H19.7243C17.9409 41.1667 16.3789 40.1038 15.901 38.5721C15.901 38.5512 15.8894 38.52 15.8777 38.4991C15.8544 38.4262 15.8427 38.3637 15.8194 38.2908C15.7728 38.1032 15.7145 37.9156 15.6679 37.7281C13.7446 30.3716 13.9078 21.9522 16.1341 12.6888C16.2857 12.6159 16.4605 12.5325 16.6587 12.4492C16.7519 12.4075 16.8568 12.3554 16.9617 12.3137C17.0667 12.272 17.1832 12.2199 17.2998 12.1678C17.4746 12.0949 17.6611 12.022 17.8709 11.9386C18.0691 11.8657 18.2906 11.7823 18.512 11.6989C18.6636 11.6468 18.8151 11.5843 18.9783 11.5322C19.293 11.4176 19.6427 11.303 20.0041 11.1884C20.3654 11.0737 20.7501 10.9591 21.158 10.8341C21.263 10.8028 21.3562 10.7716 21.4611 10.7507C21.7758 10.6674 22.1022 10.5736 22.4286 10.4902C23.2096 10.2818 24.0605 10.0838 24.9813 9.89628C25.5059 9.79208 26.0537 9.68788 26.6249 9.58368C27.3359 9.45864 28.0819 9.3336 28.8746 9.2294C29.504 9.14604 30.1451 9.06268 30.8212 8.98974C33.5138 8.68756 36.5678 8.5 39.9948 8.5C53.726 8.5 61.3842 11.5114 63.8671 12.6888C66.1051 21.9522 66.2566 30.3716 64.3333 37.7281H64.345Z" fill="#5D9732"/>
<path d="M57.4682 56.9281C56.8498 57.7915 56.1848 58.6198 55.4965 59.4365C49.4765 66.5065 42.4648 69.8315 40.0032 70.8465C39.6532 70.7065 39.2215 70.5198 38.7082 70.2748C38.4865 70.1698 38.2415 70.0531 37.9848 69.9248C37.9265 69.8898 37.8565 69.8665 37.7865 69.8315C37.6582 69.7615 37.5182 69.7031 37.3898 69.6331C37.2498 69.5631 37.1098 69.4931 36.9698 69.4115C36.8298 69.3298 36.6782 69.2598 36.5265 69.1781C36.0832 68.9331 35.6048 68.6648 35.1148 68.3731C34.8698 68.2215 34.6132 68.0698 34.3682 67.9181C32.0698 66.4831 29.4098 64.5231 26.7965 61.9215C26.0265 61.1515 25.2565 60.3231 24.4981 59.4481C24.3581 59.2965 24.2298 59.1331 24.1015 58.9698C23.8448 58.6665 23.5998 58.3515 23.3548 58.0365C23.3432 58.0131 23.3198 57.9898 23.3082 57.9665C23.1915 57.8148 23.0632 57.6515 22.9465 57.4998C22.8182 57.3365 22.7015 57.1731 22.5732 56.9981C22.5615 56.9748 22.5382 56.9515 22.5265 56.9281C22.5265 56.9281 22.5148 56.9048 22.5032 56.8931C21.9082 56.0298 22.5382 54.8281 23.5998 54.8281H56.3715C57.4448 54.8281 58.0748 56.0531 57.4448 56.9165L57.4682 56.9281Z" fill="#5D9732"/>
<path d="M31.7887 44.6797L29.4671 49.3464V51.8197H27.8571V49.3814L25.5938 44.6797H27.4137L28.5804 47.328C28.6037 47.3864 28.6271 47.4447 28.6504 47.503C28.6738 47.5614 28.6971 47.643 28.7321 47.7364H28.7554C28.7904 47.643 28.8138 47.573 28.8371 47.5264C28.8604 47.4797 28.8838 47.4214 28.9188 47.3514L30.1088 44.6914H31.7887V44.6797Z" fill="white"/>
<path d="M38.0785 51.8197H33.7969V44.6797H37.9152V46.0097H35.4069V47.5614H37.7402V48.8914H35.4069V50.4897H38.0785V51.8197Z" fill="white"/>
<path d="M39.6016 51.8197L42.1566 44.6797H44.0582L46.5549 51.8197H44.8632L44.3732 50.3964H41.7599L41.2816 51.8197H39.6016ZM42.1332 49.078H43.9999L43.2416 46.5814C43.2182 46.488 43.1949 46.4064 43.1716 46.3364C43.1482 46.2664 43.1249 46.173 43.1016 46.0797H43.0666C43.0432 46.1614 43.0199 46.243 42.9966 46.3247C42.9732 46.4064 42.9499 46.488 42.9149 46.5814L42.1332 49.078Z" fill="white"/>
<path d="M54.3765 51.8157H52.5681L51.5065 49.8791C51.3665 49.6224 51.2265 49.4357 51.0981 49.3191C50.9698 49.2141 50.8065 49.1557 50.6198 49.1557H50.1881V51.8041H48.5781V44.6641H51.1215C52.0081 44.6641 52.6615 44.8507 53.0815 45.2124C53.5015 45.5857 53.7115 46.0757 53.7115 46.6824C53.7115 47.1257 53.5831 47.5341 53.3148 47.9074C53.0465 48.2807 52.6731 48.5257 52.1948 48.6657V48.6891C52.3815 48.7591 52.5448 48.8874 52.7081 49.0507C52.8715 49.2257 53.0348 49.4591 53.2098 49.7624L54.3648 51.7924L54.3765 51.8157ZM50.1881 45.9007V47.9307H50.8881C51.2615 47.9307 51.5415 47.8374 51.7398 47.6391C51.9381 47.4407 52.0431 47.1841 52.0431 46.8691C52.0431 46.5541 51.9498 46.3207 51.7631 46.1574C51.5765 45.9941 51.2965 45.9124 50.9231 45.9124H50.1998L50.1881 45.9007Z" fill="white"/>
<path d="M39.999 60.7109L40.8856 62.4959L42.8573 62.7876L41.434 64.1759L41.7723 66.1476L39.999 65.2143L38.2373 66.1476L38.5756 64.1759L37.1406 62.7876L39.1123 62.4959L39.999 60.7109Z" fill="white"/>
<path d="M27.5141 56.7344L27.8991 57.5044L28.7507 57.6327L28.1324 58.2277L28.2841 59.0794L27.5141 58.6827L26.7557 59.0794L26.9074 58.2277L26.2891 57.6327L27.1407 57.5044L27.5141 56.7344Z" fill="white"/>
<path d="M52.4867 56.7344L52.8717 57.5044L53.7233 57.6327L53.105 58.2277L53.245 59.0794L52.4867 58.6827L51.7283 59.0794L51.8683 58.2277L51.25 57.6327L52.1017 57.5044L52.4867 56.7344Z" fill="white"/>
<path d="M32.7194 59.6484L33.221 60.6634L34.341 60.8268L33.536 61.6201L33.7227 62.7284L32.7194 62.2034L31.7277 62.7284L31.9144 61.6201L31.1094 60.8268L32.2294 60.6634L32.7194 59.6484Z" fill="white"/>
<path d="M47.2779 59.6484L47.7796 60.6634L48.8879 60.8268L48.0829 61.6201L48.2813 62.7284L47.2779 62.2034L46.2746 62.7284L46.4729 61.6201L45.6562 60.8268L46.7763 60.6634L47.2779 59.6484Z" fill="white"/>
<path d="M24.8333 16.6667C20.5436 16.8821 20.3821 17.0436 20.1667 21.3333C19.9513 17.0436 19.7897 16.8821 15.5 16.6667C19.7897 16.4513 19.9513 16.2897 20.1667 12C20.3821 16.2897 20.5436 16.4513 24.8333 16.6667Z" fill="white"/>
<path d="M35.388 35.5078H30.9867V19.8378C30.4716 20.19 29.9098 20.4941 29.2855 20.7342C28.6612 20.9903 27.99 21.2304 27.2565 21.4705L26.0547 17.8531C27.3345 17.4689 28.5363 16.9888 29.6756 16.4285C30.815 15.8523 31.8295 15.2121 32.7191 14.5078H35.388V35.5078Z" fill="white"/>
<path d="M47.0469 35.5078C44.6223 35.5078 42.8547 34.6533 41.7284 32.96C40.6022 31.2667 40.0547 28.7188 40.0547 25.3322C40.0547 21.9456 40.6647 19.1288 41.8849 17.2772C43.105 15.4257 44.8256 14.5078 47.0625 14.5078C49.6122 14.5078 51.4268 15.3624 52.4748 17.0873C53.5228 18.8123 54.0547 21.4076 54.0547 24.8575C54.0547 28.3074 53.4759 30.9343 52.3184 32.7542C51.1608 34.59 49.4089 35.5078 47.0625 35.5078H47.0469ZM47.0312 17.926C46.1396 17.926 45.4983 18.5274 45.1072 19.7459C44.7318 20.9645 44.5284 22.7844 44.5284 25.2215C44.5284 27.5003 44.7318 29.2252 45.1228 30.3646C45.5139 31.504 46.1552 32.0896 47.0312 32.0896C48.0011 32.0896 48.658 31.504 49.0022 30.3172C49.3463 29.1303 49.5184 27.3737 49.5184 24.9999C49.5184 22.6261 49.3307 20.8695 48.9865 19.6826C48.6268 18.4958 47.9698 17.9102 47.0156 17.9102L47.0312 17.926Z" fill="white"/>
</g>
<defs>
<clipPath id="clip0_182_2335">
<rect width="70" height="70" fill="white" transform="translate(5 5)"/>
</clipPath>
</defs>
</svg>
