<svg width="22" height="27" viewBox="0 0 22 27" fill="none" xmlns="http://www.w3.org/2000/svg">
<path d="M2.13434 7.76129C2.28568 6.05085 3.49334 4.21192 5.40409 4.10687C7.31477 4.00189 8.94864 5.46772 9.05355 7.38108C9.11112 8.43038 8.59997 9.29376 7.99491 10.0715C6.0962 12.7888 8.77755 15.7058 8.77755 15.7058C8.99836 15.9039 9.18357 16.1415 9.32317 16.4079C9.48416 16.7154 9.58421 17.0613 9.60448 17.4307C9.68007 18.8093 8.62517 19.9884 7.24852 20.064C6.21545 20.1207 5.29477 19.5403 4.86744 18.6647L4.86737 18.6645C1.36417 12.9865 2.13434 7.76129 2.13434 7.76129Z" stroke="#528917" stroke-width="1.5" stroke-miterlimit="10"/>
<path d="M7.86202 1.54917C7.90681 2.36568 8.50627 2.99658 9.20106 2.95832C9.89585 2.92021 10.4228 2.22731 10.3781 1.41087C10.3332 0.594288 9.73374 -0.0366089 9.03902 0.00165225C8.34423 0.0397636 7.81731 0.732657 7.86202 1.54917Z" fill="#528917"/>
<path d="M5.35362 1.36956C5.38854 2.00495 5.85497 2.4959 6.39566 2.46618C6.93634 2.43645 7.34647 1.89728 7.31155 1.26196C7.27678 0.626649 6.8102 0.135619 6.26951 0.165344C5.72883 0.195069 5.31885 0.73417 5.35362 1.36956Z" fill="#528917"/>
<path d="M3.18925 1.78311C3.21886 2.32349 3.61568 2.74099 4.07554 2.71583C4.53532 2.69052 4.88406 2.23206 4.85453 1.69162C4.82492 1.15124 4.42802 0.733666 3.96817 0.758898C3.50846 0.784056 3.15964 1.24267 3.18925 1.78311Z" fill="#528917"/>
<path d="M1.31397 2.69726C1.33857 3.14711 1.66884 3.49468 2.05161 3.47357C2.43445 3.4526 2.72479 3.07089 2.70012 2.62104C2.67544 2.17119 2.34517 1.82355 1.9624 1.84466C1.57957 1.8657 1.28922 2.24749 1.31397 2.69726Z" fill="#528917"/>
<path d="M0.00130377 4.33058C0.0233619 4.73131 0.31752 5.04084 0.658485 5.02212C0.999451 5.0034 1.25809 4.6634 1.23611 4.26266C1.21412 3.86201 0.919888 3.5524 0.578998 3.57112C0.237957 3.58991 -0.0206795 3.92992 0.00130377 4.33058Z" fill="#528917"/>
<path d="M19.7082 13.691C19.5571 11.9805 18.3493 10.1416 16.4387 10.0366C14.528 9.93158 12.8941 11.3974 12.7892 13.3108C12.7315 14.3601 13.2427 15.2234 13.8479 16.0012C15.7465 18.7185 13.0652 21.6354 13.0652 21.6354C12.8443 21.8336 12.6592 22.0712 12.5196 22.3375C12.3585 22.6451 12.2585 22.991 12.2382 23.3604C12.1627 24.7391 13.2175 25.9181 14.5942 25.9938C15.6271 26.0505 16.548 25.4701 16.9753 24.5944V24.5943C20.4785 18.9162 19.7082 13.691 19.7082 13.691Z" stroke="#528917" stroke-width="1.5" stroke-miterlimit="10"/>
<path d="M13.9875 7.47886C13.9427 8.29537 13.3432 8.92627 12.6485 8.888C11.9536 8.84989 11.4266 8.157 11.4714 7.34049C11.5161 6.52398 12.1156 5.89308 12.8104 5.93134C13.5053 5.96953 14.0322 6.66234 13.9875 7.47886Z" fill="#528917"/>
<path d="M16.4914 7.29917C16.4565 7.93456 15.9899 8.42552 15.4492 8.39579C14.9086 8.36614 14.4986 7.82689 14.5333 7.19158C14.5682 6.55626 15.0347 6.06531 15.5754 6.09503C16.1161 6.12476 16.5262 6.66386 16.4914 7.29917Z" fill="#528917"/>
<path d="M18.6514 7.71281C18.6217 8.25318 18.2251 8.67076 17.7652 8.64553C17.3053 8.62022 16.9565 8.16176 16.9861 7.62131C17.0158 7.08079 17.4125 6.66328 17.8724 6.68859C18.3322 6.71383 18.6811 7.17243 18.6514 7.71281Z" fill="#528917"/>
<path d="M20.5282 8.63461C20.5036 9.08446 20.1731 9.43203 19.7904 9.41106C19.4078 9.39002 19.1174 9.00831 19.1421 8.55846C19.1666 8.10869 19.497 7.76112 19.8797 7.78216C20.2626 7.80305 20.5529 8.18476 20.5282 8.63461Z" fill="#528917"/>
<path d="M21.8454 10.2603C21.8235 10.6609 21.5292 10.9705 21.1883 10.9518C20.8473 10.9331 20.5888 10.5931 20.6107 10.1924C20.6326 9.7917 20.9269 9.48209 21.2679 9.50081C21.6087 9.51945 21.8674 9.85961 21.8454 10.2603Z" fill="#528917"/>
</svg>
